<?xml version="1.0" encoding="UTF-8"?>
<!--Generator: Apple Native CoreSVG 123-->
<!DOCTYPE svg
PUBLIC "-//W3C//DTD SVG 1.1//EN"
       "http://www.w3.org/Graphics/SVG/1.1/DTD/svg11.dtd">
<svg version="1.1" xmlns="http://www.w3.org/2000/svg" xmlns:xlink="http://www.w3.org/1999/xlink" width="3300" height="2200">
 <!--glyph: "uni1003BC.medium", point size: 100.000000, font version: "Version 15.0d7e11", template writer version: "5"-->
 <g id="Notes">
  <rect height="2200" id="artboard" style="fill:white;opacity:1" width="3300" x="0" y="0"/>
  <line id="" style="fill:none;stroke:black;opacity:1;stroke-width:0.5;" x1="263" x2="3036" y1="292" y2="292"/>
  <text style="stroke:none;fill:black;font-family:-apple-system,&quot;SF Pro Display&quot;,&quot;SF Pro Text&quot;,Helvetica,sans-serif;font-weight:bold;" transform="matrix(1 0 0 1 263 322)">Weight/Scale Variations</text>
  <text style="stroke:none;fill:black;font-family:-apple-system,&quot;SF Pro Display&quot;,&quot;SF Pro Text&quot;,Helvetica,sans-serif;text-anchor:middle;" transform="matrix(1 0 0 1 559.711 322)">Ultralight</text>
  <text style="stroke:none;fill:black;font-family:-apple-system,&quot;SF Pro Display&quot;,&quot;SF Pro Text&quot;,Helvetica,sans-serif;text-anchor:middle;" transform="matrix(1 0 0 1 856.422 322)">Thin</text>
  <text style="stroke:none;fill:black;font-family:-apple-system,&quot;SF Pro Display&quot;,&quot;SF Pro Text&quot;,Helvetica,sans-serif;text-anchor:middle;" transform="matrix(1 0 0 1 1153.13 322)">Light</text>
  <text style="stroke:none;fill:black;font-family:-apple-system,&quot;SF Pro Display&quot;,&quot;SF Pro Text&quot;,Helvetica,sans-serif;text-anchor:middle;" transform="matrix(1 0 0 1 1449.84 322)">Regular</text>
  <text style="stroke:none;fill:black;font-family:-apple-system,&quot;SF Pro Display&quot;,&quot;SF Pro Text&quot;,Helvetica,sans-serif;text-anchor:middle;" transform="matrix(1 0 0 1 1746.56 322)">Medium</text>
  <text style="stroke:none;fill:black;font-family:-apple-system,&quot;SF Pro Display&quot;,&quot;SF Pro Text&quot;,Helvetica,sans-serif;text-anchor:middle;" transform="matrix(1 0 0 1 2043.27 322)">Semibold</text>
  <text style="stroke:none;fill:black;font-family:-apple-system,&quot;SF Pro Display&quot;,&quot;SF Pro Text&quot;,Helvetica,sans-serif;text-anchor:middle;" transform="matrix(1 0 0 1 2339.98 322)">Bold</text>
  <text style="stroke:none;fill:black;font-family:-apple-system,&quot;SF Pro Display&quot;,&quot;SF Pro Text&quot;,Helvetica,sans-serif;text-anchor:middle;" transform="matrix(1 0 0 1 2636.69 322)">Heavy</text>
  <text style="stroke:none;fill:black;font-family:-apple-system,&quot;SF Pro Display&quot;,&quot;SF Pro Text&quot;,Helvetica,sans-serif;text-anchor:middle;" transform="matrix(1 0 0 1 2933.4 322)">Black</text>
  <line id="" style="fill:none;stroke:black;opacity:1;stroke-width:0.5;" x1="263" x2="3036" y1="1903" y2="1903"/>
  <g id="" transform="matrix(1 0 0 1 263 1933)">
   <path d="M 9.24805 0.830078 C 13.5547 0.830078 17.1387 -2.74414 17.1387 -7.05078 C 17.1387 -11.3574 13.5449 -14.9316 9.23828 -14.9316 C 4.94141 -14.9316 1.36719 -11.3574 1.36719 -7.05078 C 1.36719 -2.74414 4.95117 0.830078 9.24805 0.830078 Z M 9.24805 -0.654297 C 5.70312 -0.654297 2.87109 -3.49609 2.87109 -7.05078 C 2.87109 -10.6055 5.69336 -13.4473 9.23828 -13.4473 C 12.793 -13.4473 15.6348 -10.6055 15.6445 -7.05078 C 15.6543 -3.49609 12.8027 -0.654297 9.24805 -0.654297 Z M 9.22852 -3.42773 C 9.69727 -3.42773 9.9707 -3.74023 9.9707 -4.25781 L 9.9707 -6.31836 L 12.1973 -6.31836 C 12.6953 -6.31836 13.0371 -6.57227 13.0371 -7.04102 C 13.0371 -7.51953 12.7148 -7.7832 12.1973 -7.7832 L 9.9707 -7.7832 L 9.9707 -10.0098 C 9.9707 -10.5273 9.69727 -10.8496 9.22852 -10.8496 C 8.75977 -10.8496 8.50586 -10.5078 8.50586 -10.0098 L 8.50586 -7.7832 L 6.29883 -7.7832 C 5.78125 -7.7832 5.44922 -7.51953 5.44922 -7.04102 C 5.44922 -6.57227 5.80078 -6.31836 6.29883 -6.31836 L 8.50586 -6.31836 L 8.50586 -4.25781 C 8.50586 -3.75977 8.75977 -3.42773 9.22852 -3.42773 Z"/>
  </g>
  <g id="" transform="matrix(1 0 0 1 281.506 1933)">
   <path d="M 11.709 2.91016 C 17.1582 2.91016 21.6699 -1.60156 21.6699 -7.05078 C 21.6699 -12.4902 17.1484 -17.0117 11.6992 -17.0117 C 6.25977 -17.0117 1.74805 -12.4902 1.74805 -7.05078 C 1.74805 -1.60156 6.26953 2.91016 11.709 2.91016 Z M 11.709 1.25 C 7.09961 1.25 3.41797 -2.44141 3.41797 -7.05078 C 3.41797 -11.6504 7.08984 -15.3516 11.6992 -15.3516 C 16.3086 -15.3516 20 -11.6504 20.0098 -7.05078 C 20.0195 -2.44141 16.3184 1.25 11.709 1.25 Z M 11.6895 -2.41211 C 12.207 -2.41211 12.5195 -2.77344 12.5195 -3.33984 L 12.5195 -6.23047 L 15.5762 -6.23047 C 16.123 -6.23047 16.5039 -6.51367 16.5039 -7.03125 C 16.5039 -7.55859 16.1426 -7.86133 15.5762 -7.86133 L 12.5195 -7.86133 L 12.5195 -10.9277 C 12.5195 -11.5039 12.207 -11.8555 11.6895 -11.8555 C 11.1719 -11.8555 10.8789 -11.4844 10.8789 -10.9277 L 10.8789 -7.86133 L 7.83203 -7.86133 C 7.26562 -7.86133 6.89453 -7.55859 6.89453 -7.03125 C 6.89453 -6.51367 7.28516 -6.23047 7.83203 -6.23047 L 10.8789 -6.23047 L 10.8789 -3.33984 C 10.8789 -2.79297 11.1719 -2.41211 11.6895 -2.41211 Z"/>
  </g>
  <g id="" transform="matrix(1 0 0 1 304.924 1933)">
   <path d="M 14.9707 5.67383 C 21.9336 5.67383 27.6953 -0.078125 27.6953 -7.04102 C 27.6953 -14.0039 21.9238 -19.7559 14.9609 -19.7559 C 8.00781 -19.7559 2.25586 -14.0039 2.25586 -7.04102 C 2.25586 -0.078125 8.01758 5.67383 14.9707 5.67383 Z M 14.9707 3.85742 C 8.93555 3.85742 4.08203 -1.00586 4.08203 -7.04102 C 4.08203 -13.0762 8.92578 -17.9395 14.9609 -17.9395 C 21.0059 -17.9395 25.8594 -13.0762 25.8691 -7.04102 C 25.8789 -1.00586 21.0156 3.85742 14.9707 3.85742 Z M 14.9512 -1.06445 C 15.5176 -1.06445 15.8691 -1.45508 15.8691 -2.06055 L 15.8691 -6.13281 L 20.1074 -6.13281 C 20.6934 -6.13281 21.1133 -6.46484 21.1133 -7.02148 C 21.1133 -7.59766 20.7227 -7.93945 20.1074 -7.93945 L 15.8691 -7.93945 L 15.8691 -12.1875 C 15.8691 -12.8027 15.5176 -13.1934 14.9512 -13.1934 C 14.3848 -13.1934 14.0625 -12.7832 14.0625 -12.1875 L 14.0625 -7.93945 L 9.83398 -7.93945 C 9.21875 -7.93945 8.80859 -7.59766 8.80859 -7.02148 C 8.80859 -6.46484 9.23828 -6.13281 9.83398 -6.13281 L 14.0625 -6.13281 L 14.0625 -2.06055 C 14.0625 -1.47461 14.3848 -1.06445 14.9512 -1.06445 Z"/>
  </g>
  <text style="stroke:none;fill:black;font-family:-apple-system,&quot;SF Pro Display&quot;,&quot;SF Pro Text&quot;,Helvetica,sans-serif;font-weight:bold;" transform="matrix(1 0 0 1 263 1953)">Design Variations</text>
  <text style="stroke:none;fill:black;font-family:-apple-system,&quot;SF Pro Display&quot;,&quot;SF Pro Text&quot;,Helvetica,sans-serif;" transform="matrix(1 0 0 1 263 1971)">Symbols are supported in up to nine weights and three scales.</text>
  <text style="stroke:none;fill:black;font-family:-apple-system,&quot;SF Pro Display&quot;,&quot;SF Pro Text&quot;,Helvetica,sans-serif;" transform="matrix(1 0 0 1 263 1989)">For optimal layout with text and other symbols, vertically align</text>
  <text style="stroke:none;fill:black;font-family:-apple-system,&quot;SF Pro Display&quot;,&quot;SF Pro Text&quot;,Helvetica,sans-serif;" transform="matrix(1 0 0 1 263 2007)">symbols with the adjacent text.</text>
  <rect height="14" id="" style="fill:#00AEEF;stroke:none;opacity:0.4;" width="3" x="776" y="1919"/>
  <g id="" transform="matrix(1 0 0 1 779 1933)">
   <path d="M 10.5273 0 L 12.373 0 L 7.17773 -14.0918 L 5.43945 -14.0918 L 0.244141 0 L 2.08984 0 L 3.50586 -4.0332 L 9.11133 -4.0332 Z M 6.2793 -11.9531 L 6.33789 -11.9531 L 8.59375 -5.52734 L 4.02344 -5.52734 Z"/>
  </g>
  <rect height="14" id="" style="fill:#00AEEF;stroke:none;opacity:0.4;" width="3" x="791.617" y="1919"/>
  <text style="stroke:none;fill:black;font-family:-apple-system,&quot;SF Pro Display&quot;,&quot;SF Pro Text&quot;,Helvetica,sans-serif;font-weight:bold;" transform="matrix(1 0 0 1 776 1953)">Margins</text>
  <text style="stroke:none;fill:black;font-family:-apple-system,&quot;SF Pro Display&quot;,&quot;SF Pro Text&quot;,Helvetica,sans-serif;" transform="matrix(1 0 0 1 776 1971)">Leading and trailing margins on the left and right side of each symbol</text>
  <text style="stroke:none;fill:black;font-family:-apple-system,&quot;SF Pro Display&quot;,&quot;SF Pro Text&quot;,Helvetica,sans-serif;" transform="matrix(1 0 0 1 776 1989)">can be adjusted by modifying the width of the blue rectangles.</text>
  <text style="stroke:none;fill:black;font-family:-apple-system,&quot;SF Pro Display&quot;,&quot;SF Pro Text&quot;,Helvetica,sans-serif;" transform="matrix(1 0 0 1 776 2007)">Modifications are automatically applied proportionally to all</text>
  <text style="stroke:none;fill:black;font-family:-apple-system,&quot;SF Pro Display&quot;,&quot;SF Pro Text&quot;,Helvetica,sans-serif;" transform="matrix(1 0 0 1 776 2025)">scales and weights.</text>
  <g id="" transform="matrix(1 0 0 1 1289 1933)">
   <path d="M 2.83203 3.11523 L 4.375 4.6582 C 5.22461 5.48828 6.19141 5.41992 7.06055 4.46289 L 17.2754 -6.66016 C 17.7051 -6.36719 18.0957 -6.37695 18.5645 -6.47461 L 19.6094 -6.68945 L 20.3027 -5.99609 L 20.2539 -5.47852 C 20.1855 -4.95117 20.3516 -4.53125 20.8496 -4.0332 L 21.6602 -3.22266 C 22.168 -2.71484 22.8223 -2.68555 23.3008 -3.16406 L 26.5527 -6.41602 C 27.0312 -6.89453 27.0117 -7.54883 26.5039 -8.05664 L 25.6836 -8.87695 C 25.1855 -9.375 24.7754 -9.55078 24.2383 -9.47266 L 23.7109 -9.41406 L 23.0566 -10.0781 L 23.3398 -11.2207 C 23.4863 -11.7871 23.3398 -12.2559 22.7148 -12.8613 L 20.3027 -15.2539 C 16.7578 -18.7793 12.2266 -18.6719 9.11133 -15.5371 C 8.69141 -15.1074 8.64258 -14.5215 8.91602 -14.0918 C 9.15039 -13.7207 9.62891 -13.4961 10.2734 -13.6621 C 11.7871 -14.043 13.3008 -13.9258 14.7852 -12.9199 L 14.1602 -11.3379 C 13.9258 -10.752 13.9453 -10.2734 14.1797 -9.83398 L 3.01758 0.439453 C 2.08008 1.30859 1.97266 2.25586 2.83203 3.11523 Z M 10.6738 -15.1465 C 13.3398 -17.1387 16.6504 -16.8262 19.0527 -14.4141 L 21.6797 -11.8066 C 21.9141 -11.5723 21.9434 -11.3867 21.8848 -11.0938 L 21.5039 -9.53125 L 23.0762 -7.95898 L 24.043 -8.04688 C 24.3262 -8.07617 24.4141 -8.05664 24.6387 -7.83203 L 25.2637 -7.20703 L 22.5098 -4.46289 L 21.8848 -5.07812 C 21.6602 -5.30273 21.6406 -5.40039 21.6699 -5.68359 L 21.7578 -6.64062 L 20.1953 -8.20312 L 18.5742 -7.89062 C 18.291 -7.83203 18.1445 -7.83203 17.9102 -8.07617 L 15.7324 -10.2539 C 15.5078 -10.4883 15.4785 -10.625 15.6055 -10.9473 L 16.5527 -13.2227 C 14.9512 -14.7559 12.8418 -15.6055 10.8008 -14.9512 C 10.7129 -14.9219 10.6445 -14.9414 10.6152 -14.9805 C 10.5859 -15.0293 10.5859 -15.0781 10.6738 -15.1465 Z M 4.10156 2.41211 C 3.61328 1.91406 3.78906 1.61133 4.12109 1.30859 L 15.0781 -8.80859 L 16.3086 -7.57812 L 6.15234 3.34961 C 5.84961 3.68164 5.46875 3.7793 5.06836 3.37891 Z"/>
  </g>
  <text style="stroke:none;fill:black;font-family:-apple-system,&quot;SF Pro Display&quot;,&quot;SF Pro Text&quot;,Helvetica,sans-serif;font-weight:bold;" transform="matrix(1 0 0 1 1289 1953)">Exporting</text>
  <text style="stroke:none;fill:black;font-family:-apple-system,&quot;SF Pro Display&quot;,&quot;SF Pro Text&quot;,Helvetica,sans-serif;" transform="matrix(1 0 0 1 1289 1971)">Symbols should be outlined when exporting to ensure the</text>
  <text style="stroke:none;fill:black;font-family:-apple-system,&quot;SF Pro Display&quot;,&quot;SF Pro Text&quot;,Helvetica,sans-serif;" transform="matrix(1 0 0 1 1289 1989)">design is preserved when submitting to Xcode.</text>
  <text id="template-version" style="stroke:none;fill:black;font-family:-apple-system,&quot;SF Pro Display&quot;,&quot;SF Pro Text&quot;,Helvetica,sans-serif;text-anchor:end;" transform="matrix(1 0 0 1 3036 1933)">Template v.1.0</text>
  <text style="stroke:none;fill:black;font-family:-apple-system,&quot;SF Pro Display&quot;,&quot;SF Pro Text&quot;,Helvetica,sans-serif;text-anchor:end;" transform="matrix(1 0 0 1 3036 1951)">Generated from camera.viewfinder</text>
  <text style="stroke:none;fill:black;font-family:-apple-system,&quot;SF Pro Display&quot;,&quot;SF Pro Text&quot;,Helvetica,sans-serif;text-anchor:end;" transform="matrix(1 0 0 1 3036 1969)">Typeset at 100 points</text>
  <text style="stroke:none;fill:black;font-family:-apple-system,&quot;SF Pro Display&quot;,&quot;SF Pro Text&quot;,Helvetica,sans-serif;" transform="matrix(1 0 0 1 263 726)">Small</text>
  <text style="stroke:none;fill:black;font-family:-apple-system,&quot;SF Pro Display&quot;,&quot;SF Pro Text&quot;,Helvetica,sans-serif;" transform="matrix(1 0 0 1 263 1156)">Medium</text>
  <text style="stroke:none;fill:black;font-family:-apple-system,&quot;SF Pro Display&quot;,&quot;SF Pro Text&quot;,Helvetica,sans-serif;" transform="matrix(1 0 0 1 263 1586)">Large</text>
 </g>
 <g id="Guides">
  <g id="H-reference" style="fill:#27AAE1;stroke:none;" transform="matrix(1 0 0 1 339 696)">
   <path d="M 54.9316 0 L 57.666 0 L 30.5664 -70.459 L 28.0762 -70.459 L 0.976562 0 L 3.66211 0 L 12.9395 -24.4629 L 45.7031 -24.4629 Z M 29.1992 -67.0898 L 29.4434 -67.0898 L 44.8242 -26.709 L 13.8184 -26.709 Z"/>
  </g>
  <line id="Baseline-S" style="fill:none;stroke:#27AAE1;opacity:1;stroke-width:0.577;" x1="263" x2="3036" y1="696" y2="696"/>
  <line id="Capline-S" style="fill:none;stroke:#27AAE1;opacity:1;stroke-width:0.577;" x1="263" x2="3036" y1="625.541" y2="625.541"/>
  <g id="H-reference" style="fill:#27AAE1;stroke:none;" transform="matrix(1 0 0 1 339 1126)">
   <path d="M 54.9316 0 L 57.666 0 L 30.5664 -70.459 L 28.0762 -70.459 L 0.976562 0 L 3.66211 0 L 12.9395 -24.4629 L 45.7031 -24.4629 Z M 29.1992 -67.0898 L 29.4434 -67.0898 L 44.8242 -26.709 L 13.8184 -26.709 Z"/>
  </g>
  <line id="Baseline-M" style="fill:none;stroke:#27AAE1;opacity:1;stroke-width:0.577;" x1="263" x2="3036" y1="1126" y2="1126"/>
  <line id="Capline-M" style="fill:none;stroke:#27AAE1;opacity:1;stroke-width:0.577;" x1="263" x2="3036" y1="1055.54" y2="1055.54"/>
  <g id="H-reference" style="fill:#27AAE1;stroke:none;" transform="matrix(1 0 0 1 339 1556)">
   <path d="M 54.9316 0 L 57.666 0 L 30.5664 -70.459 L 28.0762 -70.459 L 0.976562 0 L 3.66211 0 L 12.9395 -24.4629 L 45.7031 -24.4629 Z M 29.1992 -67.0898 L 29.4434 -67.0898 L 44.8242 -26.709 L 13.8184 -26.709 Z"/>
  </g>
  <line id="Baseline-L" style="fill:none;stroke:#27AAE1;opacity:1;stroke-width:0.577;" x1="263" x2="3036" y1="1556" y2="1556"/>
  <line id="Capline-L" style="fill:none;stroke:#27AAE1;opacity:1;stroke-width:0.577;" x1="263" x2="3036" y1="1485.54" y2="1485.54"/>
  <rect height="119.336" id="left-margin" style="fill:#00AEEF;stroke:none;opacity:0.4;" width="12.4512" x="1392.57" y="1030.79"/>
  <rect height="119.336" id="right-margin" style="fill:#00AEEF;stroke:none;opacity:0.4;" width="12.4512" x="1494.67" y="1030.79"/>
 </g>
 <g id="Symbols">
  <g id="Black-L" transform="matrix(1 0 0 1 2856.2 1556)">
   <path d="M 128.174 -47.5098 C 134.766 -47.5098 138.33 -51.0742 138.33 -57.7148 L 138.33 -72.5098 C 138.33 -87.6953 129.688 -96.2891 114.404 -96.2891 L 99.6094 -96.2891 C 92.9688 -96.2891 89.4043 -92.7246 89.4043 -86.1816 C 89.4043 -79.6387 93.0664 -76.0742 99.6094 -76.0742 L 111.67 -76.0742 C 115.918 -76.0742 118.066 -74.1699 118.066 -69.6289 L 118.066 -57.7148 C 118.066 -51.0742 121.631 -47.5098 128.174 -47.5098 Z M 26.1719 -47.5098 C 32.7637 -47.5098 36.3281 -51.123 36.3281 -57.7148 L 36.3281 -69.6289 C 36.3281 -74.1699 38.4766 -76.0742 42.6758 -76.0742 L 54.7852 -76.0742 C 61.377 -76.0742 64.9414 -79.6387 64.9414 -86.1816 C 64.9414 -92.7246 61.377 -96.2891 54.7852 -96.2891 L 39.9902 -96.2891 C 24.7559 -96.2891 16.0645 -87.6953 16.0645 -72.5098 L 16.0645 -57.7148 C 16.0645 -51.0742 19.6289 -47.5098 26.1719 -47.5098 Z M 53.2227 -13.0859 L 100.684 -13.0859 C 104.834 -13.0859 107.373 -15.5762 107.373 -19.3848 L 107.373 -47.8027 C 107.373 -51.6113 104.834 -54.1504 100.684 -54.1504 L 93.6035 -54.1504 C 91.6992 -54.1504 90.625 -54.2969 89.3555 -55.6641 L 87.6465 -57.4707 C 86.377 -58.8379 85.1074 -59.4727 83.1055 -59.4727 L 70.8008 -59.4727 C 68.7988 -59.4727 67.5293 -58.8379 66.2598 -57.4707 L 64.5508 -55.6641 C 63.2812 -54.2969 62.2559 -54.1504 60.3516 -54.1504 L 53.2227 -54.1504 C 49.1211 -54.1504 46.582 -51.6113 46.582 -47.8027 L 46.582 -19.3848 C 46.582 -15.5762 49.1211 -13.0859 53.2227 -13.0859 Z M 77.002 -22.1191 C 69.6777 -22.1191 63.7695 -28.0273 63.7695 -35.4004 C 63.7695 -42.6758 69.6777 -48.5352 77.002 -48.5352 C 84.3262 -48.5352 90.1855 -42.6758 90.1855 -35.4004 C 90.1855 -28.0273 84.3262 -22.1191 77.002 -22.1191 Z M 76.9531 -28.2715 C 80.8594 -28.2715 84.082 -31.3965 84.082 -35.4004 C 84.082 -39.2578 80.8594 -42.4805 76.9531 -42.4805 C 73.0469 -42.4805 69.873 -39.2578 69.873 -35.4004 C 69.873 -31.3965 73.0469 -28.2715 76.9531 -28.2715 Z M 39.9902 25.9277 L 54.7852 25.9277 C 61.377 25.9277 64.9414 22.3633 64.9414 15.8203 C 64.9414 9.27734 61.3281 5.71289 54.7852 5.71289 L 42.6758 5.71289 C 38.4766 5.71289 36.3281 3.80859 36.3281 -0.732422 L 36.3281 -12.6953 C 36.3281 -19.2871 32.7148 -22.9004 26.1719 -22.9004 C 19.6289 -22.9004 16.0645 -19.2871 16.0645 -12.6953 L 16.0645 2.09961 C 16.0645 17.334 24.7559 25.9277 39.9902 25.9277 Z M 99.6094 25.9277 L 114.404 25.9277 C 129.688 25.9277 138.33 17.334 138.33 2.09961 L 138.33 -12.6953 C 138.33 -19.2871 134.717 -22.9004 128.174 -22.9004 C 121.631 -22.9004 118.066 -19.2383 118.066 -12.6953 L 118.066 -0.732422 C 118.066 3.80859 115.918 5.71289 111.67 5.71289 L 99.6094 5.71289 C 92.9688 5.71289 89.4043 9.27734 89.4043 15.8203 C 89.4043 22.3633 92.9688 25.9277 99.6094 25.9277 Z"/>
  </g>
  <g id="Heavy-L" transform="matrix(1 0 0 1 2560.44 1556)">
   <path d="M 127.637 -48.8281 C 133.35 -48.8281 136.426 -51.9531 136.426 -57.666 L 136.426 -72.7051 C 136.426 -87.2559 128.271 -95.3613 113.672 -95.3613 L 98.584 -95.3613 C 92.8711 -95.3613 89.7461 -92.2363 89.7461 -86.6211 C 89.7461 -80.957 92.9199 -77.832 98.584 -77.832 L 111.523 -77.832 C 116.357 -77.832 118.896 -75.5371 118.896 -70.4102 L 118.896 -57.666 C 118.896 -51.9531 121.973 -48.8281 127.637 -48.8281 Z M 24.8047 -48.8281 C 30.5176 -48.8281 33.5938 -52.002 33.5938 -57.666 L 33.5938 -70.4102 C 33.5938 -75.5371 36.084 -77.832 40.918 -77.832 L 53.8574 -77.832 C 59.6191 -77.832 62.6953 -80.957 62.6953 -86.6211 C 62.6953 -92.2363 59.6191 -95.3613 53.8574 -95.3613 L 38.8184 -95.3613 C 24.2188 -95.3613 16.0645 -87.2559 16.0645 -72.7051 L 16.0645 -57.666 C 16.0645 -51.9531 19.1406 -48.8281 24.8047 -48.8281 Z M 51.416 -12.2559 L 100.391 -12.2559 C 104.541 -12.2559 107.178 -14.8438 107.178 -18.7012 L 107.178 -48.0957 C 107.178 -52.002 104.541 -54.5898 100.391 -54.5898 L 92.7246 -54.5898 C 90.8691 -54.5898 89.8438 -54.834 88.5742 -56.25 L 86.9141 -58.0078 C 85.5957 -59.5215 84.2285 -60.2051 82.1777 -60.2051 L 69.7266 -60.2051 C 67.627 -60.2051 66.2598 -59.5215 64.9414 -58.0078 L 63.2812 -56.25 C 62.0117 -54.834 60.9863 -54.5898 59.1797 -54.5898 L 51.416 -54.5898 C 47.3145 -54.5898 44.7266 -52.002 44.7266 -48.0957 L 44.7266 -18.7012 C 44.7266 -14.8438 47.3145 -12.2559 51.416 -12.2559 Z M 75.9766 -21.3379 C 68.3594 -21.3379 62.2559 -27.5391 62.2559 -35.1562 C 62.2559 -42.7734 68.3594 -48.877 75.9766 -48.877 C 83.5938 -48.877 89.6973 -42.7734 89.6973 -35.1562 C 89.6973 -27.5391 83.5938 -21.3379 75.9766 -21.3379 Z M 75.9277 -27.002 C 80.4199 -27.002 84.082 -30.6152 84.082 -35.1562 C 84.082 -39.5996 80.4199 -43.2617 75.9277 -43.2617 C 71.4844 -43.2617 67.8223 -39.5996 67.8223 -35.1562 C 67.8223 -30.6152 71.4844 -27.002 75.9277 -27.002 Z M 38.8184 25 L 53.8574 25 C 59.6191 25 62.6953 21.875 62.6953 16.2109 C 62.6953 10.5957 59.5703 7.4707 53.8574 7.4707 L 40.918 7.4707 C 36.084 7.4707 33.5938 5.17578 33.5938 0.0488281 L 33.5938 -12.6953 C 33.5938 -18.4082 30.4688 -21.5332 24.8047 -21.5332 C 19.1406 -21.5332 16.0645 -18.4082 16.0645 -12.6953 L 16.0645 2.34375 C 16.0645 16.8945 24.2188 25 38.8184 25 Z M 98.584 25 L 113.672 25 C 128.271 25 136.426 16.8945 136.426 2.34375 L 136.426 -12.6953 C 136.426 -18.4082 133.301 -21.5332 127.637 -21.5332 C 121.973 -21.5332 118.896 -18.4082 118.896 -12.6953 L 118.896 0.0488281 C 118.896 5.17578 116.357 7.4707 111.523 7.4707 L 98.584 7.4707 C 92.8711 7.4707 89.7461 10.5957 89.7461 16.2109 C 89.7461 21.875 92.8711 25 98.584 25 Z"/>
  </g>
  <g id="Bold-L" transform="matrix(1 0 0 1 2264.81 1556)">
   <path d="M 127.051 -50.3418 C 131.738 -50.3418 134.277 -52.8809 134.277 -57.6172 L 134.277 -72.9492 C 134.277 -86.7676 126.758 -94.2871 112.793 -94.2871 L 97.4609 -94.2871 C 92.7246 -94.2871 90.1855 -91.6992 90.1855 -87.0605 C 90.1855 -82.373 92.7734 -79.834 97.4609 -79.834 L 111.377 -79.834 C 116.846 -79.834 119.824 -77.0996 119.824 -71.2891 L 119.824 -57.6172 C 119.824 -52.8809 122.363 -50.3418 127.051 -50.3418 Z M 23.291 -50.3418 C 27.9785 -50.3418 30.5176 -52.9297 30.5176 -57.6172 L 30.5176 -71.2891 C 30.5176 -77.0996 33.4473 -79.834 38.9648 -79.834 L 52.8809 -79.834 C 57.5684 -79.834 60.1562 -82.373 60.1562 -87.0605 C 60.1562 -91.6992 57.5684 -94.2871 52.8809 -94.2871 L 37.5 -94.2871 C 23.6328 -94.2871 16.0645 -86.8164 16.0645 -72.9492 L 16.0645 -57.6172 C 16.0645 -52.8809 18.6035 -50.3418 23.291 -50.3418 Z M 49.4629 -11.3281 L 100.098 -11.3281 C 104.297 -11.3281 106.982 -13.9648 106.982 -17.9199 L 106.982 -48.4375 C 106.982 -52.3926 104.297 -55.0781 100.098 -55.0781 L 91.7969 -55.0781 C 89.9902 -55.0781 88.9648 -55.3711 87.6953 -56.8359 L 86.084 -58.6914 C 84.7168 -60.3027 83.252 -60.9863 81.1523 -60.9863 L 68.457 -60.9863 C 66.3086 -60.9863 64.8438 -60.3027 63.4766 -58.6914 L 61.8652 -56.8359 C 60.5469 -55.3711 59.6191 -55.0781 57.8613 -55.0781 L 49.4629 -55.0781 C 45.3125 -55.0781 42.627 -52.3926 42.627 -48.4375 L 42.627 -17.9199 C 42.627 -13.9648 45.3125 -11.3281 49.4629 -11.3281 Z M 74.8535 -20.5078 C 66.8945 -20.5078 60.5469 -26.9531 60.5469 -34.8633 C 60.5469 -42.8223 66.8945 -49.1699 74.8535 -49.1699 C 82.7637 -49.1699 89.1113 -42.8223 89.1113 -34.8633 C 89.1113 -26.9531 82.7637 -20.5078 74.8535 -20.5078 Z M 74.8047 -25.5859 C 79.9316 -25.5859 84.082 -29.7363 84.082 -34.8633 C 84.082 -39.9902 79.9316 -44.1406 74.8047 -44.1406 C 69.6777 -44.1406 65.5762 -39.9902 65.5762 -34.8633 C 65.5762 -29.7363 69.6777 -25.5859 74.8047 -25.5859 Z M 37.5 23.9258 L 52.8809 23.9258 C 57.5684 23.9258 60.1562 21.3867 60.1562 16.6992 C 60.1562 12.0605 57.5684 9.47266 52.8809 9.47266 L 38.9648 9.47266 C 33.4473 9.47266 30.5176 6.73828 30.5176 0.976562 L 30.5176 -12.7441 C 30.5176 -17.4316 27.9297 -20.0195 23.291 -20.0195 C 18.6035 -20.0195 16.0645 -17.4316 16.0645 -12.7441 L 16.0645 2.63672 C 16.0645 16.4551 23.6328 23.9258 37.5 23.9258 Z M 97.4609 23.9258 L 112.793 23.9258 C 126.758 23.9258 134.277 16.4062 134.277 2.63672 L 134.277 -12.7441 C 134.277 -17.4316 131.689 -20.0195 127.051 -20.0195 C 122.363 -20.0195 119.824 -17.4316 119.824 -12.7441 L 119.824 0.976562 C 119.824 6.73828 116.846 9.47266 111.377 9.47266 L 97.4609 9.47266 C 92.7246 9.47266 90.1855 12.0605 90.1855 16.6992 C 90.1855 21.3867 92.7246 23.9258 97.4609 23.9258 Z"/>
  </g>
  <g id="Semibold-L" transform="matrix(1 0 0 1 1968.83 1556)">
   <path d="M 126.611 -51.3672 C 130.664 -51.3672 132.812 -53.5645 132.812 -57.6172 L 132.812 -73.1445 C 132.812 -86.4258 125.684 -93.5547 112.207 -93.5547 L 96.6797 -93.5547 C 92.6758 -93.5547 90.4297 -91.3574 90.4297 -87.3535 C 90.4297 -83.3984 92.6758 -81.2012 96.6797 -81.2012 L 111.23 -81.2012 C 117.139 -81.2012 120.459 -78.125 120.459 -71.9238 L 120.459 -57.6172 C 120.459 -53.5645 122.656 -51.3672 126.611 -51.3672 Z M 22.2168 -51.3672 C 26.2695 -51.3672 28.418 -53.5645 28.418 -57.6172 L 28.418 -71.9238 C 28.418 -78.125 31.6406 -81.2012 37.5977 -81.2012 L 52.1484 -81.2012 C 56.2012 -81.2012 58.3984 -83.3984 58.3984 -87.3535 C 58.3984 -91.3574 56.2012 -93.5547 52.1484 -93.5547 L 36.6211 -93.5547 C 23.1934 -93.5547 16.0645 -86.4746 16.0645 -73.1445 L 16.0645 -57.6172 C 16.0645 -53.5645 18.2617 -51.3672 22.2168 -51.3672 Z M 48.0957 -10.6934 L 99.9023 -10.6934 C 104.102 -10.6934 106.836 -13.3789 106.836 -17.3828 L 106.836 -48.6816 C 106.836 -52.6855 104.102 -55.4199 99.9023 -55.4199 L 91.1133 -55.4199 C 89.3555 -55.4199 88.3789 -55.7617 87.1094 -57.2754 L 85.498 -59.1309 C 84.082 -60.791 82.5684 -61.5234 80.4688 -61.5234 L 67.5781 -61.5234 C 65.3809 -61.5234 63.8672 -60.791 62.4512 -59.1309 L 60.8887 -57.2754 C 59.5703 -55.7617 58.6426 -55.4199 56.9336 -55.4199 L 48.0957 -55.4199 C 43.8965 -55.4199 41.2109 -52.6855 41.2109 -48.6816 L 41.2109 -17.3828 C 41.2109 -13.3789 43.8965 -10.6934 48.0957 -10.6934 Z M 74.0234 -19.9219 C 65.918 -19.9219 59.3262 -26.5625 59.3262 -34.668 C 59.3262 -42.8711 65.918 -49.4141 74.0234 -49.4141 C 82.1777 -49.4141 88.7207 -42.8711 88.7207 -34.668 C 88.7207 -26.5625 82.1777 -19.9219 74.0234 -19.9219 Z M 74.0234 -24.6094 C 79.5898 -24.6094 84.082 -29.1016 84.082 -34.668 C 84.082 -40.2832 79.5898 -44.7754 74.0234 -44.7754 C 68.457 -44.7754 63.9648 -40.2832 63.9648 -34.668 C 63.9648 -29.1016 68.457 -24.6094 74.0234 -24.6094 Z M 36.6211 23.1934 L 52.1484 23.1934 C 56.2012 23.1934 58.3984 20.9961 58.3984 17.041 C 58.3984 13.0371 56.2012 10.8398 52.1484 10.8398 L 37.5977 10.8398 C 31.6406 10.8398 28.418 7.8125 28.418 1.5625 L 28.418 -12.7441 C 28.418 -16.7969 26.2207 -18.9941 22.2168 -18.9941 C 18.2129 -18.9941 16.0645 -16.7969 16.0645 -12.7441 L 16.0645 2.7832 C 16.0645 16.1621 23.1934 23.1934 36.6211 23.1934 Z M 96.6797 23.1934 L 112.207 23.1934 C 125.684 23.1934 132.812 16.1133 132.812 2.7832 L 132.812 -12.7441 C 132.812 -16.7969 130.615 -18.9941 126.611 -18.9941 C 122.607 -18.9941 120.459 -16.748 120.459 -12.7441 L 120.459 1.5625 C 120.459 7.8125 117.139 10.8398 111.23 10.8398 L 96.6797 10.8398 C 92.6758 10.8398 90.4297 13.0371 90.4297 17.041 C 90.4297 20.9961 92.6758 23.1934 96.6797 23.1934 Z"/>
  </g>
  <g id="Medium-L" transform="matrix(1 0 0 1 1672.68 1556)">
   <path d="M 126.318 -52.0996 C 129.834 -52.0996 131.689 -54.0527 131.689 -57.5684 L 131.689 -73.2422 C 131.689 -86.1816 124.902 -92.9688 111.768 -92.9688 L 96.0938 -92.9688 C 92.5781 -92.9688 90.6738 -91.0645 90.6738 -87.5977 C 90.6738 -84.1309 92.627 -82.2266 96.0938 -82.2266 L 111.182 -82.2266 C 117.432 -82.2266 120.947 -78.9551 120.947 -72.3633 L 120.947 -57.5684 C 120.947 -54.0527 122.852 -52.0996 126.318 -52.0996 Z M 21.4355 -52.0996 C 24.9512 -52.0996 26.8066 -54.0527 26.8066 -57.5684 L 26.8066 -72.3633 C 26.8066 -78.9551 30.2246 -82.2266 36.5723 -82.2266 L 51.6602 -82.2266 C 55.1758 -82.2266 57.0801 -84.1309 57.0801 -87.5977 C 57.0801 -91.0645 55.1758 -92.9688 51.6602 -92.9688 L 35.9375 -92.9688 C 22.9004 -92.9688 16.0645 -86.2305 16.0645 -73.2422 L 16.0645 -57.5684 C 16.0645 -54.0527 17.9688 -52.0996 21.4355 -52.0996 Z M 47.0215 -10.2051 L 99.707 -10.2051 C 103.955 -10.2051 106.738 -12.8906 106.738 -16.9434 L 106.738 -48.877 C 106.738 -52.9297 103.955 -55.6641 99.707 -55.6641 L 90.625 -55.6641 C 88.916 -55.6641 87.9395 -56.0547 86.6699 -57.6172 L 85.0586 -59.4727 C 83.6426 -61.1816 82.0312 -61.9629 79.8828 -61.9629 L 66.9434 -61.9629 C 64.6973 -61.9629 63.1348 -61.1816 61.6699 -59.4727 L 60.1074 -57.6172 C 58.8379 -56.0547 57.9102 -55.6641 56.25 -55.6641 L 47.0215 -55.6641 C 42.8223 -55.6641 40.0879 -52.9297 40.0879 -48.877 L 40.0879 -16.9434 C 40.0879 -12.8906 42.8223 -10.2051 47.0215 -10.2051 Z M 73.4375 -19.4824 C 65.1367 -19.4824 58.4473 -26.2207 58.4473 -34.5215 C 58.4473 -42.8711 65.1367 -49.6094 73.4375 -49.6094 C 81.7871 -49.6094 88.4277 -42.8711 88.4277 -34.5215 C 88.4277 -26.2207 81.7871 -19.4824 73.4375 -19.4824 Z M 73.4375 -23.877 C 79.2969 -23.877 84.082 -28.6133 84.082 -34.5215 C 84.082 -40.4785 79.2969 -45.2148 73.4375 -45.2148 C 67.5293 -45.2148 62.793 -40.4785 62.793 -34.5215 C 62.793 -28.6133 67.5293 -23.877 73.4375 -23.877 Z M 35.9375 22.6562 L 51.6602 22.6562 C 55.1758 22.6562 57.0801 20.752 57.0801 17.2852 C 57.0801 13.8184 55.127 11.9141 51.6602 11.9141 L 36.5723 11.9141 C 30.2246 11.9141 26.8066 8.59375 26.8066 2.05078 L 26.8066 -12.7441 C 26.8066 -16.2598 24.9023 -18.2129 21.4355 -18.2129 C 17.9199 -18.2129 16.0645 -16.2598 16.0645 -12.7441 L 16.0645 2.92969 C 16.0645 15.918 22.9004 22.6562 35.9375 22.6562 Z M 96.0938 22.6562 L 111.768 22.6562 C 124.902 22.6562 131.689 15.8691 131.689 2.92969 L 131.689 -12.7441 C 131.689 -16.2598 129.785 -18.2129 126.318 -18.2129 C 122.803 -18.2129 120.947 -16.2598 120.947 -12.7441 L 120.947 2.05078 C 120.947 8.59375 117.432 11.9141 111.182 11.9141 L 96.0938 11.9141 C 92.5781 11.9141 90.6738 13.8184 90.6738 17.2852 C 90.6738 20.752 92.5781 22.6562 96.0938 22.6562 Z"/>
  </g>
  <g id="Regular-L" transform="matrix(1 0 0 1 1376.7 1556)">
   <path d="M 125.879 -53.125 C 128.711 -53.125 130.225 -54.7363 130.225 -57.5195 L 130.225 -73.4375 C 130.225 -85.8398 123.877 -92.2363 111.23 -92.2363 L 95.3125 -92.2363 C 92.5293 -92.2363 90.918 -90.6738 90.918 -87.8906 C 90.918 -85.1562 92.5293 -83.5938 95.3125 -83.5938 L 111.035 -83.5938 C 117.725 -83.5938 121.582 -79.9805 121.582 -72.9492 L 121.582 -57.5195 C 121.582 -54.7363 123.145 -53.125 125.879 -53.125 Z M 20.4102 -53.125 C 23.1934 -53.125 24.707 -54.7363 24.707 -57.5195 L 24.707 -72.9492 C 24.707 -79.9805 28.418 -83.5938 35.2539 -83.5938 L 50.9766 -83.5938 C 53.7598 -83.5938 55.3711 -85.1562 55.3711 -87.8906 C 55.3711 -90.6738 53.7598 -92.2363 50.9766 -92.2363 L 35.0586 -92.2363 C 22.4609 -92.2363 16.0645 -85.9375 16.0645 -73.4375 L 16.0645 -57.5195 C 16.0645 -54.7363 17.627 -53.125 20.4102 -53.125 Z M 45.7031 -9.57031 L 99.5117 -9.57031 C 103.76 -9.57031 106.641 -12.3047 106.641 -16.4062 L 106.641 -49.1211 C 106.641 -53.2227 103.76 -56.0059 99.5117 -56.0059 L 89.9414 -56.0059 C 88.2812 -56.0059 87.3535 -56.4453 86.0352 -58.0566 L 84.5215 -59.9121 C 83.0566 -61.7188 81.3965 -62.5 79.1992 -62.5 L 66.1133 -62.5 C 63.8184 -62.5 62.1582 -61.7188 60.6934 -59.9121 L 59.1309 -58.0566 C 57.8613 -56.4453 56.9336 -56.0059 55.3223 -56.0059 L 45.7031 -56.0059 C 41.4551 -56.0059 38.6719 -53.2227 38.6719 -49.1211 L 38.6719 -16.4062 C 38.6719 -12.3047 41.4551 -9.57031 45.7031 -9.57031 Z M 72.6562 -18.9453 C 64.1602 -18.9453 57.2754 -25.8301 57.2754 -34.3262 C 57.2754 -42.9199 64.1602 -49.8047 72.6562 -49.8047 C 81.2012 -49.8047 88.0859 -42.9199 88.0859 -34.3262 C 88.0859 -25.8301 81.2012 -18.9453 72.6562 -18.9453 Z M 72.6562 -22.9492 C 78.9551 -22.9492 84.082 -28.0273 84.082 -34.3262 C 84.082 -40.7715 78.9551 -45.8496 72.6562 -45.8496 C 66.3086 -45.8496 61.2305 -40.7715 61.2305 -34.3262 C 61.2305 -28.0273 66.3086 -22.9492 72.6562 -22.9492 Z M 35.0586 21.9238 L 50.9766 21.9238 C 53.7598 21.9238 55.3711 20.3613 55.3711 17.5781 C 55.3711 14.8438 53.7598 13.2812 50.9766 13.2812 L 35.2539 13.2812 C 28.418 13.2812 24.707 9.66797 24.707 2.63672 L 24.707 -12.793 C 24.707 -15.5762 23.1445 -17.1875 20.4102 -17.1875 C 17.5781 -17.1875 16.0645 -15.5762 16.0645 -12.793 L 16.0645 3.125 C 16.0645 15.625 22.4609 21.9238 35.0586 21.9238 Z M 95.3125 21.9238 L 111.23 21.9238 C 123.877 21.9238 130.225 15.5273 130.225 3.125 L 130.225 -12.793 C 130.225 -15.5762 128.662 -17.1875 125.879 -17.1875 C 123.096 -17.1875 121.582 -15.5762 121.582 -12.793 L 121.582 2.63672 C 121.582 9.66797 117.725 13.2812 111.035 13.2812 L 95.3125 13.2812 C 92.5293 13.2812 90.918 14.8438 90.918 17.5781 C 90.918 20.3613 92.5293 21.9238 95.3125 21.9238 Z"/>
  </g>
  <g id="Light-L" transform="matrix(1 0 0 1 1081.01 1556)">
   <path d="M 124.902 -53.418 C 127.051 -53.418 128.174 -54.6875 128.174 -56.8359 L 128.174 -73.3398 C 128.174 -85.0586 122.119 -91.2109 110.205 -91.2109 L 93.7012 -91.2109 C 91.5527 -91.2109 90.2832 -90.0391 90.2832 -87.8906 C 90.2832 -85.791 91.5527 -84.5703 93.7012 -84.5703 L 110.059 -84.5703 C 117.383 -84.5703 121.582 -80.6152 121.582 -72.998 L 121.582 -56.8359 C 121.582 -54.6875 122.754 -53.418 124.902 -53.418 Z M 19.3848 -53.418 C 21.5332 -53.418 22.7051 -54.6875 22.7051 -56.8359 L 22.7051 -72.998 C 22.7051 -80.6152 26.709 -84.5703 34.1797 -84.5703 L 50.5859 -84.5703 C 52.7344 -84.5703 53.9551 -85.791 53.9551 -87.8906 C 53.9551 -90.0391 52.7344 -91.2109 50.5859 -91.2109 L 34.0332 -91.2109 C 22.168 -91.2109 16.0645 -85.1562 16.0645 -73.3398 L 16.0645 -56.8359 C 16.0645 -54.6875 17.2363 -53.418 19.3848 -53.418 Z M 44.4824 -9.0332 L 99.0723 -9.0332 C 103.467 -9.0332 106.055 -11.5723 106.055 -15.8203 L 106.055 -49.4141 C 106.055 -53.6621 103.467 -56.2012 99.0723 -56.2012 L 89.5508 -56.2012 C 87.793 -56.2012 86.6211 -56.7871 85.3516 -58.3496 L 83.4961 -60.498 C 82.0312 -62.3047 80.4688 -62.9883 78.3203 -62.9883 L 65.332 -62.9883 C 63.0859 -62.9883 61.5723 -62.3047 60.0586 -60.498 L 58.2031 -58.3496 C 56.9336 -56.7871 55.8105 -56.2012 54.0527 -56.2012 L 44.4824 -56.2012 C 40.1367 -56.2012 37.5977 -53.6621 37.5977 -49.4141 L 37.5977 -15.8203 C 37.5977 -11.5723 40.1367 -9.0332 44.4824 -9.0332 Z M 71.8262 -18.5547 C 63.1836 -18.5547 56.2012 -25.5371 56.2012 -34.1797 C 56.2012 -42.8711 63.1836 -49.9023 71.8262 -49.9023 C 80.4688 -49.9023 87.4512 -42.8711 87.4512 -34.1797 C 87.4512 -25.5371 80.4688 -18.5547 71.8262 -18.5547 Z M 71.8262 -21.9727 C 78.6133 -21.9727 84.082 -27.3926 84.082 -34.1797 C 84.082 -41.0645 78.6133 -46.5332 71.8262 -46.5332 C 65.0391 -46.5332 59.5703 -41.0645 59.5703 -34.1797 C 59.5703 -27.3926 65.0391 -21.9727 71.8262 -21.9727 Z M 34.0332 20.9473 L 50.5859 20.9473 C 52.7344 20.9473 53.9551 19.7266 53.9551 17.627 C 53.9551 15.4785 52.7344 14.3066 50.5859 14.3066 L 34.1797 14.3066 C 26.709 14.3066 22.7051 10.3516 22.7051 2.73438 L 22.7051 -13.4766 C 22.7051 -15.625 21.4844 -16.8457 19.3848 -16.8457 C 17.2363 -16.8457 16.0645 -15.625 16.0645 -13.4766 L 16.0645 3.07617 C 16.0645 14.8438 22.168 20.9473 34.0332 20.9473 Z M 93.7012 20.9473 L 110.205 20.9473 C 122.119 20.9473 128.174 14.7461 128.174 3.07617 L 128.174 -13.4766 C 128.174 -15.625 127.002 -16.8457 124.902 -16.8457 C 122.705 -16.8457 121.582 -15.625 121.582 -13.4766 L 121.582 2.73438 C 121.582 10.3516 117.383 14.3066 110.059 14.3066 L 93.7012 14.3066 C 91.5527 14.3066 90.2832 15.4785 90.2832 17.627 C 90.2832 19.7266 91.5527 20.9473 93.7012 20.9473 Z"/>
  </g>
  <g id="Thin-L" transform="matrix(1 0 0 1 785.646 1556)">
   <path d="M 123.535 -53.8086 C 124.805 -53.8086 125.488 -54.5898 125.488 -55.8594 L 125.488 -73.2422 C 125.488 -83.9844 119.775 -89.8438 108.887 -89.8438 L 91.5039 -89.8438 C 90.2344 -89.8438 89.4531 -89.1602 89.4531 -87.8906 C 89.4531 -86.6211 90.2344 -85.8887 91.5039 -85.8887 L 108.74 -85.8887 C 116.895 -85.8887 121.582 -81.543 121.582 -73.0469 L 121.582 -55.8594 C 121.582 -54.5898 122.266 -53.8086 123.535 -53.8086 Z M 18.0176 -53.8086 C 19.2871 -53.8086 19.9707 -54.5898 19.9707 -55.8594 L 19.9707 -73.0469 C 19.9707 -81.543 24.4141 -85.8887 32.8125 -85.8887 L 50.0488 -85.8887 C 51.3184 -85.8887 52.0996 -86.6211 52.0996 -87.8906 C 52.0996 -89.1602 51.3184 -89.8438 50.0488 -89.8438 L 32.666 -89.8438 C 21.7773 -89.8438 16.0645 -84.1309 16.0645 -73.2422 L 16.0645 -55.8594 C 16.0645 -54.5898 16.748 -53.8086 18.0176 -53.8086 Z M 42.9199 -8.34961 L 98.4863 -8.34961 C 103.027 -8.34961 105.273 -10.5957 105.273 -15.0391 L 105.273 -49.8047 C 105.273 -54.248 103.027 -56.4941 98.4863 -56.4941 L 89.0625 -56.4941 C 87.1094 -56.4941 85.6934 -57.1777 84.4238 -58.7402 L 82.1777 -61.2793 C 80.6641 -63.0371 79.248 -63.623 77.0996 -63.623 L 64.3555 -63.623 C 62.1582 -63.623 60.7422 -63.0371 59.2285 -61.2793 L 56.9824 -58.7402 C 55.7129 -57.1777 54.3457 -56.4941 52.3926 -56.4941 L 42.9199 -56.4941 C 38.3789 -56.4941 36.1328 -54.248 36.1328 -49.8047 L 36.1328 -15.0391 C 36.1328 -10.5957 38.3789 -8.34961 42.9199 -8.34961 Z M 70.7031 -18.0176 C 61.9141 -18.0176 54.7852 -25.1465 54.7852 -33.9844 C 54.7852 -42.8223 61.9141 -50.0488 70.7031 -50.0488 C 79.541 -50.0488 86.6699 -42.8223 86.6699 -33.9844 C 86.6699 -25.1465 79.541 -18.0176 70.7031 -18.0176 Z M 70.7031 -20.6543 C 78.125 -20.6543 84.082 -26.5625 84.082 -33.9844 C 84.082 -41.4551 78.125 -47.4121 70.7031 -47.4121 C 63.3301 -47.4121 57.3242 -41.4551 57.3242 -33.9844 C 57.3242 -26.5625 63.3301 -20.6543 70.7031 -20.6543 Z M 32.666 19.6289 L 50.0488 19.6289 C 51.3184 19.6289 52.0996 18.8965 52.0996 17.627 C 52.0996 16.3574 51.3184 15.6738 50.0488 15.6738 L 32.8125 15.6738 C 24.4141 15.6738 19.9707 11.2793 19.9707 2.83203 L 19.9707 -14.3555 C 19.9707 -15.625 19.2871 -16.4062 18.0176 -16.4062 C 16.748 -16.4062 16.0645 -15.625 16.0645 -14.3555 L 16.0645 3.02734 C 16.0645 13.8672 21.7773 19.6289 32.666 19.6289 Z M 91.5039 19.6289 L 108.887 19.6289 C 119.775 19.6289 125.488 13.7207 125.488 3.02734 L 125.488 -14.3555 C 125.488 -15.625 124.805 -16.4062 123.535 -16.4062 C 122.266 -16.4062 121.582 -15.625 121.582 -14.3555 L 121.582 2.83203 C 121.582 11.2793 116.895 15.6738 108.74 15.6738 L 91.5039 15.6738 C 90.2344 15.6738 89.4531 16.3574 89.4531 17.627 C 89.4531 18.8965 90.2344 19.6289 91.5039 19.6289 Z"/>
  </g>
  <g id="Ultralight-L" transform="matrix(1 0 0 1 489.618 1556)">
   <path d="M 122.852 -54.0039 C 123.682 -54.0039 124.121 -54.541 124.121 -55.3711 L 124.121 -73.1934 C 124.121 -83.3984 118.604 -89.1113 108.203 -89.1113 L 90.3809 -89.1113 C 89.5508 -89.1113 89.0625 -88.6719 89.0625 -87.8418 C 89.0625 -87.0117 89.5508 -86.5723 90.3809 -86.5723 L 108.057 -86.5723 C 116.65 -86.5723 121.582 -81.9824 121.582 -73.0957 L 121.582 -55.3711 C 121.582 -54.541 122.021 -54.0039 122.852 -54.0039 Z M 17.334 -54.0039 C 18.1641 -54.0039 18.6035 -54.541 18.6035 -55.3711 L 18.6035 -73.0957 C 18.6035 -81.9824 23.1934 -86.5723 32.1289 -86.5723 L 49.8047 -86.5723 C 50.6348 -86.5723 51.1719 -87.0117 51.1719 -87.8418 C 51.1719 -88.6719 50.6348 -89.1113 49.8047 -89.1113 L 31.9824 -89.1113 C 21.582 -89.1113 16.0645 -83.5938 16.0645 -73.1934 L 16.0645 -55.3711 C 16.0645 -54.541 16.5039 -54.0039 17.334 -54.0039 Z M 42.1387 -8.00781 L 98.1934 -8.00781 C 102.832 -8.00781 104.883 -10.1074 104.883 -14.6484 L 104.883 -50 C 104.883 -54.541 102.832 -56.6406 98.1934 -56.6406 L 88.8184 -56.6406 C 86.7676 -56.6406 85.2539 -57.4219 83.9355 -58.9355 L 81.543 -61.6699 C 79.9805 -63.4277 78.6621 -63.9648 76.4648 -63.9648 L 63.8184 -63.9648 C 61.6699 -63.9648 60.3516 -63.4277 58.7891 -61.6699 L 56.3965 -58.9355 C 55.0781 -57.4219 53.5645 -56.6406 51.5137 -56.6406 L 42.1387 -56.6406 C 37.5 -56.6406 35.4004 -54.541 35.4004 -50 L 35.4004 -14.6484 C 35.4004 -10.1074 37.5 -8.00781 42.1387 -8.00781 Z M 70.166 -17.7734 C 61.2793 -17.7734 54.0527 -24.9512 54.0527 -33.8379 C 54.0527 -42.8223 61.2793 -50.0977 70.166 -50.0977 C 79.0527 -50.0977 86.2305 -42.8223 86.2305 -33.8379 C 86.2305 -24.9512 79.0527 -17.7734 70.166 -17.7734 Z M 70.166 -19.9707 C 77.8809 -19.9707 84.082 -26.123 84.082 -33.8379 C 84.082 -41.6504 77.8809 -47.9004 70.166 -47.9004 C 62.4512 -47.9004 56.2012 -41.6504 56.2012 -33.8379 C 56.2012 -26.123 62.4512 -19.9707 70.166 -19.9707 Z M 31.9824 18.9453 L 49.8047 18.9453 C 50.6348 18.9453 51.1719 18.5059 51.1719 17.6758 C 51.1719 16.7969 50.6348 16.3574 49.8047 16.3574 L 32.1289 16.3574 C 23.1934 16.3574 18.6035 11.7676 18.6035 2.88086 L 18.6035 -14.8438 C 18.6035 -15.6738 18.1641 -16.1621 17.334 -16.1621 C 16.5039 -16.1621 16.0645 -15.6738 16.0645 -14.8438 L 16.0645 2.97852 C 16.0645 13.3789 21.582 18.9453 31.9824 18.9453 Z M 90.3809 18.9453 L 108.203 18.9453 C 118.604 18.9453 124.121 13.2324 124.121 2.97852 L 124.121 -14.8438 C 124.121 -15.6738 123.682 -16.1621 122.852 -16.1621 C 122.021 -16.1621 121.582 -15.6738 121.582 -14.8438 L 121.582 2.88086 C 121.582 11.7676 116.65 16.3574 108.057 16.3574 L 90.3809 16.3574 C 89.5508 16.3574 89.0625 16.7969 89.0625 17.6758 C 89.0625 18.5059 89.5508 18.9453 90.3809 18.9453 Z"/>
  </g>
  <g id="Black-M" transform="matrix(1 0 0 1 2872.83 1126)">
   <path d="M 99.5117 -43.1152 C 105.469 -43.1152 108.691 -46.3379 108.691 -52.2949 L 108.691 -63.7695 C 108.691 -76.0254 101.416 -83.3008 89.1602 -83.3008 L 77.6855 -83.3008 C 71.6797 -83.3008 68.457 -80.0781 68.457 -74.1699 C 68.457 -68.2617 71.7773 -65.0391 77.6855 -65.0391 L 86.2305 -65.0391 C 89.0625 -65.0391 90.3809 -63.916 90.3809 -60.8398 L 90.3809 -52.2949 C 90.3809 -46.3379 93.6035 -43.1152 99.5117 -43.1152 Z M 21.582 -43.1152 C 27.5391 -43.1152 30.7617 -46.3867 30.7617 -52.2949 L 30.7617 -60.8398 C 30.7617 -63.916 32.0801 -65.0391 34.9121 -65.0391 L 43.457 -65.0391 C 49.4141 -65.0391 52.6367 -68.2617 52.6367 -74.1699 C 52.6367 -80.0781 49.4141 -83.3008 43.457 -83.3008 L 31.9824 -83.3008 C 19.7266 -83.3008 12.4512 -76.0254 12.4512 -63.7695 L 12.4512 -52.2949 C 12.4512 -46.3379 15.6738 -43.1152 21.582 -43.1152 Z M 43.0176 -18.9453 L 78.1738 -18.9453 C 81.3965 -18.9453 83.1055 -20.6543 83.1055 -23.584 L 83.1055 -44.7266 C 83.1055 -47.6562 81.3965 -49.4141 78.1738 -49.4141 L 73.4863 -49.4141 C 71.8262 -49.4141 70.8984 -49.5117 69.9219 -50.4883 L 68.4082 -52.002 C 67.4805 -52.9297 66.6504 -53.3203 65.1855 -53.3203 L 55.957 -53.3203 C 54.4922 -53.3203 53.7109 -52.9297 52.7832 -52.002 L 51.2695 -50.4883 C 50.2441 -49.5117 49.3164 -49.4141 47.6562 -49.4141 L 43.0176 -49.4141 C 39.8438 -49.4141 38.0371 -47.6562 38.0371 -44.7266 L 38.0371 -23.584 C 38.0371 -20.6543 39.8438 -18.9453 43.0176 -18.9453 Z M 60.6445 -25.8301 C 55.2246 -25.8301 50.8789 -30.1758 50.8789 -35.5957 C 50.8789 -40.918 55.2246 -45.2148 60.6445 -45.2148 C 65.9668 -45.2148 70.2637 -40.918 70.2637 -35.5957 C 70.2637 -30.1758 65.9668 -25.8301 60.6445 -25.8301 Z M 60.5957 -31.0059 C 63.0859 -31.0059 65.1855 -33.0078 65.1855 -35.5957 C 65.1855 -38.0371 63.0859 -40.1367 60.5957 -40.1367 C 58.0566 -40.1367 55.957 -38.0371 55.957 -35.5957 C 55.957 -33.0078 58.0566 -31.0059 60.5957 -31.0059 Z M 31.9824 12.8906 L 43.457 12.8906 C 49.4141 12.8906 52.6367 9.7168 52.6367 3.75977 C 52.6367 -2.14844 49.3652 -5.37109 43.457 -5.37109 L 34.9121 -5.37109 C 32.0801 -5.37109 30.7617 -6.44531 30.7617 -9.52148 L 30.7617 -18.0664 C 30.7617 -24.0723 27.5391 -27.2949 21.582 -27.2949 C 15.6738 -27.2949 12.4512 -24.0723 12.4512 -18.0664 L 12.4512 -6.64062 C 12.4512 5.61523 19.7266 12.8906 31.9824 12.8906 Z M 77.6855 12.8906 L 89.1602 12.8906 C 101.416 12.8906 108.691 5.61523 108.691 -6.64062 L 108.691 -18.0664 C 108.691 -24.0723 105.469 -27.2949 99.5117 -27.2949 C 93.6035 -27.2949 90.3809 -24.0234 90.3809 -18.0664 L 90.3809 -9.52148 C 90.3809 -6.44531 89.0625 -5.37109 86.2305 -5.37109 L 77.6855 -5.37109 C 71.6797 -5.37109 68.457 -2.14844 68.457 3.75977 C 68.457 9.7168 71.6797 12.8906 77.6855 12.8906 Z"/>
  </g>
  <g id="Heavy-M" transform="matrix(1 0 0 1 2576.9 1126)">
   <path d="M 99.2188 -44.4824 C 104.346 -44.4824 107.129 -47.2656 107.129 -52.4414 L 107.129 -64.0137 C 107.129 -75.7812 100.342 -82.5195 88.5742 -82.5195 L 77.002 -82.5195 C 71.8262 -82.5195 69.043 -79.7363 69.043 -74.6094 C 69.043 -69.4824 71.875 -66.6992 77.002 -66.6992 L 86.3281 -66.6992 C 89.5996 -66.6992 91.3086 -65.2344 91.3086 -61.7188 L 91.3086 -52.4414 C 91.3086 -47.2656 94.0918 -44.4824 99.2188 -44.4824 Z M 20.3613 -44.4824 C 25.4883 -44.4824 28.2715 -47.3145 28.2715 -52.4414 L 28.2715 -61.7188 C 28.2715 -65.2344 29.9316 -66.6992 33.252 -66.6992 L 42.5781 -66.6992 C 47.7539 -66.6992 50.5371 -69.4824 50.5371 -74.6094 C 50.5371 -79.7363 47.7539 -82.5195 42.5781 -82.5195 L 31.0059 -82.5195 C 19.2383 -82.5195 12.4512 -75.7812 12.4512 -64.0137 L 12.4512 -52.4414 C 12.4512 -47.2656 15.2344 -44.4824 20.3613 -44.4824 Z M 41.3574 -18.1641 L 77.9785 -18.1641 C 81.2012 -18.1641 83.1055 -20.0195 83.1055 -22.998 L 83.1055 -44.9707 C 83.1055 -47.9492 81.2012 -49.8535 77.9785 -49.8535 L 72.6562 -49.8535 C 71.0938 -49.8535 70.2637 -49.9512 69.2383 -51.0254 L 67.8223 -52.4902 C 66.8457 -53.5156 65.918 -54.0039 64.4043 -54.0039 L 54.9805 -54.0039 C 53.418 -54.0039 52.4902 -53.5156 51.5137 -52.4902 L 50.0977 -51.0254 C 49.1211 -49.9512 48.2422 -49.8535 46.7285 -49.8535 L 41.3574 -49.8535 C 38.1836 -49.8535 36.2793 -47.9492 36.2793 -44.9707 L 36.2793 -22.998 C 36.2793 -20.0195 38.1836 -18.1641 41.3574 -18.1641 Z M 59.7168 -25.1465 C 54.0527 -25.1465 49.5117 -29.6875 49.5117 -35.3516 C 49.5117 -41.0156 54.0527 -45.5078 59.7168 -45.5078 C 65.332 -45.5078 69.873 -41.0156 69.873 -35.3516 C 69.873 -29.6875 65.332 -25.1465 59.7168 -25.1465 Z M 59.668 -29.8828 C 62.6953 -29.8828 65.1855 -32.3242 65.1855 -35.3516 C 65.1855 -38.3301 62.6953 -40.8203 59.668 -40.8203 C 56.6895 -40.8203 54.1992 -38.3301 54.1992 -35.3516 C 54.1992 -32.3242 56.6895 -29.8828 59.668 -29.8828 Z M 31.0059 12.1582 L 42.5781 12.1582 C 47.7539 12.1582 50.5371 9.32617 50.5371 4.24805 C 50.5371 -0.878906 47.7051 -3.71094 42.5781 -3.71094 L 33.252 -3.71094 C 29.9316 -3.71094 28.2715 -5.12695 28.2715 -8.69141 L 28.2715 -17.9199 C 28.2715 -23.0957 25.4883 -25.9277 20.3613 -25.9277 C 15.2344 -25.9277 12.4512 -23.0957 12.4512 -17.9199 L 12.4512 -6.34766 C 12.4512 5.37109 19.2383 12.1582 31.0059 12.1582 Z M 77.002 12.1582 L 88.5742 12.1582 C 100.342 12.1582 107.129 5.37109 107.129 -6.34766 L 107.129 -17.9199 C 107.129 -23.0957 104.346 -25.9277 99.2188 -25.9277 C 94.0918 -25.9277 91.3086 -23.0469 91.3086 -17.9199 L 91.3086 -8.69141 C 91.3086 -5.12695 89.5996 -3.71094 86.3281 -3.71094 L 77.002 -3.71094 C 71.8262 -3.71094 69.043 -0.878906 69.043 4.24805 C 69.043 9.32617 71.8262 12.1582 77.002 12.1582 Z"/>
  </g>
  <g id="Bold-M" transform="matrix(1 0 0 1 2281.07 1126)">
   <path d="M 98.8281 -46.0449 C 103.076 -46.0449 105.371 -48.3398 105.371 -52.6367 L 105.371 -64.3066 C 105.371 -75.4883 99.1699 -81.6406 87.9395 -81.6406 L 76.2695 -81.6406 C 71.9727 -81.6406 69.6289 -79.3457 69.6289 -75.0977 C 69.6289 -70.8984 72.0215 -68.6035 76.2695 -68.6035 L 86.4258 -68.6035 C 90.2344 -68.6035 92.2852 -66.748 92.2852 -62.6465 L 92.2852 -52.6367 C 92.2852 -48.3398 94.6289 -46.0449 98.8281 -46.0449 Z M 18.9941 -46.0449 C 23.2422 -46.0449 25.5371 -48.3887 25.5371 -52.6367 L 25.5371 -62.6465 C 25.5371 -66.748 27.5391 -68.6035 31.3965 -68.6035 L 41.6016 -68.6035 C 45.8496 -68.6035 48.1934 -70.8984 48.1934 -75.0977 C 48.1934 -79.3457 45.8496 -81.6406 41.6016 -81.6406 L 29.8828 -81.6406 C 18.6523 -81.6406 12.4512 -75.4883 12.4512 -64.3066 L 12.4512 -52.6367 C 12.4512 -48.3398 14.7461 -46.0449 18.9941 -46.0449 Z M 39.5508 -17.2852 L 77.7832 -17.2852 C 81.0059 -17.2852 83.0566 -19.2871 83.0566 -22.3145 L 83.0566 -45.2637 C 83.0566 -48.291 81.0059 -50.293 77.7832 -50.293 L 71.7285 -50.293 C 70.2637 -50.293 69.4824 -50.4883 68.5059 -51.6113 L 67.2363 -52.9785 C 66.2109 -54.1504 65.1367 -54.6875 63.5254 -54.6875 L 53.8086 -54.6875 C 52.1973 -54.6875 51.123 -54.1504 50.0977 -52.9785 L 48.8281 -51.6113 C 47.8027 -50.4883 47.0703 -50.293 45.6543 -50.293 L 39.5508 -50.293 C 36.3281 -50.293 34.3262 -48.291 34.3262 -45.2637 L 34.3262 -22.3145 C 34.3262 -19.2871 36.3281 -17.2852 39.5508 -17.2852 Z M 58.6914 -24.3164 C 52.7344 -24.3164 47.9492 -29.1504 47.9492 -35.1074 C 47.9492 -41.0645 52.7344 -45.8496 58.6914 -45.8496 C 64.6484 -45.8496 69.4336 -41.0645 69.4336 -35.1074 C 69.4336 -29.1504 64.6484 -24.3164 58.6914 -24.3164 Z M 58.6914 -28.6133 C 62.2559 -28.6133 65.1855 -31.4941 65.1855 -35.1074 C 65.1855 -38.6719 62.2559 -41.6016 58.6914 -41.6016 C 55.127 -41.6016 52.1973 -38.6719 52.1973 -35.1074 C 52.1973 -31.4941 55.127 -28.6133 58.6914 -28.6133 Z M 29.8828 11.2793 L 41.6016 11.2793 C 45.8496 11.2793 48.1934 8.93555 48.1934 4.73633 C 48.1934 0.488281 45.8496 -1.80664 41.6016 -1.80664 L 31.3965 -1.80664 C 27.5391 -1.80664 25.5371 -3.66211 25.5371 -7.71484 L 25.5371 -17.7734 C 25.5371 -22.0215 23.1934 -24.3652 18.9941 -24.3652 C 14.7461 -24.3652 12.4512 -22.0215 12.4512 -17.7734 L 12.4512 -6.05469 C 12.4512 5.12695 18.6523 11.2793 29.8828 11.2793 Z M 76.2695 11.2793 L 87.9395 11.2793 C 99.1699 11.2793 105.371 5.07812 105.371 -6.05469 L 105.371 -17.7734 C 105.371 -22.0215 103.076 -24.3652 98.8281 -24.3652 C 94.5801 -24.3652 92.2852 -22.0215 92.2852 -17.7734 L 92.2852 -7.71484 C 92.2852 -3.66211 90.2344 -1.80664 86.4258 -1.80664 L 76.2695 -1.80664 C 71.9727 -1.80664 69.6289 0.488281 69.6289 4.73633 C 69.6289 8.93555 71.9727 11.2793 76.2695 11.2793 Z"/>
  </g>
  <g id="Semibold-M" transform="matrix(1 0 0 1 1984.94 1126)">
   <path d="M 98.584 -47.0703 C 102.246 -47.0703 104.199 -49.0723 104.199 -52.7344 L 104.199 -64.502 C 104.199 -75.293 98.3887 -81.0547 87.5 -81.0547 L 75.7324 -81.0547 C 72.0703 -81.0547 70.0684 -79.0527 70.0684 -75.4883 C 70.0684 -71.875 72.0703 -69.873 75.7324 -69.873 L 86.5234 -69.873 C 90.6738 -69.873 93.0176 -67.7246 93.0176 -63.3301 L 93.0176 -52.7344 C 93.0176 -49.0723 94.9707 -47.0703 98.584 -47.0703 Z M 18.0176 -47.0703 C 21.6797 -47.0703 23.6328 -49.1211 23.6328 -52.7344 L 23.6328 -63.3301 C 23.6328 -67.7246 25.8789 -69.873 30.127 -69.873 L 40.918 -69.873 C 44.5801 -69.873 46.5332 -71.875 46.5332 -75.4883 C 46.5332 -79.0527 44.5801 -81.0547 40.918 -81.0547 L 29.1016 -81.0547 C 18.2617 -81.0547 12.4512 -75.293 12.4512 -64.502 L 12.4512 -52.7344 C 12.4512 -49.0723 14.4531 -47.0703 18.0176 -47.0703 Z M 38.2812 -16.6992 L 77.6367 -16.6992 C 80.8594 -16.6992 83.0078 -18.7988 83.0078 -21.8262 L 83.0078 -45.459 C 83.0078 -48.5352 80.8594 -50.6348 77.6367 -50.6348 L 71.0449 -50.6348 C 69.7266 -50.6348 68.9941 -50.8789 67.9688 -52.002 L 66.7969 -53.3691 C 65.7227 -54.6387 64.5508 -55.2246 62.9395 -55.2246 L 53.0273 -55.2246 C 51.3672 -55.2246 50.1953 -54.6387 49.1211 -53.3691 L 47.9004 -52.002 C 46.9238 -50.8789 46.2402 -50.6348 44.9219 -50.6348 L 38.2812 -50.6348 C 35.0586 -50.6348 32.959 -48.5352 32.959 -45.459 L 32.959 -21.8262 C 32.959 -18.7988 35.0586 -16.6992 38.2812 -16.6992 Z M 58.0078 -23.7793 C 51.8555 -23.7793 46.875 -28.7598 46.875 -34.9609 C 46.875 -41.1133 51.8555 -46.0938 58.0078 -46.0938 C 64.1602 -46.0938 69.1406 -41.1133 69.1406 -34.9609 C 69.1406 -28.7598 64.1602 -23.7793 58.0078 -23.7793 Z M 58.0078 -27.7832 C 61.9629 -27.7832 65.1855 -30.957 65.1855 -34.9609 C 65.1855 -38.916 61.9629 -42.1387 58.0078 -42.1387 C 54.0039 -42.1387 50.8301 -38.916 50.8301 -34.9609 C 50.8301 -30.957 54.0039 -27.7832 58.0078 -27.7832 Z M 29.1016 10.6934 L 40.918 10.6934 C 44.5801 10.6934 46.5332 8.69141 46.5332 5.07812 C 46.5332 1.46484 44.5312 -0.488281 40.918 -0.488281 L 30.127 -0.488281 C 25.8789 -0.488281 23.6328 -2.63672 23.6328 -7.08008 L 23.6328 -17.627 C 23.6328 -21.2891 21.6309 -23.291 18.0176 -23.291 C 14.4043 -23.291 12.4512 -21.2891 12.4512 -17.627 L 12.4512 -5.85938 C 12.4512 4.93164 18.2617 10.6934 29.1016 10.6934 Z M 75.7324 10.6934 L 87.5 10.6934 C 98.3887 10.6934 104.199 4.88281 104.199 -5.85938 L 104.199 -17.627 C 104.199 -21.2891 102.197 -23.291 98.584 -23.291 C 94.9707 -23.291 93.0176 -21.2891 93.0176 -17.627 L 93.0176 -7.08008 C 93.0176 -2.63672 90.6738 -0.488281 86.5234 -0.488281 L 75.7324 -0.488281 C 72.0703 -0.488281 70.0684 1.46484 70.0684 5.07812 C 70.0684 8.69141 72.0703 10.6934 75.7324 10.6934 Z"/>
  </g>
  <g id="Medium-M" transform="matrix(1 0 0 1 1688.69 1126)">
   <path d="M 98.3887 -47.9004 C 101.562 -47.9004 103.271 -49.6582 103.271 -52.832 L 103.271 -64.6973 C 103.271 -75.1465 97.8027 -80.6152 87.207 -80.6152 L 75.3418 -80.6152 C 72.168 -80.6152 70.4102 -78.8574 70.4102 -75.7324 C 70.4102 -72.6074 72.168 -70.8496 75.3418 -70.8496 L 86.5723 -70.8496 C 91.0156 -70.8496 93.5547 -68.5059 93.5547 -63.8184 L 93.5547 -52.832 C 93.5547 -49.6582 95.2637 -47.9004 98.3887 -47.9004 Z M 17.334 -47.9004 C 20.5078 -47.9004 22.168 -49.6582 22.168 -52.832 L 22.168 -63.8184 C 22.168 -68.5059 24.6582 -70.8496 29.1504 -70.8496 L 40.3809 -70.8496 C 43.5547 -70.8496 45.3125 -72.6074 45.3125 -75.7324 C 45.3125 -78.8574 43.5547 -80.6152 40.3809 -80.6152 L 28.5156 -80.6152 C 17.9688 -80.6152 12.4512 -75.1465 12.4512 -64.6973 L 12.4512 -52.832 C 12.4512 -49.6582 14.209 -47.9004 17.334 -47.9004 Z M 37.3047 -16.2109 L 77.5391 -16.2109 C 80.7129 -16.2109 83.0078 -18.4082 83.0078 -21.4844 L 83.0078 -45.6055 C 83.0078 -48.6816 80.7129 -50.8789 77.5391 -50.8789 L 70.5566 -50.8789 C 69.2871 -50.8789 68.6035 -51.123 67.5781 -52.3438 L 66.5039 -53.6621 C 65.3809 -54.9805 64.1602 -55.5664 62.5 -55.5664 L 52.4414 -55.5664 C 50.7324 -55.5664 49.4629 -54.9805 48.3398 -53.6621 L 47.2656 -52.3438 C 46.2402 -51.123 45.6055 -50.8789 44.3359 -50.8789 L 37.3047 -50.8789 C 34.1309 -50.8789 31.9336 -48.6816 31.9336 -45.6055 L 31.9336 -21.4844 C 31.9336 -18.4082 34.1309 -16.2109 37.3047 -16.2109 Z M 57.4707 -23.3887 C 51.1719 -23.3887 46.0938 -28.5156 46.0938 -34.8145 C 46.0938 -41.1621 51.1719 -46.2402 57.4707 -46.2402 C 63.8184 -46.2402 68.8965 -41.1621 68.8965 -34.8145 C 68.8965 -28.5156 63.8184 -23.3887 57.4707 -23.3887 Z M 57.4707 -27.0996 C 61.7188 -27.0996 65.1855 -30.5664 65.1855 -34.8145 C 65.1855 -39.1113 61.7188 -42.5293 57.4707 -42.5293 C 53.2227 -42.5293 49.8047 -39.1113 49.8047 -34.8145 C 49.8047 -30.5664 53.2227 -27.0996 57.4707 -27.0996 Z M 28.5156 10.2051 L 40.3809 10.2051 C 43.5547 10.2051 45.3125 8.49609 45.3125 5.37109 C 45.3125 2.19727 43.5547 0.488281 40.3809 0.488281 L 29.1504 0.488281 C 24.6582 0.488281 22.168 -1.85547 22.168 -6.5918 L 22.168 -17.5781 C 22.168 -20.752 20.459 -22.5098 17.334 -22.5098 C 14.1602 -22.5098 12.4512 -20.752 12.4512 -17.5781 L 12.4512 -5.71289 C 12.4512 4.78516 17.9688 10.2051 28.5156 10.2051 Z M 75.3418 10.2051 L 87.207 10.2051 C 97.8027 10.2051 103.271 4.73633 103.271 -5.71289 L 103.271 -17.5781 C 103.271 -20.752 101.514 -22.5098 98.3887 -22.5098 C 95.2148 -22.5098 93.5547 -20.7031 93.5547 -17.5781 L 93.5547 -6.5918 C 93.5547 -1.85547 91.0156 0.488281 86.5723 0.488281 L 75.3418 0.488281 C 72.168 0.488281 70.4102 2.19727 70.4102 5.37109 C 70.4102 8.49609 72.168 10.2051 75.3418 10.2051 Z"/>
  </g>
  <g id="Regular-M" transform="matrix(1 0 0 1 1392.57 1126)">
   <path d="M 98.1445 -48.9258 C 100.732 -48.9258 102.1 -50.3418 102.1 -52.9297 L 102.1 -64.8926 C 102.1 -74.9512 96.9727 -79.9805 86.7676 -79.9805 L 74.8047 -79.9805 C 72.2656 -79.9805 70.8496 -78.5645 70.8496 -76.0742 C 70.8496 -73.5352 72.2656 -72.1191 74.8047 -72.1191 L 86.6211 -72.1191 C 91.4551 -72.1191 94.2383 -69.5312 94.2383 -64.4531 L 94.2383 -52.9297 C 94.2383 -50.3418 95.6543 -48.9258 98.1445 -48.9258 Z M 16.3574 -48.9258 C 18.9453 -48.9258 20.3125 -50.3418 20.3125 -52.9297 L 20.3125 -64.4531 C 20.3125 -69.5312 22.998 -72.1191 27.8809 -72.1191 L 39.6973 -72.1191 C 42.2852 -72.1191 43.7012 -73.5352 43.7012 -76.0742 C 43.7012 -78.5645 42.2852 -79.9805 39.6973 -79.9805 L 27.7832 -79.9805 C 17.5781 -79.9805 12.4512 -74.9512 12.4512 -64.8926 L 12.4512 -52.9297 C 12.4512 -50.3418 13.8672 -48.9258 16.3574 -48.9258 Z M 36.084 -15.625 L 77.3926 -15.625 C 80.6152 -15.625 82.959 -17.8711 82.959 -20.9961 L 82.959 -45.8008 C 82.959 -48.9258 80.6152 -51.1719 77.3926 -51.1719 L 69.9219 -51.1719 C 68.7012 -51.1719 68.1152 -51.5137 67.0898 -52.7344 L 66.0645 -54.0039 C 64.9414 -55.4199 63.5742 -56.0547 61.9141 -56.0547 L 51.6602 -56.0547 C 49.9023 -56.0547 48.5352 -55.4199 47.4121 -54.0039 L 46.3867 -52.7344 C 45.3613 -51.5137 44.7754 -51.1719 43.6035 -51.1719 L 36.084 -51.1719 C 32.8613 -51.1719 30.6152 -48.9258 30.6152 -45.8008 L 30.6152 -20.9961 C 30.6152 -17.8711 32.8613 -15.625 36.084 -15.625 Z M 56.7871 -22.8027 C 50.2441 -22.8027 45.0195 -28.125 45.0195 -34.6191 C 45.0195 -41.2109 50.2441 -46.4844 56.7871 -46.4844 C 63.3301 -46.4844 68.6035 -41.2109 68.6035 -34.6191 C 68.6035 -28.125 63.3301 -22.8027 56.7871 -22.8027 Z M 56.7871 -26.2695 C 61.4258 -26.2695 65.1855 -29.9805 65.1855 -34.6191 C 65.1855 -39.3555 61.4258 -43.0664 56.7871 -43.0664 C 52.1484 -43.0664 48.4375 -39.3555 48.4375 -34.6191 C 48.4375 -29.9805 52.1484 -26.2695 56.7871 -26.2695 Z M 27.7832 9.61914 L 39.6973 9.61914 C 42.2852 9.61914 43.7012 8.20312 43.7012 5.71289 C 43.7012 3.17383 42.2852 1.75781 39.6973 1.75781 L 27.8809 1.75781 C 22.998 1.75781 20.3125 -0.830078 20.3125 -5.9082 L 20.3125 -17.4316 C 20.3125 -20.0195 18.8965 -21.4355 16.3574 -21.4355 C 13.8184 -21.4355 12.4512 -20.0195 12.4512 -17.4316 L 12.4512 -5.51758 C 12.4512 4.58984 17.5781 9.61914 27.7832 9.61914 Z M 74.8047 9.61914 L 86.7676 9.61914 C 96.9727 9.61914 102.1 4.54102 102.1 -5.51758 L 102.1 -17.4316 C 102.1 -20.0195 100.684 -21.4355 98.1445 -21.4355 C 95.6055 -21.4355 94.2383 -20.0195 94.2383 -17.4316 L 94.2383 -5.9082 C 94.2383 -0.830078 91.4551 1.75781 86.6211 1.75781 L 74.8047 1.75781 C 72.2656 1.75781 70.8496 3.17383 70.8496 5.71289 C 70.8496 8.20312 72.2656 9.61914 74.8047 9.61914 Z"/>
  </g>
  <g id="Light-M" transform="matrix(1 0 0 1 1096.79 1126)">
   <path d="M 97.2168 -49.2188 C 99.2188 -49.2188 100.244 -50.293 100.244 -52.2949 L 100.244 -64.7949 C 100.244 -74.2188 95.4102 -79.0527 85.8887 -79.0527 L 73.3398 -79.0527 C 71.3867 -79.0527 70.2637 -77.9785 70.2637 -76.0742 C 70.2637 -74.1211 71.3867 -73.0469 73.3398 -73.0469 L 85.7422 -73.0469 C 91.1133 -73.0469 94.2383 -70.1172 94.2383 -64.502 L 94.2383 -52.2949 C 94.2383 -50.293 95.3125 -49.2188 97.2168 -49.2188 Z M 15.4785 -49.2188 C 17.4316 -49.2188 18.5059 -50.293 18.5059 -52.2949 L 18.5059 -64.502 C 18.5059 -70.1172 21.4844 -73.0469 26.9531 -73.0469 L 39.3555 -73.0469 C 41.3574 -73.0469 42.4316 -74.1211 42.4316 -76.0742 C 42.4316 -77.9785 41.3574 -79.0527 39.3555 -79.0527 L 26.8555 -79.0527 C 17.334 -79.0527 12.4512 -74.2676 12.4512 -64.7949 L 12.4512 -52.2949 C 12.4512 -50.293 13.5254 -49.2188 15.4785 -49.2188 Z M 35.0098 -15.1367 L 77.002 -15.1367 C 80.3223 -15.1367 82.4219 -17.2363 82.4219 -20.459 L 82.4219 -46.0938 C 82.4219 -49.3164 80.3223 -51.3672 77.002 -51.3672 L 69.5801 -51.3672 C 68.2617 -51.3672 67.4805 -51.8066 66.4551 -53.0273 L 65.1855 -54.541 C 64.0137 -55.957 62.7441 -56.4941 61.084 -56.4941 L 50.9766 -56.4941 C 49.2188 -56.4941 47.998 -55.957 46.8262 -54.541 L 45.5566 -53.0273 C 44.5312 -51.8066 43.75 -51.3672 42.4805 -51.3672 L 35.0098 -51.3672 C 31.6895 -51.3672 29.6387 -49.3164 29.6387 -46.0938 L 29.6387 -20.459 C 29.6387 -17.2363 31.6895 -15.1367 35.0098 -15.1367 Z M 56.0547 -22.4609 C 49.4141 -22.4609 44.043 -27.8809 44.043 -34.4727 C 44.043 -41.1621 49.4141 -46.582 56.0547 -46.582 C 62.6953 -46.582 68.0664 -41.1621 68.0664 -34.4727 C 68.0664 -27.8809 62.6953 -22.4609 56.0547 -22.4609 Z M 56.0547 -25.3906 C 61.084 -25.3906 65.1855 -29.4434 65.1855 -34.4727 C 65.1855 -39.5996 61.084 -43.6523 56.0547 -43.6523 C 50.9766 -43.6523 46.9238 -39.5996 46.9238 -34.4727 C 46.9238 -29.4434 50.9766 -25.3906 56.0547 -25.3906 Z M 26.8555 8.74023 L 39.3555 8.74023 C 41.3574 8.74023 42.4316 7.66602 42.4316 5.71289 C 42.4316 3.75977 41.3574 2.68555 39.3555 2.68555 L 26.9531 2.68555 C 21.4844 2.68555 18.5059 -0.195312 18.5059 -5.85938 L 18.5059 -18.0664 C 18.5059 -20.0195 17.4316 -21.1426 15.4785 -21.1426 C 13.4766 -21.1426 12.4512 -20.0195 12.4512 -18.0664 L 12.4512 -5.51758 C 12.4512 3.90625 17.334 8.74023 26.8555 8.74023 Z M 73.3398 8.74023 L 85.8887 8.74023 C 95.4102 8.74023 100.244 3.85742 100.244 -5.51758 L 100.244 -18.0664 C 100.244 -20.0195 99.1699 -21.1426 97.2168 -21.1426 C 95.2637 -21.1426 94.2383 -20.0195 94.2383 -18.0664 L 94.2383 -5.85938 C 94.2383 -0.195312 91.1133 2.68555 85.7422 2.68555 L 73.3398 2.68555 C 71.3867 2.68555 70.2637 3.75977 70.2637 5.71289 C 70.2637 7.66602 71.3867 8.74023 73.3398 8.74023 Z"/>
  </g>
  <g id="Thin-M" transform="matrix(1 0 0 1 801.271 1126)">
   <path d="M 96.0449 -49.5605 C 97.2168 -49.5605 97.8516 -50.2441 97.8516 -51.416 L 97.8516 -64.6973 C 97.8516 -73.2422 93.3105 -77.832 84.668 -77.832 L 71.3867 -77.832 C 70.2148 -77.832 69.5312 -77.1973 69.5312 -76.0254 C 69.5312 -74.8535 70.2148 -74.2188 71.3867 -74.2188 L 84.5703 -74.2188 C 90.6738 -74.2188 94.2383 -70.8984 94.2383 -64.5508 L 94.2383 -51.416 C 94.2383 -50.2441 94.873 -49.5605 96.0449 -49.5605 Z M 14.2578 -49.5605 C 15.4297 -49.5605 16.0645 -50.2441 16.0645 -51.416 L 16.0645 -64.5508 C 16.0645 -70.8984 19.3848 -74.2188 25.7324 -74.2188 L 38.916 -74.2188 C 40.0879 -74.2188 40.7715 -74.8535 40.7715 -76.0254 C 40.7715 -77.1973 40.0879 -77.832 38.916 -77.832 L 25.6348 -77.832 C 16.9922 -77.832 12.4512 -73.3398 12.4512 -64.6973 L 12.4512 -51.416 C 12.4512 -50.2441 13.0859 -49.5605 14.2578 -49.5605 Z M 33.5938 -14.5508 L 76.4648 -14.5508 C 79.9316 -14.5508 81.7871 -16.3574 81.7871 -19.7754 L 81.7871 -46.4355 C 81.7871 -49.8535 79.9316 -51.6602 76.4648 -51.6602 L 69.1406 -51.6602 C 67.627 -51.6602 66.6504 -52.1484 65.625 -53.3691 L 64.0137 -55.2246 C 62.793 -56.6406 61.6699 -57.1289 60.0098 -57.1289 L 50.0977 -57.1289 C 48.3887 -57.1289 47.2656 -56.6406 46.0938 -55.2246 L 44.4336 -53.3691 C 43.457 -52.1484 42.4316 -51.6602 40.9668 -51.6602 L 33.5938 -51.6602 C 30.127 -51.6602 28.3203 -49.8535 28.3203 -46.4355 L 28.3203 -19.7754 C 28.3203 -16.3574 30.127 -14.5508 33.5938 -14.5508 Z M 55.0293 -22.0215 C 48.2422 -22.0215 42.7734 -27.4902 42.7734 -34.2773 C 42.7734 -41.1621 48.2422 -46.6797 55.0293 -46.6797 C 61.8164 -46.6797 67.334 -41.1621 67.334 -34.2773 C 67.334 -27.4902 61.8164 -22.0215 55.0293 -22.0215 Z M 55.0293 -24.2188 C 60.6445 -24.2188 65.1855 -28.7109 65.1855 -34.2773 C 65.1855 -39.9414 60.6445 -44.4824 55.0293 -44.4824 C 49.4629 -44.4824 44.9219 -39.9414 44.9219 -34.2773 C 44.9219 -28.7109 49.4629 -24.2188 55.0293 -24.2188 Z M 25.6348 7.56836 L 38.916 7.56836 C 40.0879 7.56836 40.7715 6.93359 40.7715 5.76172 C 40.7715 4.58984 40.0879 3.90625 38.916 3.90625 L 25.7324 3.90625 C 19.3848 3.90625 16.0645 0.634766 16.0645 -5.76172 L 16.0645 -18.8477 C 16.0645 -20.0195 15.4297 -20.752 14.2578 -20.752 C 13.0859 -20.752 12.4512 -20.0195 12.4512 -18.8477 L 12.4512 -5.56641 C 12.4512 3.02734 16.9922 7.56836 25.6348 7.56836 Z M 71.3867 7.56836 L 84.668 7.56836 C 93.3105 7.56836 97.8516 2.92969 97.8516 -5.56641 L 97.8516 -18.8477 C 97.8516 -20.0195 97.2168 -20.752 96.0449 -20.752 C 94.873 -20.752 94.2383 -20.0195 94.2383 -18.8477 L 94.2383 -5.76172 C 94.2383 0.634766 90.6738 3.90625 84.5703 3.90625 L 71.3867 3.90625 C 70.2148 3.90625 69.5312 4.58984 69.5312 5.76172 C 69.5312 6.93359 70.2148 7.56836 71.3867 7.56836 Z"/>
  </g>
  <g id="Ultralight-M" transform="matrix(1 0 0 1 505.17 1126)">
   <path d="M 95.4102 -49.7559 C 96.1914 -49.7559 96.6309 -50.1953 96.6309 -50.9766 L 96.6309 -64.6973 C 96.6309 -72.7539 92.2852 -77.1973 84.082 -77.1973 L 70.4102 -77.1973 C 69.6289 -77.1973 69.1406 -76.8066 69.1406 -76.0254 C 69.1406 -75.2441 69.6289 -74.8047 70.4102 -74.8047 L 83.9355 -74.8047 C 90.4785 -74.8047 94.2383 -71.3379 94.2383 -64.5508 L 94.2383 -50.9766 C 94.2383 -50.1953 94.6289 -49.7559 95.4102 -49.7559 Z M 13.623 -49.7559 C 14.4043 -49.7559 14.8438 -50.1953 14.8438 -50.9766 L 14.8438 -64.5508 C 14.8438 -71.3379 18.3594 -74.8047 25.0977 -74.8047 L 38.6719 -74.8047 C 39.4531 -74.8047 39.9414 -75.2441 39.9414 -76.0254 C 39.9414 -76.8066 39.4531 -77.1973 38.6719 -77.1973 L 25 -77.1973 C 16.7969 -77.1973 12.4512 -72.8516 12.4512 -64.6973 L 12.4512 -50.9766 C 12.4512 -50.1953 12.8906 -49.7559 13.623 -49.7559 Z M 32.9102 -14.209 L 76.1719 -14.209 C 79.7363 -14.209 81.3965 -15.918 81.3965 -19.3848 L 81.3965 -46.6309 C 81.3965 -50.0977 79.7363 -51.8066 76.1719 -51.8066 L 68.8965 -51.8066 C 67.334 -51.8066 66.2109 -52.3438 65.1855 -53.5156 L 63.3789 -55.6152 C 62.207 -56.9824 61.1328 -57.4219 59.4727 -57.4219 L 49.6094 -57.4219 C 47.9492 -57.4219 46.875 -56.9824 45.7031 -55.6152 L 43.8965 -53.5156 C 42.8711 -52.3438 41.748 -51.8066 40.1855 -51.8066 L 32.9102 -51.8066 C 29.3457 -51.8066 27.6855 -50.0977 27.6855 -46.6309 L 27.6855 -19.3848 C 27.6855 -15.918 29.3457 -14.209 32.9102 -14.209 Z M 54.541 -21.7773 C 47.6562 -21.7773 42.1387 -27.3438 42.1387 -34.1797 C 42.1387 -41.1133 47.6562 -46.7285 54.541 -46.7285 C 61.4258 -46.7285 66.9434 -41.1133 66.9434 -34.1797 C 66.9434 -27.3438 61.4258 -21.7773 54.541 -21.7773 Z M 54.541 -23.6328 C 60.4004 -23.6328 65.1855 -28.3203 65.1855 -34.1797 C 65.1855 -40.1367 60.4004 -44.873 54.541 -44.873 C 48.6816 -44.873 43.8965 -40.1367 43.8965 -34.1797 C 43.8965 -28.3203 48.6816 -23.6328 54.541 -23.6328 Z M 25 6.93359 L 38.6719 6.93359 C 39.4531 6.93359 39.9414 6.54297 39.9414 5.76172 C 39.9414 4.98047 39.4531 4.54102 38.6719 4.54102 L 25.0977 4.54102 C 18.3594 4.54102 14.8438 1.02539 14.8438 -5.71289 L 14.8438 -19.2871 C 14.8438 -20.0684 14.4043 -20.5566 13.623 -20.5566 C 12.8906 -20.5566 12.4512 -20.0684 12.4512 -19.2871 L 12.4512 -5.61523 C 12.4512 2.58789 16.7969 6.93359 25 6.93359 Z M 70.4102 6.93359 L 84.082 6.93359 C 92.2852 6.93359 96.6309 2.49023 96.6309 -5.61523 L 96.6309 -19.2871 C 96.6309 -20.0684 96.1914 -20.5566 95.4102 -20.5566 C 94.6289 -20.5566 94.2383 -20.0684 94.2383 -19.2871 L 94.2383 -5.71289 C 94.2383 1.02539 90.4785 4.54102 83.9355 4.54102 L 70.4102 4.54102 C 69.6289 4.54102 69.1406 4.98047 69.1406 5.76172 C 69.1406 6.54297 69.6289 6.93359 70.4102 6.93359 Z"/>
  </g>
  <g id="Black-S" transform="matrix(1 0 0 1 2885.99 696)">
   <path d="M 77.9785 -41.5039 C 82.5684 -41.5039 85.0586 -43.9941 85.0586 -48.6328 L 85.0586 -57.6172 C 85.0586 -67.1875 79.3945 -72.8516 69.8242 -72.8516 L 60.8398 -72.8516 C 56.2012 -72.8516 53.7109 -70.3613 53.7109 -65.7715 C 53.7109 -61.1816 56.25 -58.6914 60.8398 -58.6914 L 67.5781 -58.6914 C 69.8242 -58.6914 70.8984 -57.8125 70.8984 -55.3711 L 70.8984 -48.6328 C 70.8984 -43.9941 73.3887 -41.5039 77.9785 -41.5039 Z M 16.8457 -41.5039 C 21.4355 -41.5039 23.9258 -44.043 23.9258 -48.6328 L 23.9258 -55.3711 C 23.9258 -57.8125 25 -58.6914 27.2461 -58.6914 L 33.9844 -58.6914 C 38.623 -58.6914 41.1133 -61.1816 41.1133 -65.7715 C 41.1133 -70.3613 38.623 -72.8516 33.9844 -72.8516 L 25 -72.8516 C 15.4297 -72.8516 9.76562 -67.1875 9.76562 -57.6172 L 9.76562 -48.6328 C 9.76562 -43.9941 12.2559 -41.5039 16.8457 -41.5039 Z M 33.5938 -22.4121 L 61.2305 -22.4121 C 63.7695 -22.4121 65.1367 -23.7793 65.1367 -26.0742 L 65.1367 -42.6758 C 65.1367 -44.9707 63.7695 -46.3867 61.2305 -46.3867 L 57.5195 -46.3867 C 56.25 -46.3867 55.5176 -46.4355 54.7363 -47.2168 L 53.5645 -48.3887 C 52.832 -49.1211 52.1973 -49.4629 51.0254 -49.4629 L 43.7988 -49.4629 C 42.627 -49.4629 41.9922 -49.1211 41.2598 -48.3887 L 40.0879 -47.2168 C 39.3066 -46.4355 38.5742 -46.3867 37.3047 -46.3867 L 33.5938 -46.3867 C 31.1035 -46.3867 29.6875 -44.9707 29.6875 -42.6758 L 29.6875 -26.0742 C 29.6875 -23.7793 31.1035 -22.4121 33.5938 -22.4121 Z M 47.4609 -27.832 C 43.2129 -27.832 39.7949 -31.25 39.7949 -35.498 C 39.7949 -39.6973 43.2129 -43.0664 47.4609 -43.0664 C 51.6602 -43.0664 55.0293 -39.6973 55.0293 -35.498 C 55.0293 -31.25 51.6602 -27.832 47.4609 -27.832 Z M 47.4121 -31.8359 C 49.4141 -31.8359 51.0742 -33.4473 51.0742 -35.498 C 51.0742 -37.4512 49.4141 -39.1113 47.4121 -39.1113 C 45.4102 -39.1113 43.75 -37.4512 43.75 -35.498 C 43.75 -33.4473 45.4102 -31.8359 47.4121 -31.8359 Z M 25 2.44141 L 33.9844 2.44141 C 38.623 2.44141 41.1133 -0.0488281 41.1133 -4.63867 C 41.1133 -9.22852 38.5742 -11.7188 33.9844 -11.7188 L 27.2461 -11.7188 C 25 -11.7188 23.9258 -12.5977 23.9258 -15.0391 L 23.9258 -21.7773 C 23.9258 -26.416 21.4355 -28.9062 16.8457 -28.9062 C 12.2559 -28.9062 9.76562 -26.416 9.76562 -21.7773 L 9.76562 -12.793 C 9.76562 -3.22266 15.4297 2.44141 25 2.44141 Z M 60.8398 2.44141 L 69.8242 2.44141 C 79.3945 2.44141 85.0586 -3.22266 85.0586 -12.793 L 85.0586 -21.7773 C 85.0586 -26.416 82.5684 -28.9062 77.9785 -28.9062 C 73.3887 -28.9062 70.8984 -26.3672 70.8984 -21.7773 L 70.8984 -15.0391 C 70.8984 -12.5977 69.8242 -11.7188 67.5781 -11.7188 L 60.8398 -11.7188 C 56.2012 -11.7188 53.7109 -9.22852 53.7109 -4.63867 C 53.7109 -0.0488281 56.2012 2.44141 60.8398 2.44141 Z"/>
  </g>
  <g id="Heavy-S" transform="matrix(1 0 0 1 2589.77 696)">
   <path d="M 77.832 -42.5293 C 81.8848 -42.5293 84.082 -44.7266 84.082 -48.8281 L 84.082 -57.8125 C 84.082 -67.0898 78.7598 -72.3633 69.4824 -72.3633 L 60.498 -72.3633 C 56.3965 -72.3633 54.1992 -70.166 54.1992 -66.1133 C 54.1992 -62.0605 56.4453 -59.8633 60.498 -59.8633 L 67.7734 -59.8633 C 70.3125 -59.8633 71.582 -58.7402 71.582 -56.0059 L 71.582 -48.8281 C 71.582 -44.7266 73.7793 -42.5293 77.832 -42.5293 Z M 16.0156 -42.5293 C 20.0684 -42.5293 22.2656 -44.7754 22.2656 -48.8281 L 22.2656 -56.0059 C 22.2656 -58.7402 23.5352 -59.8633 26.0742 -59.8633 L 33.3496 -59.8633 C 37.4512 -59.8633 39.6484 -62.0605 39.6484 -66.1133 C 39.6484 -70.166 37.4512 -72.3633 33.3496 -72.3633 L 24.3652 -72.3633 C 15.0879 -72.3633 9.76562 -67.0898 9.76562 -57.8125 L 9.76562 -48.8281 C 9.76562 -44.7266 11.9629 -42.5293 16.0156 -42.5293 Z M 32.4707 -21.875 L 61.1328 -21.875 C 63.6719 -21.875 65.1855 -23.3398 65.1855 -25.6836 L 65.1855 -42.8711 C 65.1855 -45.166 63.6719 -46.6797 61.1328 -46.6797 L 56.9336 -46.6797 C 55.7617 -46.6797 55.0781 -46.7773 54.2969 -47.6074 L 53.2227 -48.6816 C 52.4902 -49.5117 51.709 -49.9023 50.5371 -49.9023 L 43.1152 -49.9023 C 41.8457 -49.9023 41.1133 -49.5117 40.332 -48.6816 L 39.3066 -47.6074 C 38.5254 -46.7773 37.8906 -46.6797 36.7188 -46.6797 L 32.4707 -46.6797 C 29.9805 -46.6797 28.4668 -45.166 28.4668 -42.8711 L 28.4668 -25.6836 C 28.4668 -23.3398 29.9805 -21.875 32.4707 -21.875 Z M 46.8262 -27.3438 C 42.4316 -27.3438 38.8184 -30.9082 38.8184 -35.3516 C 38.8184 -39.7461 42.4316 -43.3105 46.8262 -43.3105 C 51.2695 -43.3105 54.7852 -39.7461 54.7852 -35.3516 C 54.7852 -30.9082 51.2695 -27.3438 46.8262 -27.3438 Z M 46.8262 -31.0547 C 49.1699 -31.0547 51.0742 -32.959 51.0742 -35.3516 C 51.0742 -37.6465 49.1699 -39.5508 46.8262 -39.5508 C 44.4824 -39.5508 42.5781 -37.6465 42.5781 -35.3516 C 42.5781 -32.959 44.4824 -31.0547 46.8262 -31.0547 Z M 24.3652 1.95312 L 33.3496 1.95312 C 37.4512 1.95312 39.6484 -0.244141 39.6484 -4.29688 C 39.6484 -8.34961 37.4023 -10.5469 33.3496 -10.5469 L 26.0742 -10.5469 C 23.5352 -10.5469 22.2656 -11.6699 22.2656 -14.4043 L 22.2656 -21.582 C 22.2656 -25.6836 20.0684 -27.8809 16.0156 -27.8809 C 11.9629 -27.8809 9.76562 -25.6836 9.76562 -21.582 L 9.76562 -12.5977 C 9.76562 -3.32031 15.0879 1.95312 24.3652 1.95312 Z M 60.498 1.95312 L 69.4824 1.95312 C 78.7598 1.95312 84.082 -3.32031 84.082 -12.5977 L 84.082 -21.582 C 84.082 -25.6836 81.8848 -27.8809 77.832 -27.8809 C 73.7793 -27.8809 71.582 -25.6348 71.582 -21.582 L 71.582 -14.4043 C 71.582 -11.6699 70.3125 -10.5469 67.7734 -10.5469 L 60.498 -10.5469 C 56.3965 -10.5469 54.1992 -8.34961 54.1992 -4.29688 C 54.1992 -0.244141 56.3965 1.95312 60.498 1.95312 Z"/>
  </g>
  <g id="Bold-S" transform="matrix(1 0 0 1 2293.62 696)">
   <path d="M 77.6855 -43.6523 C 81.1035 -43.6523 82.959 -45.5566 82.959 -49.0234 L 82.959 -58.0566 C 82.959 -66.9434 78.0762 -71.8262 69.1406 -71.8262 L 60.1074 -71.8262 C 56.6406 -71.8262 54.7363 -69.9219 54.7363 -66.5039 C 54.7363 -63.0859 56.6406 -61.1816 60.1074 -61.1816 L 67.9688 -61.1816 C 70.8008 -61.1816 72.3633 -59.8145 72.3633 -56.7383 L 72.3633 -49.0234 C 72.3633 -45.5566 74.2188 -43.6523 77.6855 -43.6523 Z M 15.0879 -43.6523 C 18.5059 -43.6523 20.3613 -45.5566 20.3613 -49.0234 L 20.3613 -56.7383 C 20.3613 -59.8145 21.9238 -61.1816 24.8047 -61.1816 L 32.6172 -61.1816 C 36.1328 -61.1816 37.9883 -63.0859 37.9883 -66.5039 C 37.9883 -69.9219 36.1328 -71.8262 32.6172 -71.8262 L 23.6328 -71.8262 C 14.6973 -71.8262 9.76562 -66.9434 9.76562 -58.0566 L 9.76562 -49.0234 C 9.76562 -45.5566 11.6211 -43.6523 15.0879 -43.6523 Z M 31.2012 -21.2402 L 61.0352 -21.2402 C 63.5254 -21.2402 65.1855 -22.8516 65.1855 -25.1953 L 65.1855 -43.0176 C 65.1855 -45.3613 63.5254 -47.0215 61.0352 -47.0215 L 56.25 -47.0215 C 55.1758 -47.0215 54.5898 -47.1191 53.8086 -47.998 L 52.8809 -49.0234 C 52.0996 -49.9512 51.2207 -50.3906 49.9512 -50.3906 L 42.2852 -50.3906 C 41.0156 -50.3906 40.1367 -49.9512 39.3555 -49.0234 L 38.4277 -47.998 C 37.6465 -47.1191 37.0605 -47.0215 36.0352 -47.0215 L 31.2012 -47.0215 C 28.7109 -47.0215 27.0508 -45.3613 27.0508 -43.0176 L 27.0508 -25.1953 C 27.0508 -22.8516 28.7109 -21.2402 31.2012 -21.2402 Z M 46.1426 -26.7578 C 41.5039 -26.7578 37.7441 -30.5176 37.7441 -35.1562 C 37.7441 -39.7949 41.5039 -43.5547 46.1426 -43.5547 C 50.7812 -43.5547 54.541 -39.7949 54.541 -35.1562 C 54.541 -30.5176 50.7812 -26.7578 46.1426 -26.7578 Z M 46.1426 -30.2246 C 48.8281 -30.2246 51.0742 -32.4219 51.0742 -35.1562 C 51.0742 -37.8906 48.8281 -40.0879 46.1426 -40.0879 C 43.4082 -40.0879 41.2109 -37.8906 41.2109 -35.1562 C 41.2109 -32.4219 43.4082 -30.2246 46.1426 -30.2246 Z M 23.6328 1.41602 L 32.6172 1.41602 C 36.1328 1.41602 37.9883 -0.488281 37.9883 -3.90625 C 37.9883 -7.32422 36.084 -9.22852 32.6172 -9.22852 L 24.8047 -9.22852 C 21.9238 -9.22852 20.3613 -10.5957 20.3613 -13.6719 L 20.3613 -21.3867 C 20.3613 -24.8535 18.5059 -26.7578 15.0879 -26.7578 C 11.6211 -26.7578 9.76562 -24.8535 9.76562 -21.3867 L 9.76562 -12.3535 C 9.76562 -3.4668 14.6973 1.41602 23.6328 1.41602 Z M 60.1074 1.41602 L 69.1406 1.41602 C 78.0762 1.41602 82.959 -3.4668 82.959 -12.3535 L 82.959 -21.3867 C 82.959 -24.8535 81.1035 -26.7578 77.6855 -26.7578 C 74.2188 -26.7578 72.3633 -24.8535 72.3633 -21.3867 L 72.3633 -13.6719 C 72.3633 -10.5957 70.8008 -9.22852 67.9688 -9.22852 L 60.1074 -9.22852 C 56.6406 -9.22852 54.7363 -7.32422 54.7363 -3.90625 C 54.7363 -0.488281 56.6406 1.41602 60.1074 1.41602 Z"/>
  </g>
  <g id="Semibold-S" transform="matrix(1 0 0 1 1997.3 696)">
   <path d="M 77.5391 -44.4824 C 80.5664 -44.4824 82.1777 -46.1426 82.1777 -49.1699 L 82.1777 -58.2031 C 82.1777 -66.8457 77.5879 -71.4355 68.8477 -71.4355 L 59.8145 -71.4355 C 56.7871 -71.4355 55.127 -69.7754 55.127 -66.748 C 55.127 -63.7695 56.7871 -62.1094 59.8145 -62.1094 L 68.0664 -62.1094 C 71.1914 -62.1094 72.9004 -60.5469 72.9004 -57.2266 L 72.9004 -49.1699 C 72.9004 -46.1426 74.5605 -44.4824 77.5391 -44.4824 Z M 14.4043 -44.4824 C 17.4316 -44.4824 19.0918 -46.1426 19.0918 -49.1699 L 19.0918 -57.2266 C 19.0918 -60.5469 20.752 -62.1094 23.877 -62.1094 L 32.1289 -62.1094 C 35.2051 -62.1094 36.8652 -63.7695 36.8652 -66.748 C 36.8652 -69.7754 35.2051 -71.4355 32.1289 -71.4355 L 23.0957 -71.4355 C 14.4043 -71.4355 9.76562 -66.8457 9.76562 -58.2031 L 9.76562 -49.1699 C 9.76562 -46.1426 11.4258 -44.4824 14.4043 -44.4824 Z M 30.3223 -20.8496 L 60.9375 -20.8496 C 63.4277 -20.8496 65.2344 -22.5586 65.2344 -24.9023 L 65.2344 -43.1641 C 65.2344 -45.5078 63.4277 -47.2168 60.9375 -47.2168 L 55.7617 -47.2168 C 54.7852 -47.2168 54.248 -47.4121 53.4668 -48.291 L 52.6367 -49.2676 C 51.8066 -50.293 50.8301 -50.7324 49.5605 -50.7324 L 41.748 -50.7324 C 40.4297 -50.7324 39.4531 -50.293 38.623 -49.2676 L 37.793 -48.291 C 37.0117 -47.4121 36.5234 -47.2168 35.5469 -47.2168 L 30.3223 -47.2168 C 27.832 -47.2168 26.123 -45.5078 26.123 -43.1641 L 26.123 -24.9023 C 26.123 -22.5586 27.832 -20.8496 30.3223 -20.8496 Z M 45.7031 -26.3672 C 40.8691 -26.3672 37.0117 -30.2734 37.0117 -35.0586 C 37.0117 -39.8438 40.8691 -43.7012 45.7031 -43.7012 C 50.4883 -43.7012 54.3457 -39.8438 54.3457 -35.0586 C 54.3457 -30.2734 50.4883 -26.3672 45.7031 -26.3672 Z M 45.6543 -29.6387 C 48.6328 -29.6387 51.0742 -32.0312 51.0742 -35.0586 C 51.0742 -38.0371 48.6328 -40.4297 45.6543 -40.4297 C 42.6758 -40.4297 40.2832 -38.0371 40.2832 -35.0586 C 40.2832 -32.0312 42.6758 -29.6387 45.6543 -29.6387 Z M 23.0957 1.02539 L 32.1289 1.02539 C 35.2051 1.02539 36.8652 -0.634766 36.8652 -3.66211 C 36.8652 -6.64062 35.1562 -8.30078 32.1289 -8.30078 L 23.877 -8.30078 C 20.752 -8.30078 19.0918 -9.86328 19.0918 -13.1836 L 19.0918 -21.2402 C 19.0918 -24.2676 17.4316 -25.9277 14.4043 -25.9277 C 11.377 -25.9277 9.76562 -24.2676 9.76562 -21.2402 L 9.76562 -12.207 C 9.76562 -3.56445 14.4043 1.02539 23.0957 1.02539 Z M 59.8145 1.02539 L 68.8477 1.02539 C 77.5879 1.02539 82.1777 -3.56445 82.1777 -12.207 L 82.1777 -21.2402 C 82.1777 -24.2676 80.5664 -25.9277 77.5391 -25.9277 C 74.5117 -25.9277 72.9004 -24.2676 72.9004 -21.2402 L 72.9004 -13.1836 C 72.9004 -9.86328 71.1914 -8.30078 68.0664 -8.30078 L 59.8145 -8.30078 C 56.7871 -8.30078 55.127 -6.64062 55.127 -3.66211 C 55.127 -0.634766 56.7871 1.02539 59.8145 1.02539 Z"/>
  </g>
  <g id="Medium-S" transform="matrix(1 0 0 1 1700.85 696)">
   <path d="M 77.4414 -45.0684 C 80.1758 -45.0684 81.6406 -46.5332 81.6406 -49.2676 L 81.6406 -58.3496 C 81.6406 -66.7969 77.2461 -71.1426 68.6523 -71.1426 L 59.6191 -71.1426 C 56.8848 -71.1426 55.4199 -69.6289 55.4199 -66.9922 C 55.4199 -64.3066 56.8848 -62.793 59.6191 -62.793 L 68.1641 -62.793 C 71.4844 -62.793 73.291 -61.084 73.291 -57.6172 L 73.291 -49.2676 C 73.291 -46.5332 74.8047 -45.0684 77.4414 -45.0684 Z M 13.916 -45.0684 C 16.6504 -45.0684 18.0664 -46.582 18.0664 -49.2676 L 18.0664 -57.6172 C 18.0664 -61.084 19.9219 -62.793 23.1934 -62.793 L 31.7871 -62.793 C 34.5215 -62.793 35.9863 -64.3066 35.9863 -66.9922 C 35.9863 -69.6289 34.5215 -71.1426 31.7871 -71.1426 L 22.7051 -71.1426 C 14.209 -71.1426 9.76562 -66.7969 9.76562 -58.3496 L 9.76562 -49.2676 C 9.76562 -46.5332 11.2305 -45.0684 13.916 -45.0684 Z M 29.6387 -20.5078 L 60.8887 -20.5078 C 63.3789 -20.5078 65.2344 -22.3145 65.2344 -24.6582 L 65.2344 -43.2617 C 65.2344 -45.6055 63.3789 -47.4121 60.8887 -47.4121 L 55.4199 -47.4121 C 54.4922 -47.4121 54.0039 -47.6074 53.2227 -48.5352 L 52.4414 -49.4629 C 51.6113 -50.4883 50.5859 -51.0254 49.2676 -51.0254 L 41.3574 -51.0254 C 39.9902 -51.0254 38.9648 -50.4883 38.0859 -49.4629 L 37.3535 -48.5352 C 36.5723 -47.6074 36.1328 -47.4121 35.2051 -47.4121 L 29.6387 -47.4121 C 27.1973 -47.4121 25.3906 -45.6055 25.3906 -43.2617 L 25.3906 -24.6582 C 25.3906 -22.3145 27.1973 -20.5078 29.6387 -20.5078 Z M 45.3125 -26.0742 C 40.4297 -26.0742 36.4746 -30.0781 36.4746 -34.9609 C 36.4746 -39.8926 40.4297 -43.8477 45.3125 -43.8477 C 50.2441 -43.8477 54.1992 -39.8926 54.1992 -34.9609 C 54.1992 -30.0781 50.2441 -26.0742 45.3125 -26.0742 Z M 45.3125 -29.1992 C 48.4863 -29.1992 51.0742 -31.7871 51.0742 -34.9609 C 51.0742 -38.1836 48.4863 -40.7227 45.3125 -40.7227 C 42.1387 -40.7227 39.5996 -38.1836 39.5996 -34.9609 C 39.5996 -31.7871 42.1387 -29.1992 45.3125 -29.1992 Z M 22.7051 0.732422 L 31.7871 0.732422 C 34.5215 0.732422 35.9863 -0.78125 35.9863 -3.41797 C 35.9863 -6.10352 34.4727 -7.61719 31.7871 -7.61719 L 23.1934 -7.61719 C 19.9219 -7.61719 18.0664 -9.32617 18.0664 -12.793 L 18.0664 -21.1426 C 18.0664 -23.877 16.6016 -25.3418 13.916 -25.3418 C 11.2305 -25.3418 9.76562 -23.877 9.76562 -21.1426 L 9.76562 -12.0605 C 9.76562 -3.61328 14.209 0.732422 22.7051 0.732422 Z M 59.6191 0.732422 L 68.6523 0.732422 C 77.2461 0.732422 81.6406 -3.61328 81.6406 -12.0605 L 81.6406 -21.1426 C 81.6406 -23.877 80.127 -25.3418 77.4414 -25.3418 C 74.7559 -25.3418 73.291 -23.8281 73.291 -21.1426 L 73.291 -12.793 C 73.291 -9.32617 71.4844 -7.61719 68.1641 -7.61719 L 59.6191 -7.61719 C 56.8848 -7.61719 55.4199 -6.10352 55.4199 -3.41797 C 55.4199 -0.78125 56.8848 0.732422 59.6191 0.732422 Z"/>
  </g>
  <g id="Regular-S" transform="matrix(1 0 0 1 1404.53 696)">
   <path d="M 77.3438 -45.8496 C 79.6387 -45.8496 80.8594 -47.1191 80.8594 -49.4141 L 80.8594 -58.4961 C 80.8594 -66.6992 76.7578 -70.752 68.4082 -70.752 L 59.3262 -70.752 C 57.0312 -70.752 55.7617 -69.4824 55.7617 -67.2363 C 55.7617 -64.9902 57.0312 -63.7207 59.3262 -63.7207 L 68.3105 -63.7207 C 71.8262 -63.7207 73.8281 -61.8164 73.8281 -58.1055 L 73.8281 -49.4141 C 73.8281 -47.1191 75.0977 -45.8496 77.3438 -45.8496 Z M 13.2812 -45.8496 C 15.5762 -45.8496 16.7969 -47.1191 16.7969 -49.4141 L 16.7969 -58.1055 C 16.7969 -61.8164 18.7988 -63.7207 22.3145 -63.7207 L 31.2988 -63.7207 C 33.5938 -63.7207 34.8633 -64.9902 34.8633 -67.2363 C 34.8633 -69.4824 33.5938 -70.752 31.2988 -70.752 L 22.2168 -70.752 C 13.916 -70.752 9.76562 -66.6992 9.76562 -58.4961 L 9.76562 -49.4141 C 9.76562 -47.1191 11.0352 -45.8496 13.2812 -45.8496 Z M 28.8086 -20.1172 L 60.8398 -20.1172 C 63.2812 -20.1172 65.2344 -21.9727 65.2344 -24.3164 L 65.2344 -43.4082 C 65.2344 -45.752 63.2812 -47.6562 60.8398 -47.6562 L 54.9805 -47.6562 C 54.1016 -47.6562 53.6621 -47.8516 52.8809 -48.8281 L 52.1973 -49.707 C 51.3184 -50.8301 50.1953 -51.3184 48.877 -51.3184 L 40.8203 -51.3184 C 39.4043 -51.3184 38.2812 -50.8301 37.4023 -49.707 L 36.7188 -48.8281 C 35.9375 -47.8516 35.5957 -47.6562 34.7168 -47.6562 L 28.8086 -47.6562 C 26.3184 -47.6562 24.4629 -45.752 24.4629 -43.4082 L 24.4629 -24.3164 C 24.4629 -21.9727 26.3184 -20.1172 28.8086 -20.1172 Z M 44.873 -25.6836 C 39.7949 -25.6836 35.7422 -29.7852 35.7422 -34.8633 C 35.7422 -39.9414 39.7949 -43.9941 44.873 -43.9941 C 49.9512 -43.9941 54.0039 -39.9414 54.0039 -34.8633 C 54.0039 -29.7852 49.9512 -25.6836 44.873 -25.6836 Z M 44.873 -28.6133 C 48.291 -28.6133 51.0742 -31.3965 51.0742 -34.8633 C 51.0742 -38.3301 48.291 -41.0645 44.873 -41.0645 C 41.4062 -41.0645 38.6719 -38.3301 38.6719 -34.8633 C 38.6719 -31.3965 41.4062 -28.6133 44.873 -28.6133 Z M 22.2168 0.341797 L 31.2988 0.341797 C 33.5938 0.341797 34.8633 -0.927734 34.8633 -3.17383 C 34.8633 -5.41992 33.5938 -6.68945 31.2988 -6.68945 L 22.3145 -6.68945 C 18.7988 -6.68945 16.7969 -8.59375 16.7969 -12.3047 L 16.7969 -20.9961 C 16.7969 -23.291 15.5273 -24.5605 13.2812 -24.5605 C 10.9863 -24.5605 9.76562 -23.291 9.76562 -20.9961 L 9.76562 -11.9141 C 9.76562 -3.71094 13.916 0.341797 22.2168 0.341797 Z M 59.3262 0.341797 L 68.4082 0.341797 C 76.7578 0.341797 80.8594 -3.71094 80.8594 -11.9141 L 80.8594 -20.9961 C 80.8594 -23.291 79.5898 -24.5605 77.3438 -24.5605 C 75.0488 -24.5605 73.8281 -23.291 73.8281 -20.9961 L 73.8281 -12.3047 C 73.8281 -8.59375 71.8262 -6.68945 68.3105 -6.68945 L 59.3262 -6.68945 C 57.0312 -6.68945 55.7617 -5.41992 55.7617 -3.17383 C 55.7617 -0.927734 57.0312 0.341797 59.3262 0.341797 Z"/>
  </g>
  <g id="Light-S" transform="matrix(1 0 0 1 1108.63 696)">
   <path d="M 76.5625 -46.0938 C 78.3203 -46.0938 79.248 -47.0703 79.248 -48.8281 L 79.248 -58.4473 C 79.248 -66.0156 75.3418 -69.9219 67.627 -69.9219 L 58.0566 -69.9219 C 56.25 -69.9219 55.2734 -68.9453 55.2734 -67.2363 C 55.2734 -65.4785 56.25 -64.502 58.0566 -64.502 L 67.5293 -64.502 C 71.5332 -64.502 73.8281 -62.3535 73.8281 -58.1543 L 73.8281 -48.8281 C 73.8281 -47.0703 74.8047 -46.0938 76.5625 -46.0938 Z M 12.5 -46.0938 C 14.2578 -46.0938 15.1855 -47.0703 15.1855 -48.8281 L 15.1855 -58.1543 C 15.1855 -62.3535 17.4316 -64.502 21.4844 -64.502 L 31.0059 -64.502 C 32.7637 -64.502 33.7402 -65.4785 33.7402 -67.2363 C 33.7402 -68.9453 32.7637 -69.9219 31.0059 -69.9219 L 21.3867 -69.9219 C 13.6719 -69.9219 9.76562 -66.0645 9.76562 -58.4473 L 9.76562 -48.8281 C 9.76562 -47.0703 10.7422 -46.0938 12.5 -46.0938 Z M 27.832 -19.6777 L 60.498 -19.6777 C 63.0371 -19.6777 64.7949 -21.3867 64.7949 -23.877 L 64.7949 -43.6523 C 64.7949 -46.0938 63.0371 -47.8027 60.498 -47.8027 L 54.6875 -47.8027 C 53.6621 -47.8027 53.125 -48.0957 52.3438 -49.0723 L 51.416 -50.1465 C 50.5371 -51.2695 49.5117 -51.7578 48.1934 -51.7578 L 40.2344 -51.7578 C 38.8184 -51.7578 37.793 -51.2695 36.9141 -50.1465 L 35.9863 -49.0723 C 35.2051 -48.0957 34.668 -47.8027 33.7402 -47.8027 L 27.832 -47.8027 C 25.293 -47.8027 23.584 -46.0938 23.584 -43.6523 L 23.584 -23.877 C 23.584 -21.3867 25.293 -19.6777 27.832 -19.6777 Z M 44.1895 -25.3906 C 39.0625 -25.3906 34.9121 -29.541 34.9121 -34.7168 C 34.9121 -39.8926 39.0625 -44.0918 44.1895 -44.0918 C 49.3652 -44.0918 53.5156 -39.8926 53.5156 -34.7168 C 53.5156 -29.541 49.3652 -25.3906 44.1895 -25.3906 Z M 44.1895 -27.832 C 47.998 -27.832 51.0742 -30.9082 51.0742 -34.7168 C 51.0742 -38.5742 47.998 -41.6016 44.1895 -41.6016 C 40.3809 -41.6016 37.3535 -38.5742 37.3535 -34.7168 C 37.3535 -30.9082 40.3809 -27.832 44.1895 -27.832 Z M 21.3867 -0.439453 L 31.0059 -0.439453 C 32.7637 -0.439453 33.7402 -1.41602 33.7402 -3.17383 C 33.7402 -4.88281 32.7637 -5.85938 31.0059 -5.85938 L 21.4844 -5.85938 C 17.4316 -5.85938 15.1855 -8.05664 15.1855 -12.2559 L 15.1855 -21.5332 C 15.1855 -23.291 14.209 -24.3164 12.5 -24.3164 C 10.6934 -24.3164 9.76562 -23.291 9.76562 -21.5332 L 9.76562 -11.9629 C 9.76562 -4.29688 13.6719 -0.439453 21.3867 -0.439453 Z M 58.0566 -0.439453 L 67.627 -0.439453 C 75.3418 -0.439453 79.248 -4.3457 79.248 -11.9629 L 79.248 -21.5332 C 79.248 -23.291 78.2715 -24.3164 76.5625 -24.3164 C 74.7559 -24.3164 73.8281 -23.291 73.8281 -21.5332 L 73.8281 -12.2559 C 73.8281 -8.05664 71.5332 -5.85938 67.5293 -5.85938 L 58.0566 -5.85938 C 56.25 -5.85938 55.2734 -4.88281 55.2734 -3.17383 C 55.2734 -1.41602 56.25 -0.439453 58.0566 -0.439453 Z"/>
  </g>
  <g id="Thin-S" transform="matrix(1 0 0 1 812.965 696)">
   <path d="M 75.4883 -46.3867 C 76.5625 -46.3867 77.1484 -47.0215 77.1484 -48.0957 L 77.1484 -58.3496 C 77.1484 -65.1855 73.5352 -68.8477 66.6016 -68.8477 L 56.2988 -68.8477 C 55.2246 -68.8477 54.6387 -68.2617 54.6387 -67.1875 C 54.6387 -66.1133 55.2246 -65.5273 56.2988 -65.5273 L 66.5039 -65.5273 C 71.1426 -65.5273 73.8281 -63.0371 73.8281 -58.1543 L 73.8281 -48.0957 C 73.8281 -47.0215 74.4141 -46.3867 75.4883 -46.3867 Z M 11.4258 -46.3867 C 12.5 -46.3867 13.0859 -47.0215 13.0859 -48.0957 L 13.0859 -58.1543 C 13.0859 -63.0371 15.625 -65.5273 20.4102 -65.5273 L 30.5664 -65.5273 C 31.6406 -65.5273 32.2754 -66.1133 32.2754 -67.1875 C 32.2754 -68.2617 31.6406 -68.8477 30.5664 -68.8477 L 20.3125 -68.8477 C 13.3789 -68.8477 9.76562 -65.2832 9.76562 -58.3496 L 9.76562 -48.0957 C 9.76562 -47.0215 10.3516 -46.3867 11.4258 -46.3867 Z M 26.6113 -19.1406 L 60.0098 -19.1406 C 62.6953 -19.1406 64.209 -20.6055 64.209 -23.2422 L 64.209 -43.9453 C 64.209 -46.582 62.6953 -48.0469 60.0098 -48.0469 L 54.248 -48.0469 C 53.125 -48.0469 52.3926 -48.4375 51.6113 -49.3652 L 50.3906 -50.7812 C 49.4629 -51.8555 48.5352 -52.2461 47.2168 -52.2461 L 39.4043 -52.2461 C 38.0859 -52.2461 37.1582 -51.8555 36.2793 -50.7812 L 35.0586 -49.3652 C 34.2773 -48.4375 33.4961 -48.0469 32.373 -48.0469 L 26.6113 -48.0469 C 23.9258 -48.0469 22.4609 -46.582 22.4609 -43.9453 L 22.4609 -23.2422 C 22.4609 -20.6055 23.9258 -19.1406 26.6113 -19.1406 Z M 43.3105 -24.9512 C 38.0371 -24.9512 33.7891 -29.248 33.7891 -34.5215 C 33.7891 -39.8926 38.0371 -44.1895 43.3105 -44.1895 C 48.6328 -44.1895 52.8809 -39.8926 52.8809 -34.5215 C 52.8809 -29.248 48.6328 -24.9512 43.3105 -24.9512 Z M 43.3105 -26.8066 C 47.6074 -26.8066 51.0742 -30.2734 51.0742 -34.5215 C 51.0742 -38.8672 47.6074 -42.334 43.3105 -42.334 C 39.0625 -42.334 35.5957 -38.8672 35.5957 -34.5215 C 35.5957 -30.2734 39.0625 -26.8066 43.3105 -26.8066 Z M 20.3125 -1.46484 L 30.5664 -1.46484 C 31.6406 -1.46484 32.2754 -2.05078 32.2754 -3.125 C 32.2754 -4.19922 31.6406 -4.78516 30.5664 -4.78516 L 20.4102 -4.78516 C 15.625 -4.78516 13.0859 -7.32422 13.0859 -12.1582 L 13.0859 -22.2656 C 13.0859 -23.3398 12.5 -23.9746 11.4258 -23.9746 C 10.3516 -23.9746 9.76562 -23.3398 9.76562 -22.2656 L 9.76562 -11.9629 C 9.76562 -5.07812 13.3789 -1.46484 20.3125 -1.46484 Z M 56.2988 -1.46484 L 66.6016 -1.46484 C 73.5352 -1.46484 77.1484 -5.12695 77.1484 -11.9629 L 77.1484 -22.2656 C 77.1484 -23.3398 76.5625 -23.9746 75.4883 -23.9746 C 74.4141 -23.9746 73.8281 -23.3398 73.8281 -22.2656 L 73.8281 -12.1582 C 73.8281 -7.32422 71.1426 -4.78516 66.5039 -4.78516 L 56.2988 -4.78516 C 55.2246 -4.78516 54.6387 -4.19922 54.6387 -3.125 C 54.6387 -2.05078 55.2246 -1.46484 56.2988 -1.46484 Z"/>
  </g>
  <g id="Ultralight-S" transform="matrix(1 0 0 1 516.816 696)">
   <path d="M 74.9512 -46.5332 C 75.6348 -46.5332 76.0254 -46.9727 76.0254 -47.7051 L 76.0254 -58.3008 C 76.0254 -64.7461 72.5586 -68.3105 66.0645 -68.3105 L 55.4199 -68.3105 C 54.6875 -68.3105 54.2969 -67.9199 54.2969 -67.1875 C 54.2969 -66.4551 54.6875 -66.0645 55.4199 -66.0645 L 65.9668 -66.0645 C 70.9473 -66.0645 73.8281 -63.3789 73.8281 -58.2031 L 73.8281 -47.7051 C 73.8281 -46.9727 74.2188 -46.5332 74.9512 -46.5332 Z M 10.8887 -46.5332 C 11.5723 -46.5332 11.9629 -46.9727 11.9629 -47.7051 L 11.9629 -58.2031 C 11.9629 -63.3789 14.6484 -66.0645 19.873 -66.0645 L 30.3711 -66.0645 C 31.1035 -66.0645 31.543 -66.4551 31.543 -67.1875 C 31.543 -67.9199 31.1035 -68.3105 30.3711 -68.3105 L 19.7754 -68.3105 C 13.2324 -68.3105 9.76562 -64.8438 9.76562 -58.3008 L 9.76562 -47.7051 C 9.76562 -46.9727 10.1562 -46.5332 10.8887 -46.5332 Z M 25.9766 -18.8477 L 59.7656 -18.8477 C 62.5488 -18.8477 63.8672 -20.2148 63.8672 -22.9004 L 63.8672 -44.0918 C 63.8672 -46.8262 62.5488 -48.1445 59.7656 -48.1445 L 54.0527 -48.1445 C 52.832 -48.1445 52.002 -48.584 51.2207 -49.5117 L 49.8535 -51.123 C 48.9258 -52.1973 48.0469 -52.5391 46.7285 -52.5391 L 39.0137 -52.5391 C 37.6953 -52.5391 36.8652 -52.1973 35.9375 -51.123 L 34.5215 -49.5117 C 33.7402 -48.584 32.9102 -48.1445 31.6895 -48.1445 L 25.9766 -48.1445 C 23.1934 -48.1445 21.875 -46.8262 21.875 -44.0918 L 21.875 -22.9004 C 21.875 -20.2148 23.1934 -18.8477 25.9766 -18.8477 Z M 42.8711 -24.7559 C 37.5 -24.7559 33.2031 -29.1016 33.2031 -34.4238 C 33.2031 -39.8438 37.5 -44.2383 42.8711 -44.2383 C 48.2422 -44.2383 52.5879 -39.8438 52.5879 -34.4238 C 52.5879 -29.1016 48.2422 -24.7559 42.8711 -24.7559 Z M 42.8711 -26.2695 C 47.4121 -26.2695 51.0742 -29.9316 51.0742 -34.4238 C 51.0742 -39.0137 47.4121 -42.6758 42.8711 -42.6758 C 38.3301 -42.6758 34.668 -39.0137 34.668 -34.4238 C 34.668 -29.9316 38.3301 -26.2695 42.8711 -26.2695 Z M 19.7754 -2.00195 L 30.3711 -2.00195 C 31.1035 -2.00195 31.543 -2.39258 31.543 -3.125 C 31.543 -3.85742 31.1035 -4.24805 30.3711 -4.24805 L 19.873 -4.24805 C 14.6484 -4.24805 11.9629 -6.93359 11.9629 -12.1094 L 11.9629 -22.6074 C 11.9629 -23.3398 11.5723 -23.7793 10.8887 -23.7793 C 10.1562 -23.7793 9.76562 -23.3398 9.76562 -22.6074 L 9.76562 -12.0117 C 9.76562 -5.46875 13.2324 -2.00195 19.7754 -2.00195 Z M 55.4199 -2.00195 L 66.0645 -2.00195 C 72.5586 -2.00195 76.0254 -5.56641 76.0254 -12.0117 L 76.0254 -22.6074 C 76.0254 -23.3398 75.6348 -23.7793 74.9512 -23.7793 C 74.2188 -23.7793 73.8281 -23.3398 73.8281 -22.6074 L 73.8281 -12.1094 C 73.8281 -6.93359 70.9473 -4.24805 65.9668 -4.24805 L 55.4199 -4.24805 C 54.6875 -4.24805 54.2969 -3.85742 54.2969 -3.125 C 54.2969 -2.39258 54.6875 -2.00195 55.4199 -2.00195 Z"/>
  </g>
 </g>
</svg>
