<?xml version="1.0" encoding="UTF-8"?>
<!--Generator: Apple Native CoreSVG 123-->
<!DOCTYPE svg
PUBLIC "-//W3C//DTD SVG 1.1//EN"
       "http://www.w3.org/Graphics/SVG/1.1/DTD/svg11.dtd">
<svg version="1.1" xmlns="http://www.w3.org/2000/svg" xmlns:xlink="http://www.w3.org/1999/xlink" width="3300" height="2200">
 <!--glyph: "uni10062E.medium", point size: 100.000000, font version: "Version 15.0d7e11", template writer version: "5"-->
 <g id="Notes">
  <rect height="2200" id="artboard" style="fill:white;opacity:1" width="3300" x="0" y="0"/>
  <line id="" style="fill:none;stroke:black;opacity:1;stroke-width:0.5;" x1="263" x2="3036" y1="292" y2="292"/>
  <text style="stroke:none;fill:black;font-family:-apple-system,&quot;SF Pro Display&quot;,&quot;SF Pro Text&quot;,Helvetica,sans-serif;font-weight:bold;" transform="matrix(1 0 0 1 263 322)">Weight/Scale Variations</text>
  <text style="stroke:none;fill:black;font-family:-apple-system,&quot;SF Pro Display&quot;,&quot;SF Pro Text&quot;,Helvetica,sans-serif;text-anchor:middle;" transform="matrix(1 0 0 1 559.711 322)">Ultralight</text>
  <text style="stroke:none;fill:black;font-family:-apple-system,&quot;SF Pro Display&quot;,&quot;SF Pro Text&quot;,Helvetica,sans-serif;text-anchor:middle;" transform="matrix(1 0 0 1 856.422 322)">Thin</text>
  <text style="stroke:none;fill:black;font-family:-apple-system,&quot;SF Pro Display&quot;,&quot;SF Pro Text&quot;,Helvetica,sans-serif;text-anchor:middle;" transform="matrix(1 0 0 1 1153.13 322)">Light</text>
  <text style="stroke:none;fill:black;font-family:-apple-system,&quot;SF Pro Display&quot;,&quot;SF Pro Text&quot;,Helvetica,sans-serif;text-anchor:middle;" transform="matrix(1 0 0 1 1449.84 322)">Regular</text>
  <text style="stroke:none;fill:black;font-family:-apple-system,&quot;SF Pro Display&quot;,&quot;SF Pro Text&quot;,Helvetica,sans-serif;text-anchor:middle;" transform="matrix(1 0 0 1 1746.56 322)">Medium</text>
  <text style="stroke:none;fill:black;font-family:-apple-system,&quot;SF Pro Display&quot;,&quot;SF Pro Text&quot;,Helvetica,sans-serif;text-anchor:middle;" transform="matrix(1 0 0 1 2043.27 322)">Semibold</text>
  <text style="stroke:none;fill:black;font-family:-apple-system,&quot;SF Pro Display&quot;,&quot;SF Pro Text&quot;,Helvetica,sans-serif;text-anchor:middle;" transform="matrix(1 0 0 1 2339.98 322)">Bold</text>
  <text style="stroke:none;fill:black;font-family:-apple-system,&quot;SF Pro Display&quot;,&quot;SF Pro Text&quot;,Helvetica,sans-serif;text-anchor:middle;" transform="matrix(1 0 0 1 2636.69 322)">Heavy</text>
  <text style="stroke:none;fill:black;font-family:-apple-system,&quot;SF Pro Display&quot;,&quot;SF Pro Text&quot;,Helvetica,sans-serif;text-anchor:middle;" transform="matrix(1 0 0 1 2933.4 322)">Black</text>
  <line id="" style="fill:none;stroke:black;opacity:1;stroke-width:0.5;" x1="263" x2="3036" y1="1903" y2="1903"/>
  <g id="" transform="matrix(1 0 0 1 263 1933)">
   <path d="M 9.24805 0.830078 C 13.5547 0.830078 17.1387 -2.74414 17.1387 -7.05078 C 17.1387 -11.3574 13.5449 -14.9316 9.23828 -14.9316 C 4.94141 -14.9316 1.36719 -11.3574 1.36719 -7.05078 C 1.36719 -2.74414 4.95117 0.830078 9.24805 0.830078 Z M 9.24805 -0.654297 C 5.70312 -0.654297 2.87109 -3.49609 2.87109 -7.05078 C 2.87109 -10.6055 5.69336 -13.4473 9.23828 -13.4473 C 12.793 -13.4473 15.6348 -10.6055 15.6445 -7.05078 C 15.6543 -3.49609 12.8027 -0.654297 9.24805 -0.654297 Z M 9.22852 -3.42773 C 9.69727 -3.42773 9.9707 -3.74023 9.9707 -4.25781 L 9.9707 -6.31836 L 12.1973 -6.31836 C 12.6953 -6.31836 13.0371 -6.57227 13.0371 -7.04102 C 13.0371 -7.51953 12.7148 -7.7832 12.1973 -7.7832 L 9.9707 -7.7832 L 9.9707 -10.0098 C 9.9707 -10.5273 9.69727 -10.8496 9.22852 -10.8496 C 8.75977 -10.8496 8.50586 -10.5078 8.50586 -10.0098 L 8.50586 -7.7832 L 6.29883 -7.7832 C 5.78125 -7.7832 5.44922 -7.51953 5.44922 -7.04102 C 5.44922 -6.57227 5.80078 -6.31836 6.29883 -6.31836 L 8.50586 -6.31836 L 8.50586 -4.25781 C 8.50586 -3.75977 8.75977 -3.42773 9.22852 -3.42773 Z"/>
  </g>
  <g id="" transform="matrix(1 0 0 1 281.506 1933)">
   <path d="M 11.709 2.91016 C 17.1582 2.91016 21.6699 -1.60156 21.6699 -7.05078 C 21.6699 -12.4902 17.1484 -17.0117 11.6992 -17.0117 C 6.25977 -17.0117 1.74805 -12.4902 1.74805 -7.05078 C 1.74805 -1.60156 6.26953 2.91016 11.709 2.91016 Z M 11.709 1.25 C 7.09961 1.25 3.41797 -2.44141 3.41797 -7.05078 C 3.41797 -11.6504 7.08984 -15.3516 11.6992 -15.3516 C 16.3086 -15.3516 20 -11.6504 20.0098 -7.05078 C 20.0195 -2.44141 16.3184 1.25 11.709 1.25 Z M 11.6895 -2.41211 C 12.207 -2.41211 12.5195 -2.77344 12.5195 -3.33984 L 12.5195 -6.23047 L 15.5762 -6.23047 C 16.123 -6.23047 16.5039 -6.51367 16.5039 -7.03125 C 16.5039 -7.55859 16.1426 -7.86133 15.5762 -7.86133 L 12.5195 -7.86133 L 12.5195 -10.9277 C 12.5195 -11.5039 12.207 -11.8555 11.6895 -11.8555 C 11.1719 -11.8555 10.8789 -11.4844 10.8789 -10.9277 L 10.8789 -7.86133 L 7.83203 -7.86133 C 7.26562 -7.86133 6.89453 -7.55859 6.89453 -7.03125 C 6.89453 -6.51367 7.28516 -6.23047 7.83203 -6.23047 L 10.8789 -6.23047 L 10.8789 -3.33984 C 10.8789 -2.79297 11.1719 -2.41211 11.6895 -2.41211 Z"/>
  </g>
  <g id="" transform="matrix(1 0 0 1 304.924 1933)">
   <path d="M 14.9707 5.67383 C 21.9336 5.67383 27.6953 -0.078125 27.6953 -7.04102 C 27.6953 -14.0039 21.9238 -19.7559 14.9609 -19.7559 C 8.00781 -19.7559 2.25586 -14.0039 2.25586 -7.04102 C 2.25586 -0.078125 8.01758 5.67383 14.9707 5.67383 Z M 14.9707 3.85742 C 8.93555 3.85742 4.08203 -1.00586 4.08203 -7.04102 C 4.08203 -13.0762 8.92578 -17.9395 14.9609 -17.9395 C 21.0059 -17.9395 25.8594 -13.0762 25.8691 -7.04102 C 25.8789 -1.00586 21.0156 3.85742 14.9707 3.85742 Z M 14.9512 -1.06445 C 15.5176 -1.06445 15.8691 -1.45508 15.8691 -2.06055 L 15.8691 -6.13281 L 20.1074 -6.13281 C 20.6934 -6.13281 21.1133 -6.46484 21.1133 -7.02148 C 21.1133 -7.59766 20.7227 -7.93945 20.1074 -7.93945 L 15.8691 -7.93945 L 15.8691 -12.1875 C 15.8691 -12.8027 15.5176 -13.1934 14.9512 -13.1934 C 14.3848 -13.1934 14.0625 -12.7832 14.0625 -12.1875 L 14.0625 -7.93945 L 9.83398 -7.93945 C 9.21875 -7.93945 8.80859 -7.59766 8.80859 -7.02148 C 8.80859 -6.46484 9.23828 -6.13281 9.83398 -6.13281 L 14.0625 -6.13281 L 14.0625 -2.06055 C 14.0625 -1.47461 14.3848 -1.06445 14.9512 -1.06445 Z"/>
  </g>
  <text style="stroke:none;fill:black;font-family:-apple-system,&quot;SF Pro Display&quot;,&quot;SF Pro Text&quot;,Helvetica,sans-serif;font-weight:bold;" transform="matrix(1 0 0 1 263 1953)">Design Variations</text>
  <text style="stroke:none;fill:black;font-family:-apple-system,&quot;SF Pro Display&quot;,&quot;SF Pro Text&quot;,Helvetica,sans-serif;" transform="matrix(1 0 0 1 263 1971)">Symbols are supported in up to nine weights and three scales.</text>
  <text style="stroke:none;fill:black;font-family:-apple-system,&quot;SF Pro Display&quot;,&quot;SF Pro Text&quot;,Helvetica,sans-serif;" transform="matrix(1 0 0 1 263 1989)">For optimal layout with text and other symbols, vertically align</text>
  <text style="stroke:none;fill:black;font-family:-apple-system,&quot;SF Pro Display&quot;,&quot;SF Pro Text&quot;,Helvetica,sans-serif;" transform="matrix(1 0 0 1 263 2007)">symbols with the adjacent text.</text>
  <rect height="14" id="" style="fill:#00AEEF;stroke:none;opacity:0.4;" width="3" x="776" y="1919"/>
  <g id="" transform="matrix(1 0 0 1 779 1933)">
   <path d="M 10.5273 0 L 12.373 0 L 7.17773 -14.0918 L 5.43945 -14.0918 L 0.244141 0 L 2.08984 0 L 3.50586 -4.0332 L 9.11133 -4.0332 Z M 6.2793 -11.9531 L 6.33789 -11.9531 L 8.59375 -5.52734 L 4.02344 -5.52734 Z"/>
  </g>
  <rect height="14" id="" style="fill:#00AEEF;stroke:none;opacity:0.4;" width="3" x="791.617" y="1919"/>
  <text style="stroke:none;fill:black;font-family:-apple-system,&quot;SF Pro Display&quot;,&quot;SF Pro Text&quot;,Helvetica,sans-serif;font-weight:bold;" transform="matrix(1 0 0 1 776 1953)">Margins</text>
  <text style="stroke:none;fill:black;font-family:-apple-system,&quot;SF Pro Display&quot;,&quot;SF Pro Text&quot;,Helvetica,sans-serif;" transform="matrix(1 0 0 1 776 1971)">Leading and trailing margins on the left and right side of each symbol</text>
  <text style="stroke:none;fill:black;font-family:-apple-system,&quot;SF Pro Display&quot;,&quot;SF Pro Text&quot;,Helvetica,sans-serif;" transform="matrix(1 0 0 1 776 1989)">can be adjusted by modifying the width of the blue rectangles.</text>
  <text style="stroke:none;fill:black;font-family:-apple-system,&quot;SF Pro Display&quot;,&quot;SF Pro Text&quot;,Helvetica,sans-serif;" transform="matrix(1 0 0 1 776 2007)">Modifications are automatically applied proportionally to all</text>
  <text style="stroke:none;fill:black;font-family:-apple-system,&quot;SF Pro Display&quot;,&quot;SF Pro Text&quot;,Helvetica,sans-serif;" transform="matrix(1 0 0 1 776 2025)">scales and weights.</text>
  <g id="" transform="matrix(1 0 0 1 1289 1933)">
   <path d="M 2.83203 3.11523 L 4.375 4.6582 C 5.22461 5.48828 6.19141 5.41992 7.06055 4.46289 L 17.2754 -6.66016 C 17.7051 -6.36719 18.0957 -6.37695 18.5645 -6.47461 L 19.6094 -6.68945 L 20.3027 -5.99609 L 20.2539 -5.47852 C 20.1855 -4.95117 20.3516 -4.53125 20.8496 -4.0332 L 21.6602 -3.22266 C 22.168 -2.71484 22.8223 -2.68555 23.3008 -3.16406 L 26.5527 -6.41602 C 27.0312 -6.89453 27.0117 -7.54883 26.5039 -8.05664 L 25.6836 -8.87695 C 25.1855 -9.375 24.7754 -9.55078 24.2383 -9.47266 L 23.7109 -9.41406 L 23.0566 -10.0781 L 23.3398 -11.2207 C 23.4863 -11.7871 23.3398 -12.2559 22.7148 -12.8613 L 20.3027 -15.2539 C 16.7578 -18.7793 12.2266 -18.6719 9.11133 -15.5371 C 8.69141 -15.1074 8.64258 -14.5215 8.91602 -14.0918 C 9.15039 -13.7207 9.62891 -13.4961 10.2734 -13.6621 C 11.7871 -14.043 13.3008 -13.9258 14.7852 -12.9199 L 14.1602 -11.3379 C 13.9258 -10.752 13.9453 -10.2734 14.1797 -9.83398 L 3.01758 0.439453 C 2.08008 1.30859 1.97266 2.25586 2.83203 3.11523 Z M 10.6738 -15.1465 C 13.3398 -17.1387 16.6504 -16.8262 19.0527 -14.4141 L 21.6797 -11.8066 C 21.9141 -11.5723 21.9434 -11.3867 21.8848 -11.0938 L 21.5039 -9.53125 L 23.0762 -7.95898 L 24.043 -8.04688 C 24.3262 -8.07617 24.4141 -8.05664 24.6387 -7.83203 L 25.2637 -7.20703 L 22.5098 -4.46289 L 21.8848 -5.07812 C 21.6602 -5.30273 21.6406 -5.40039 21.6699 -5.68359 L 21.7578 -6.64062 L 20.1953 -8.20312 L 18.5742 -7.89062 C 18.291 -7.83203 18.1445 -7.83203 17.9102 -8.07617 L 15.7324 -10.2539 C 15.5078 -10.4883 15.4785 -10.625 15.6055 -10.9473 L 16.5527 -13.2227 C 14.9512 -14.7559 12.8418 -15.6055 10.8008 -14.9512 C 10.7129 -14.9219 10.6445 -14.9414 10.6152 -14.9805 C 10.5859 -15.0293 10.5859 -15.0781 10.6738 -15.1465 Z M 4.10156 2.41211 C 3.61328 1.91406 3.78906 1.61133 4.12109 1.30859 L 15.0781 -8.80859 L 16.3086 -7.57812 L 6.15234 3.34961 C 5.84961 3.68164 5.46875 3.7793 5.06836 3.37891 Z"/>
  </g>
  <text style="stroke:none;fill:black;font-family:-apple-system,&quot;SF Pro Display&quot;,&quot;SF Pro Text&quot;,Helvetica,sans-serif;font-weight:bold;" transform="matrix(1 0 0 1 1289 1953)">Exporting</text>
  <text style="stroke:none;fill:black;font-family:-apple-system,&quot;SF Pro Display&quot;,&quot;SF Pro Text&quot;,Helvetica,sans-serif;" transform="matrix(1 0 0 1 1289 1971)">Symbols should be outlined when exporting to ensure the</text>
  <text style="stroke:none;fill:black;font-family:-apple-system,&quot;SF Pro Display&quot;,&quot;SF Pro Text&quot;,Helvetica,sans-serif;" transform="matrix(1 0 0 1 1289 1989)">design is preserved when submitting to Xcode.</text>
  <text id="template-version" style="stroke:none;fill:black;font-family:-apple-system,&quot;SF Pro Display&quot;,&quot;SF Pro Text&quot;,Helvetica,sans-serif;text-anchor:end;" transform="matrix(1 0 0 1 3036 1933)">Template v.1.0</text>
  <text style="stroke:none;fill:black;font-family:-apple-system,&quot;SF Pro Display&quot;,&quot;SF Pro Text&quot;,Helvetica,sans-serif;text-anchor:end;" transform="matrix(1 0 0 1 3036 1951)">Generated from rectangle.split.3x3.fill</text>
  <text style="stroke:none;fill:black;font-family:-apple-system,&quot;SF Pro Display&quot;,&quot;SF Pro Text&quot;,Helvetica,sans-serif;text-anchor:end;" transform="matrix(1 0 0 1 3036 1969)">Typeset at 100 points</text>
  <text style="stroke:none;fill:black;font-family:-apple-system,&quot;SF Pro Display&quot;,&quot;SF Pro Text&quot;,Helvetica,sans-serif;" transform="matrix(1 0 0 1 263 726)">Small</text>
  <text style="stroke:none;fill:black;font-family:-apple-system,&quot;SF Pro Display&quot;,&quot;SF Pro Text&quot;,Helvetica,sans-serif;" transform="matrix(1 0 0 1 263 1156)">Medium</text>
  <text style="stroke:none;fill:black;font-family:-apple-system,&quot;SF Pro Display&quot;,&quot;SF Pro Text&quot;,Helvetica,sans-serif;" transform="matrix(1 0 0 1 263 1586)">Large</text>
 </g>
 <g id="Guides">
  <g id="H-reference" style="fill:#27AAE1;stroke:none;" transform="matrix(1 0 0 1 339 696)">
   <path d="M 54.9316 0 L 57.666 0 L 30.5664 -70.459 L 28.0762 -70.459 L 0.976562 0 L 3.66211 0 L 12.9395 -24.4629 L 45.7031 -24.4629 Z M 29.1992 -67.0898 L 29.4434 -67.0898 L 44.8242 -26.709 L 13.8184 -26.709 Z"/>
  </g>
  <line id="Baseline-S" style="fill:none;stroke:#27AAE1;opacity:1;stroke-width:0.577;" x1="263" x2="3036" y1="696" y2="696"/>
  <line id="Capline-S" style="fill:none;stroke:#27AAE1;opacity:1;stroke-width:0.577;" x1="263" x2="3036" y1="625.541" y2="625.541"/>
  <g id="H-reference" style="fill:#27AAE1;stroke:none;" transform="matrix(1 0 0 1 339 1126)">
   <path d="M 54.9316 0 L 57.666 0 L 30.5664 -70.459 L 28.0762 -70.459 L 0.976562 0 L 3.66211 0 L 12.9395 -24.4629 L 45.7031 -24.4629 Z M 29.1992 -67.0898 L 29.4434 -67.0898 L 44.8242 -26.709 L 13.8184 -26.709 Z"/>
  </g>
  <line id="Baseline-M" style="fill:none;stroke:#27AAE1;opacity:1;stroke-width:0.577;" x1="263" x2="3036" y1="1126" y2="1126"/>
  <line id="Capline-M" style="fill:none;stroke:#27AAE1;opacity:1;stroke-width:0.577;" x1="263" x2="3036" y1="1055.54" y2="1055.54"/>
  <g id="H-reference" style="fill:#27AAE1;stroke:none;" transform="matrix(1 0 0 1 339 1556)">
   <path d="M 54.9316 0 L 57.666 0 L 30.5664 -70.459 L 28.0762 -70.459 L 0.976562 0 L 3.66211 0 L 12.9395 -24.4629 L 45.7031 -24.4629 Z M 29.1992 -67.0898 L 29.4434 -67.0898 L 44.8242 -26.709 L 13.8184 -26.709 Z"/>
  </g>
  <line id="Baseline-L" style="fill:none;stroke:#27AAE1;opacity:1;stroke-width:0.577;" x1="263" x2="3036" y1="1556" y2="1556"/>
  <line id="Capline-L" style="fill:none;stroke:#27AAE1;opacity:1;stroke-width:0.577;" x1="263" x2="3036" y1="1485.54" y2="1485.54"/>
  <rect height="119.336" id="left-margin" style="fill:#00AEEF;stroke:none;opacity:0.4;" width="12.4512" x="1379.82" y="1030.79"/>
  <rect height="119.336" id="right-margin" style="fill:#00AEEF;stroke:none;opacity:0.4;" width="12.4512" x="1507.41" y="1030.79"/>
 </g>
 <g id="Symbols">
  <g id="Black-L" transform="matrix(1 0 0 1 2841.51 1556)">
   <path d="M 72.9004 -65.625 L 110.84 -65.625 L 110.84 -96.875 L 72.9004 -96.875 Z M 126.807 -65.625 L 167.725 -65.625 L 167.725 -73.0957 C 167.725 -88.2812 159.082 -96.875 143.799 -96.875 L 126.807 -96.875 Z M 110.84 -20.6543 L 110.84 -49.707 L 72.9004 -49.707 L 72.9004 -20.6543 Z M 56.9824 -65.625 L 56.9824 -96.875 L 39.9902 -96.875 C 24.7559 -96.875 16.0645 -88.2812 16.0645 -73.0957 L 16.0645 -65.625 Z M 167.725 -49.707 L 126.807 -49.707 L 126.807 -20.6543 L 167.725 -20.6543 Z M 56.9824 -20.6543 L 56.9824 -49.707 L 16.0645 -49.707 L 16.0645 -20.6543 Z M 126.807 26.5137 L 143.799 26.5137 C 159.082 26.5137 167.725 17.8711 167.725 2.68555 L 167.725 -4.73633 L 126.807 -4.73633 Z M 110.84 -4.73633 L 72.9004 -4.73633 L 72.9004 26.5137 L 110.84 26.5137 Z M 39.9902 26.5137 L 56.9824 26.5137 L 56.9824 -4.73633 L 16.0645 -4.73633 L 16.0645 2.68555 C 16.0645 17.8711 24.7559 26.5137 39.9902 26.5137 Z"/>
  </g>
  <g id="Heavy-L" transform="matrix(1 0 0 1 2545.23 1556)">
   <path d="M 71.9238 -64.209 L 110.986 -64.209 L 110.986 -95.8496 L 71.9238 -95.8496 Z M 125.244 -64.209 L 166.846 -64.209 L 166.846 -73.2422 C 166.846 -87.793 158.74 -95.8496 144.092 -95.8496 L 125.244 -95.8496 Z M 110.986 -20.4102 L 110.986 -49.9512 L 71.9238 -49.9512 L 71.9238 -20.4102 Z M 57.666 -64.209 L 57.666 -95.8496 L 38.8184 -95.8496 C 24.2188 -95.8496 16.0645 -87.793 16.0645 -73.2422 L 16.0645 -64.209 Z M 166.846 -49.9512 L 125.244 -49.9512 L 125.244 -20.4102 L 166.846 -20.4102 Z M 57.666 -20.4102 L 57.666 -49.9512 L 16.0645 -49.9512 L 16.0645 -20.4102 Z M 125.244 25.4883 L 144.092 25.4883 C 158.74 25.4883 166.846 17.4316 166.846 2.88086 L 166.846 -6.15234 L 125.244 -6.15234 Z M 110.986 -6.15234 L 71.9238 -6.15234 L 71.9238 25.4883 L 110.986 25.4883 Z M 38.8184 25.4883 L 57.666 25.4883 L 57.666 -6.15234 L 16.0645 -6.15234 L 16.0645 2.88086 C 16.0645 17.4316 24.2188 25.4883 38.8184 25.4883 Z"/>
  </g>
  <g id="Bold-L" transform="matrix(1 0 0 1 2249.01 1556)">
   <path d="M 70.8008 -62.5977 L 111.133 -62.5977 L 111.133 -94.7266 L 70.8008 -94.7266 Z M 123.486 -62.5977 L 165.869 -62.5977 L 165.869 -73.3887 C 165.869 -87.207 158.35 -94.7266 144.385 -94.7266 L 123.486 -94.7266 Z M 111.133 -20.1172 L 111.133 -50.2441 L 70.8008 -50.2441 L 70.8008 -20.1172 Z M 58.4473 -62.5977 L 58.4473 -94.7266 L 37.5 -94.7266 C 23.6328 -94.7266 16.0645 -87.2559 16.0645 -73.3887 L 16.0645 -62.5977 Z M 165.869 -50.2441 L 123.486 -50.2441 L 123.486 -20.1172 L 165.869 -20.1172 Z M 58.4473 -20.1172 L 58.4473 -50.2441 L 16.0645 -50.2441 L 16.0645 -20.1172 Z M 123.486 24.3652 L 144.385 24.3652 C 158.35 24.3652 165.869 16.8945 165.869 3.07617 L 165.869 -7.76367 L 123.486 -7.76367 Z M 111.133 -7.76367 L 70.8008 -7.76367 L 70.8008 24.3652 L 111.133 24.3652 Z M 37.5 24.3652 L 58.4473 24.3652 L 58.4473 -7.76367 L 16.0645 -7.76367 L 16.0645 3.07617 C 16.0645 16.8945 23.6328 24.3652 37.5 24.3652 Z"/>
  </g>
  <g id="Semibold-L" transform="matrix(1 0 0 1 1952.64 1556)">
   <path d="M 70.0195 -61.4746 L 111.23 -61.4746 L 111.23 -93.9453 L 70.0195 -93.9453 Z M 122.266 -61.4746 L 165.186 -61.4746 L 165.186 -73.5352 C 165.186 -86.8164 158.057 -93.9453 144.629 -93.9453 L 122.266 -93.9453 Z M 111.23 -19.873 L 111.23 -50.4395 L 70.0195 -50.4395 L 70.0195 -19.873 Z M 58.9844 -61.4746 L 58.9844 -93.9453 L 36.6211 -93.9453 C 23.1934 -93.9453 16.0645 -86.8652 16.0645 -73.5352 L 16.0645 -61.4746 Z M 165.186 -50.4395 L 122.266 -50.4395 L 122.266 -19.873 L 165.186 -19.873 Z M 58.9844 -19.873 L 58.9844 -50.4395 L 16.0645 -50.4395 L 16.0645 -19.873 Z M 122.266 23.584 L 144.629 23.584 C 158.057 23.584 165.186 16.5039 165.186 3.17383 L 165.186 -8.83789 L 122.266 -8.83789 Z M 111.23 -8.83789 L 70.0195 -8.83789 L 70.0195 23.584 L 111.23 23.584 Z M 36.6211 23.584 L 58.9844 23.584 L 58.9844 -8.83789 L 16.0645 -8.83789 L 16.0645 3.17383 C 16.0645 16.5527 23.1934 23.584 36.6211 23.584 Z"/>
  </g>
  <g id="Medium-L" transform="matrix(1 0 0 1 1656.2 1556)">
   <path d="M 69.4336 -60.6445 L 111.279 -60.6445 L 111.279 -93.3105 L 69.4336 -93.3105 Z M 121.338 -60.6445 L 164.648 -60.6445 L 164.648 -73.6328 C 164.648 -86.5234 157.861 -93.3105 144.775 -93.3105 L 121.338 -93.3105 Z M 111.279 -19.7266 L 111.279 -50.5859 L 69.4336 -50.5859 L 69.4336 -19.7266 Z M 59.375 -60.6445 L 59.375 -93.3105 L 35.9375 -93.3105 C 22.9004 -93.3105 16.0645 -86.5723 16.0645 -73.6328 L 16.0645 -60.6445 Z M 164.648 -50.5859 L 121.338 -50.5859 L 121.338 -19.7266 L 164.648 -19.7266 Z M 59.375 -19.7266 L 59.375 -50.5859 L 16.0645 -50.5859 L 16.0645 -19.7266 Z M 121.338 22.998 L 144.775 22.998 C 157.861 22.998 164.648 16.2109 164.648 3.27148 L 164.648 -9.66797 L 121.338 -9.66797 Z M 111.279 -9.66797 L 69.4336 -9.66797 L 69.4336 22.998 L 111.279 22.998 Z M 35.9375 22.998 L 59.375 22.998 L 59.375 -9.66797 L 16.0645 -9.66797 L 16.0645 3.27148 C 16.0645 16.2598 22.9004 22.998 35.9375 22.998 Z"/>
  </g>
  <g id="Regular-L" transform="matrix(1 0 0 1 1359.81 1556)">
   <path d="M 68.7012 -59.5703 L 111.377 -59.5703 L 111.377 -92.5293 L 68.7012 -92.5293 Z M 120.166 -59.5703 L 164.014 -59.5703 L 164.014 -73.7305 C 164.014 -86.1816 157.617 -92.5293 144.971 -92.5293 L 120.166 -92.5293 Z M 111.377 -19.5312 L 111.377 -50.7812 L 68.7012 -50.7812 L 68.7012 -19.5312 Z M 59.9121 -59.5703 L 59.9121 -92.5293 L 35.0586 -92.5293 C 22.4609 -92.5293 16.0645 -86.2305 16.0645 -73.7305 L 16.0645 -59.5703 Z M 164.014 -50.7812 L 120.166 -50.7812 L 120.166 -19.5312 L 164.014 -19.5312 Z M 59.9121 -19.5312 L 59.9121 -50.7812 L 16.0645 -50.7812 L 16.0645 -19.5312 Z M 120.166 22.2168 L 144.971 22.2168 C 157.617 22.2168 164.014 15.8691 164.014 3.41797 L 164.014 -10.7422 L 120.166 -10.7422 Z M 111.377 -10.7422 L 68.7012 -10.7422 L 68.7012 22.2168 L 111.377 22.2168 Z M 35.0586 22.2168 L 59.9121 22.2168 L 59.9121 -10.7422 L 16.0645 -10.7422 L 16.0645 3.41797 C 16.0645 15.918 22.4609 22.2168 35.0586 22.2168 Z"/>
  </g>
  <g id="Light-L" transform="matrix(1 0 0 1 1063.56 1556)">
   <path d="M 67.8223 -58.3984 L 111.328 -58.3984 L 111.328 -91.6992 L 67.8223 -91.6992 Z M 118.652 -58.3984 L 163.086 -58.3984 L 163.086 -73.8281 C 163.086 -85.5469 157.031 -91.6992 145.117 -91.6992 L 118.652 -91.6992 Z M 111.328 -19.1406 L 111.328 -51.123 L 67.8223 -51.123 L 67.8223 -19.1406 Z M 60.5469 -58.3984 L 60.5469 -91.6992 L 34.0332 -91.6992 C 22.168 -91.6992 16.0645 -85.6445 16.0645 -73.8281 L 16.0645 -58.3984 Z M 163.086 -51.123 L 118.652 -51.123 L 118.652 -19.1406 L 163.086 -19.1406 Z M 60.5469 -19.1406 L 60.5469 -51.123 L 16.0645 -51.123 L 16.0645 -19.1406 Z M 118.652 21.4355 L 145.117 21.4355 C 157.031 21.4355 163.086 15.2344 163.086 3.56445 L 163.086 -11.8652 L 118.652 -11.8652 Z M 111.328 -11.8652 L 67.8223 -11.8652 L 67.8223 21.4355 L 111.328 21.4355 Z M 34.0332 21.4355 L 60.5469 21.4355 L 60.5469 -11.8652 L 16.0645 -11.8652 L 16.0645 3.56445 C 16.0645 15.3809 22.168 21.4355 34.0332 21.4355 Z"/>
  </g>
  <g id="Thin-L" transform="matrix(1 0 0 1 767.433 1556)">
   <path d="M 66.6992 -56.8848 L 111.279 -56.8848 L 111.279 -90.5762 L 66.6992 -90.5762 Z M 116.65 -56.8848 L 161.914 -56.8848 L 161.914 -73.9746 C 161.914 -84.7168 156.201 -90.5762 145.312 -90.5762 L 116.65 -90.5762 Z M 111.279 -18.6523 L 111.279 -51.5625 L 66.6992 -51.5625 L 66.6992 -18.6523 Z M 61.377 -56.8848 L 61.377 -90.5762 L 32.666 -90.5762 C 21.7773 -90.5762 16.0645 -84.8633 16.0645 -73.9746 L 16.0645 -56.8848 Z M 161.914 -51.5625 L 116.65 -51.5625 L 116.65 -18.6523 L 161.914 -18.6523 Z M 61.377 -18.6523 L 61.377 -51.5625 L 16.0645 -51.5625 L 16.0645 -18.6523 Z M 116.65 20.3613 L 145.312 20.3613 C 156.201 20.3613 161.914 14.4531 161.914 3.75977 L 161.914 -13.3301 L 116.65 -13.3301 Z M 111.279 -13.3301 L 66.6992 -13.3301 L 66.6992 20.3613 L 111.279 20.3613 Z M 32.666 20.3613 L 61.377 20.3613 L 61.377 -13.3301 L 16.0645 -13.3301 L 16.0645 3.75977 C 16.0645 14.6484 21.7773 20.3613 32.666 20.3613 Z"/>
  </g>
  <g id="Ultralight-L" transform="matrix(1 0 0 1 471.015 1556)">
   <path d="M 66.1133 -56.1035 L 111.279 -56.1035 L 111.279 -89.9902 L 66.1133 -89.9902 Z M 115.625 -56.1035 L 161.328 -56.1035 L 161.328 -74.0723 C 161.328 -84.2773 155.811 -89.9902 145.41 -89.9902 L 115.625 -89.9902 Z M 111.279 -18.4082 L 111.279 -51.8066 L 66.1133 -51.8066 L 66.1133 -18.4082 Z M 61.7676 -56.1035 L 61.7676 -89.9902 L 31.9824 -89.9902 C 21.582 -89.9902 16.0645 -84.4727 16.0645 -74.0723 L 16.0645 -56.1035 Z M 161.328 -51.8066 L 115.625 -51.8066 L 115.625 -18.4082 L 161.328 -18.4082 Z M 61.7676 -18.4082 L 61.7676 -51.8066 L 16.0645 -51.8066 L 16.0645 -18.4082 Z M 115.625 19.7754 L 145.41 19.7754 C 155.811 19.7754 161.328 14.0625 161.328 3.85742 L 161.328 -14.0625 L 115.625 -14.0625 Z M 111.279 -14.0625 L 66.1133 -14.0625 L 66.1133 19.7754 L 111.279 19.7754 Z M 31.9824 19.7754 L 61.7676 19.7754 L 61.7676 -14.0625 L 16.0645 -14.0625 L 16.0645 3.85742 C 16.0645 14.2578 21.582 19.7754 31.9824 19.7754 Z"/>
  </g>
  <g id="Black-M" transform="matrix(1 0 0 1 2861.84 1126)">
   <path d="M 57.4219 -60.1074 L 85.7422 -60.1074 L 85.7422 -83.9355 L 57.4219 -83.9355 Z M 99.5605 -60.1074 L 130.664 -60.1074 L 130.664 -64.4043 C 130.664 -76.6602 123.389 -83.9355 111.133 -83.9355 L 99.5605 -83.9355 Z M 85.7422 -24.1211 L 85.7422 -46.2891 L 57.4219 -46.2891 L 57.4219 -24.1211 Z M 43.5547 -60.1074 L 43.5547 -83.9355 L 31.9824 -83.9355 C 19.7266 -83.9355 12.4512 -76.6602 12.4512 -64.4043 L 12.4512 -60.1074 Z M 130.664 -46.2891 L 99.5605 -46.2891 L 99.5605 -24.1211 L 130.664 -24.1211 Z M 43.5547 -24.1211 L 43.5547 -46.2891 L 12.4512 -46.2891 L 12.4512 -24.1211 Z M 99.5605 13.5742 L 111.133 13.5742 C 123.389 13.5742 130.664 6.29883 130.664 -5.95703 L 130.664 -10.3027 L 99.5605 -10.3027 Z M 85.7422 -10.3027 L 57.4219 -10.3027 L 57.4219 13.5742 L 85.7422 13.5742 Z M 31.9824 13.5742 L 43.5547 13.5742 L 43.5547 -10.3027 L 12.4512 -10.3027 L 12.4512 -5.95703 C 12.4512 6.29883 19.7266 13.5742 31.9824 13.5742 Z"/>
  </g>
  <g id="Heavy-M" transform="matrix(1 0 0 1 2565.5 1126)">
   <path d="M 56.543 -58.8379 L 85.8887 -58.8379 L 85.8887 -83.0566 L 56.543 -83.0566 Z M 98.2422 -58.8379 L 129.932 -58.8379 L 129.932 -64.5508 C 129.932 -76.2695 123.193 -83.0566 111.426 -83.0566 L 98.2422 -83.0566 Z M 85.8887 -23.9258 L 85.8887 -46.4844 L 56.543 -46.4844 L 56.543 -23.9258 Z M 44.1406 -58.8379 L 44.1406 -83.0566 L 31.0059 -83.0566 C 19.2383 -83.0566 12.4512 -76.3184 12.4512 -64.5508 L 12.4512 -58.8379 Z M 129.932 -46.4844 L 98.2422 -46.4844 L 98.2422 -23.9258 L 129.932 -23.9258 Z M 44.1406 -23.9258 L 44.1406 -46.4844 L 12.4512 -46.4844 L 12.4512 -23.9258 Z M 98.2422 12.6465 L 111.426 12.6465 C 123.193 12.6465 129.932 5.9082 129.932 -5.81055 L 129.932 -11.5234 L 98.2422 -11.5234 Z M 85.8887 -11.5234 L 56.543 -11.5234 L 56.543 12.6465 L 85.8887 12.6465 Z M 31.0059 12.6465 L 44.1406 12.6465 L 44.1406 -11.5234 L 12.4512 -11.5234 L 12.4512 -5.81055 C 12.4512 5.9082 19.2383 12.6465 31.0059 12.6465 Z"/>
  </g>
  <g id="Bold-M" transform="matrix(1 0 0 1 2269.18 1126)">
   <path d="M 55.5664 -57.4219 L 86.0352 -57.4219 L 86.0352 -82.0312 L 55.5664 -82.0312 Z M 96.7773 -57.4219 L 129.15 -57.4219 L 129.15 -64.6973 C 129.15 -75.8789 122.949 -82.0312 111.719 -82.0312 L 96.7773 -82.0312 Z M 86.0352 -23.6816 L 86.0352 -46.6797 L 55.5664 -46.6797 L 55.5664 -23.6816 Z M 44.8242 -57.4219 L 44.8242 -82.0312 L 29.8828 -82.0312 C 18.6523 -82.0312 12.4512 -75.8789 12.4512 -64.6973 L 12.4512 -57.4219 Z M 129.15 -46.6797 L 96.7773 -46.6797 L 96.7773 -23.6816 L 129.15 -23.6816 Z M 44.8242 -23.6816 L 44.8242 -46.6797 L 12.4512 -46.6797 L 12.4512 -23.6816 Z M 96.7773 11.6699 L 111.719 11.6699 C 122.949 11.6699 129.15 5.46875 129.15 -5.66406 L 129.15 -12.9395 L 96.7773 -12.9395 Z M 86.0352 -12.9395 L 55.5664 -12.9395 L 55.5664 11.6699 L 86.0352 11.6699 Z M 29.8828 11.6699 L 44.8242 11.6699 L 44.8242 -12.9395 L 12.4512 -12.9395 L 12.4512 -5.66406 C 12.4512 5.51758 18.6523 11.6699 29.8828 11.6699 Z"/>
  </g>
  <g id="Semibold-M" transform="matrix(1 0 0 1 1972.76 1126)">
   <path d="M 54.8828 -56.4453 L 86.1328 -56.4453 L 86.1328 -81.3477 L 54.8828 -81.3477 Z M 95.752 -56.4453 L 128.564 -56.4453 L 128.564 -64.8438 C 128.564 -75.5859 122.803 -81.3477 111.914 -81.3477 L 95.752 -81.3477 Z M 86.1328 -23.5352 L 86.1328 -46.8262 L 54.8828 -46.8262 L 54.8828 -23.5352 Z M 45.2637 -56.4453 L 45.2637 -81.3477 L 29.1016 -81.3477 C 18.2617 -81.3477 12.4512 -75.5859 12.4512 -64.8438 L 12.4512 -56.4453 Z M 128.564 -46.8262 L 95.752 -46.8262 L 95.752 -23.5352 L 128.564 -23.5352 Z M 45.2637 -23.5352 L 45.2637 -46.8262 L 12.4512 -46.8262 L 12.4512 -23.5352 Z M 95.752 10.9863 L 111.914 10.9863 C 122.803 10.9863 128.564 5.17578 128.564 -5.56641 L 128.564 -13.916 L 95.752 -13.916 Z M 86.1328 -13.916 L 54.8828 -13.916 L 54.8828 10.9863 L 86.1328 10.9863 Z M 29.1016 10.9863 L 45.2637 10.9863 L 45.2637 -13.916 L 12.4512 -13.916 L 12.4512 -5.56641 C 12.4512 5.22461 18.2617 10.9863 29.1016 10.9863 Z"/>
  </g>
  <g id="Medium-M" transform="matrix(1 0 0 1 1676.24 1126)">
   <path d="M 54.3945 -55.7129 L 86.2305 -55.7129 L 86.2305 -80.8105 L 54.3945 -80.8105 Z M 94.9707 -55.7129 L 128.174 -55.7129 L 128.174 -64.8926 C 128.174 -75.3418 122.656 -80.8105 112.061 -80.8105 L 94.9707 -80.8105 Z M 86.2305 -23.4375 L 86.2305 -46.9727 L 54.3945 -46.9727 L 54.3945 -23.4375 Z M 45.6055 -55.7129 L 45.6055 -80.8105 L 28.5156 -80.8105 C 17.9688 -80.8105 12.4512 -75.3906 12.4512 -64.8926 L 12.4512 -55.7129 Z M 128.174 -46.9727 L 94.9707 -46.9727 L 94.9707 -23.4375 L 128.174 -23.4375 Z M 45.6055 -23.4375 L 45.6055 -46.9727 L 12.4512 -46.9727 L 12.4512 -23.4375 Z M 94.9707 10.4492 L 112.061 10.4492 C 122.656 10.4492 128.174 4.98047 128.174 -5.46875 L 128.174 -14.6484 L 94.9707 -14.6484 Z M 86.2305 -14.6484 L 54.3945 -14.6484 L 54.3945 10.4492 L 86.2305 10.4492 Z M 28.5156 10.4492 L 45.6055 10.4492 L 45.6055 -14.6484 L 12.4512 -14.6484 L 12.4512 -5.46875 C 12.4512 4.98047 17.9688 10.4492 28.5156 10.4492 Z"/>
  </g>
  <g id="Regular-M" transform="matrix(1 0 0 1 1379.82 1126)">
   <path d="M 53.7109 -54.7363 L 86.3281 -54.7363 L 86.3281 -80.127 L 53.7109 -80.127 Z M 93.9941 -54.7363 L 127.588 -54.7363 L 127.588 -64.9902 C 127.588 -75.0488 122.51 -80.127 112.256 -80.127 L 93.9941 -80.127 Z M 86.3281 -23.291 L 86.3281 -47.1191 L 53.7109 -47.1191 L 53.7109 -23.291 Z M 46.0449 -54.7363 L 46.0449 -80.127 L 27.7832 -80.127 C 17.5781 -80.127 12.4512 -75.0977 12.4512 -64.9902 L 12.4512 -54.7363 Z M 127.588 -47.1191 L 93.9941 -47.1191 L 93.9941 -23.291 L 127.588 -23.291 Z M 46.0449 -23.291 L 46.0449 -47.1191 L 12.4512 -47.1191 L 12.4512 -23.291 Z M 93.9941 9.76562 L 112.256 9.76562 C 122.51 9.76562 127.588 4.6875 127.588 -5.37109 L 127.588 -15.625 L 93.9941 -15.625 Z M 86.3281 -15.625 L 53.7109 -15.625 L 53.7109 9.76562 L 86.3281 9.76562 Z M 27.7832 9.76562 L 46.0449 9.76562 L 46.0449 -15.625 L 12.4512 -15.625 L 12.4512 -5.37109 C 12.4512 4.73633 17.5781 9.76562 27.7832 9.76562 Z"/>
  </g>
  <g id="Light-M" transform="matrix(1 0 0 1 1083.5 1126)">
   <path d="M 52.9297 -53.7109 L 86.3281 -53.7109 L 86.3281 -79.3945 L 52.9297 -79.3945 Z M 92.627 -53.7109 L 126.807 -53.7109 L 126.807 -65.0879 C 126.807 -74.5117 121.973 -79.3945 112.402 -79.3945 L 92.627 -79.3945 Z M 86.3281 -22.9492 L 86.3281 -47.4121 L 52.9297 -47.4121 L 52.9297 -22.9492 Z M 46.6309 -53.7109 L 46.6309 -79.3945 L 26.8555 -79.3945 C 17.334 -79.3945 12.4512 -74.5605 12.4512 -65.0879 L 12.4512 -53.7109 Z M 126.807 -47.4121 L 92.627 -47.4121 L 92.627 -22.9492 L 126.807 -22.9492 Z M 46.6309 -22.9492 L 46.6309 -47.4121 L 12.4512 -47.4121 L 12.4512 -22.9492 Z M 92.627 9.0332 L 112.402 9.0332 C 121.973 9.0332 126.807 4.15039 126.807 -5.22461 L 126.807 -16.6016 L 92.627 -16.6016 Z M 86.3281 -16.6016 L 52.9297 -16.6016 L 52.9297 9.0332 L 86.3281 9.0332 Z M 26.8555 9.0332 L 46.6309 9.0332 L 46.6309 -16.6016 L 12.4512 -16.6016 L 12.4512 -5.22461 C 12.4512 4.19922 17.334 9.0332 26.8555 9.0332 Z"/>
  </g>
  <g id="Thin-M" transform="matrix(1 0 0 1 787.33 1126)">
   <path d="M 51.9531 -52.3438 L 86.2793 -52.3438 L 86.2793 -78.3691 L 51.9531 -78.3691 Z M 90.8203 -52.3438 L 125.732 -52.3438 L 125.732 -65.2344 C 125.732 -73.7305 121.24 -78.3691 112.598 -78.3691 L 90.8203 -78.3691 Z M 86.2793 -22.5098 L 86.2793 -47.8027 L 51.9531 -47.8027 L 51.9531 -22.5098 Z M 47.3633 -52.3438 L 47.3633 -78.3691 L 25.6348 -78.3691 C 16.9922 -78.3691 12.4512 -73.877 12.4512 -65.2344 L 12.4512 -52.3438 Z M 125.732 -47.8027 L 90.8203 -47.8027 L 90.8203 -22.5098 L 125.732 -22.5098 Z M 47.3633 -22.5098 L 47.3633 -47.8027 L 12.4512 -47.8027 L 12.4512 -22.5098 Z M 90.8203 8.05664 L 112.598 8.05664 C 121.24 8.05664 125.732 3.4668 125.732 -5.0293 L 125.732 -17.9199 L 90.8203 -17.9199 Z M 86.2793 -17.9199 L 51.9531 -17.9199 L 51.9531 8.05664 L 86.2793 8.05664 Z M 25.6348 8.05664 L 47.3633 8.05664 L 47.3633 -17.9199 L 12.4512 -17.9199 L 12.4512 -5.0293 C 12.4512 3.56445 16.9922 8.05664 25.6348 8.05664 Z"/>
  </g>
  <g id="Ultralight-M" transform="matrix(1 0 0 1 490.888 1126)">
   <path d="M 51.416 -51.6602 L 86.2305 -51.6602 L 86.2305 -77.832 L 51.416 -77.832 Z M 89.8926 -51.6602 L 125.195 -51.6602 L 125.195 -65.2832 C 125.195 -73.3887 120.85 -77.832 112.695 -77.832 L 89.8926 -77.832 Z M 86.2305 -22.2656 L 86.2305 -47.998 L 51.416 -47.998 L 51.416 -22.2656 Z M 47.7539 -51.6602 L 47.7539 -77.832 L 25 -77.832 C 16.7969 -77.832 12.4512 -73.4863 12.4512 -65.2832 L 12.4512 -51.6602 Z M 125.195 -47.998 L 89.8926 -47.998 L 89.8926 -22.2656 L 125.195 -22.2656 Z M 47.7539 -22.2656 L 47.7539 -47.998 L 12.4512 -47.998 L 12.4512 -22.2656 Z M 89.8926 7.56836 L 112.695 7.56836 C 120.85 7.56836 125.195 3.125 125.195 -4.98047 L 125.195 -18.6035 L 89.8926 -18.6035 Z M 86.2305 -18.6035 L 51.416 -18.6035 L 51.416 7.56836 L 86.2305 7.56836 Z M 25 7.56836 L 47.7539 7.56836 L 47.7539 -18.6035 L 12.4512 -18.6035 L 12.4512 -4.98047 C 12.4512 3.22266 16.7969 7.56836 25 7.56836 Z"/>
  </g>
  <g id="Black-S" transform="matrix(1 0 0 1 2877.35 696)">
   <path d="M 44.9219 -54.6387 L 67.1875 -54.6387 L 67.1875 -73.3398 L 44.9219 -73.3398 Z M 77.9297 -54.6387 L 102.344 -54.6387 L 102.344 -58.1055 C 102.344 -67.6758 96.6797 -73.3398 87.1094 -73.3398 L 77.9297 -73.3398 Z M 67.1875 -26.5137 L 67.1875 -43.8965 L 44.9219 -43.8965 L 44.9219 -26.5137 Z M 34.1797 -54.6387 L 34.1797 -73.3398 L 25 -73.3398 C 15.4297 -73.3398 9.76562 -67.6758 9.76562 -58.1055 L 9.76562 -54.6387 Z M 102.344 -43.8965 L 77.9297 -43.8965 L 77.9297 -26.5137 L 102.344 -26.5137 Z M 34.1797 -26.5137 L 34.1797 -43.8965 L 9.76562 -43.8965 L 9.76562 -26.5137 Z M 77.9297 2.92969 L 87.1094 2.92969 C 96.6797 2.92969 102.344 -2.73438 102.344 -12.3047 L 102.344 -15.7715 L 77.9297 -15.7715 Z M 67.1875 -15.7715 L 44.9219 -15.7715 L 44.9219 2.92969 L 67.1875 2.92969 Z M 25 2.92969 L 34.1797 2.92969 L 34.1797 -15.7715 L 9.76562 -15.7715 L 9.76562 -12.3047 C 9.76562 -2.73438 15.4297 2.92969 25 2.92969 Z"/>
  </g>
  <g id="Heavy-S" transform="matrix(1 0 0 1 2580.88 696)">
   <path d="M 44.3359 -53.7598 L 67.2852 -53.7598 L 67.2852 -72.7539 L 44.3359 -72.7539 Z M 77.0508 -53.7598 L 101.855 -53.7598 L 101.855 -58.2031 C 101.855 -67.4316 96.582 -72.7539 87.3047 -72.7539 L 77.0508 -72.7539 Z M 67.2852 -26.416 L 67.2852 -43.9941 L 44.3359 -43.9941 L 44.3359 -26.416 Z M 34.5703 -53.7598 L 34.5703 -72.7539 L 24.3652 -72.7539 C 15.0879 -72.7539 9.76562 -67.4316 9.76562 -58.2031 L 9.76562 -53.7598 Z M 101.855 -43.9941 L 77.0508 -43.9941 L 77.0508 -26.416 L 101.855 -26.416 Z M 34.5703 -26.416 L 34.5703 -43.9941 L 9.76562 -43.9941 L 9.76562 -26.416 Z M 77.0508 2.34375 L 87.3047 2.34375 C 96.582 2.34375 101.855 -2.97852 101.855 -12.207 L 101.855 -16.6504 L 77.0508 -16.6504 Z M 67.2852 -16.6504 L 44.3359 -16.6504 L 44.3359 2.34375 L 67.2852 2.34375 Z M 24.3652 2.34375 L 34.5703 2.34375 L 34.5703 -16.6504 L 9.76562 -16.6504 L 9.76562 -12.207 C 9.76562 -2.97852 15.0879 2.34375 24.3652 2.34375 Z"/>
  </g>
  <g id="Bold-S" transform="matrix(1 0 0 1 2284.41 696)">
   <path d="M 43.7012 -52.832 L 67.4316 -52.832 L 67.4316 -72.0703 L 43.7012 -72.0703 Z M 76.123 -52.832 L 101.367 -52.832 L 101.367 -58.3008 C 101.367 -67.1875 96.4844 -72.0703 87.5 -72.0703 L 76.123 -72.0703 Z M 67.4316 -26.2695 L 67.4316 -44.1406 L 43.7012 -44.1406 L 43.7012 -26.2695 Z M 35.0098 -52.832 L 35.0098 -72.0703 L 23.6328 -72.0703 C 14.6973 -72.0703 9.76562 -67.1875 9.76562 -58.3008 L 9.76562 -52.832 Z M 101.367 -44.1406 L 76.123 -44.1406 L 76.123 -26.2695 L 101.367 -26.2695 Z M 35.0098 -26.2695 L 35.0098 -44.1406 L 9.76562 -44.1406 L 9.76562 -26.2695 Z M 76.123 1.66016 L 87.5 1.66016 C 96.4844 1.66016 101.367 -3.22266 101.367 -12.1094 L 101.367 -17.5781 L 76.123 -17.5781 Z M 67.4316 -17.5781 L 43.7012 -17.5781 L 43.7012 1.66016 L 67.4316 1.66016 Z M 23.6328 1.66016 L 35.0098 1.66016 L 35.0098 -17.5781 L 9.76562 -17.5781 L 9.76562 -12.1094 C 9.76562 -3.22266 14.6973 1.66016 23.6328 1.66016 Z"/>
  </g>
  <g id="Semibold-S" transform="matrix(1 0 0 1 1987.9 696)">
   <path d="M 43.2617 -52.1484 L 67.5293 -52.1484 L 67.5293 -71.582 L 43.2617 -71.582 Z M 75.4395 -52.1484 L 100.977 -52.1484 L 100.977 -58.3984 C 100.977 -67.041 96.3867 -71.582 87.6465 -71.582 L 75.4395 -71.582 Z M 67.5293 -26.1719 L 67.5293 -44.2383 L 43.2617 -44.2383 L 43.2617 -26.1719 Z M 35.3027 -52.1484 L 35.3027 -71.582 L 23.0957 -71.582 C 14.4043 -71.582 9.76562 -67.041 9.76562 -58.3984 L 9.76562 -52.1484 Z M 100.977 -44.2383 L 75.4395 -44.2383 L 75.4395 -26.1719 L 100.977 -26.1719 Z M 35.3027 -26.1719 L 35.3027 -44.2383 L 9.76562 -44.2383 L 9.76562 -26.1719 Z M 75.4395 1.17188 L 87.6465 1.17188 C 96.3867 1.17188 100.977 -3.36914 100.977 -12.0117 L 100.977 -18.2617 L 75.4395 -18.2617 Z M 67.5293 -18.2617 L 43.2617 -18.2617 L 43.2617 1.17188 L 67.5293 1.17188 Z M 23.0957 1.17188 L 35.3027 1.17188 L 35.3027 -18.2617 L 9.76562 -18.2617 L 9.76562 -12.0117 C 9.76562 -3.36914 14.4043 1.17188 23.0957 1.17188 Z"/>
  </g>
  <g id="Medium-S" transform="matrix(1 0 0 1 1691.31 696)">
   <path d="M 42.9199 -51.6602 L 67.5781 -51.6602 L 67.5781 -71.2402 L 42.9199 -71.2402 Z M 74.9512 -51.6602 L 100.732 -51.6602 L 100.732 -58.4473 C 100.732 -66.8945 96.3379 -71.2402 87.7441 -71.2402 L 74.9512 -71.2402 Z M 67.5781 -26.123 L 67.5781 -44.2871 L 42.9199 -44.2871 L 42.9199 -26.123 Z M 35.5469 -51.6602 L 35.5469 -71.2402 L 22.7051 -71.2402 C 14.209 -71.2402 9.76562 -66.8945 9.76562 -58.4473 L 9.76562 -51.6602 Z M 100.732 -44.2871 L 74.9512 -44.2871 L 74.9512 -26.123 L 100.732 -26.123 Z M 35.5469 -26.123 L 35.5469 -44.2871 L 9.76562 -44.2871 L 9.76562 -26.123 Z M 74.9512 0.830078 L 87.7441 0.830078 C 96.3379 0.830078 100.732 -3.51562 100.732 -11.9629 L 100.732 -18.75 L 74.9512 -18.75 Z M 67.5781 -18.75 L 42.9199 -18.75 L 42.9199 0.830078 L 67.5781 0.830078 Z M 22.7051 0.830078 L 35.5469 0.830078 L 35.5469 -18.75 L 9.76562 -18.75 L 9.76562 -11.9629 C 9.76562 -3.51562 14.209 0.830078 22.7051 0.830078 Z"/>
  </g>
  <g id="Regular-S" transform="matrix(1 0 0 1 1394.79 696)">
   <path d="M 42.4805 -51.0254 L 67.6758 -51.0254 L 67.6758 -70.8008 L 42.4805 -70.8008 Z M 74.3164 -51.0254 L 100.342 -51.0254 L 100.342 -58.4961 C 100.342 -66.6992 96.2402 -70.8008 87.8906 -70.8008 L 74.3164 -70.8008 Z M 67.6758 -26.0254 L 67.6758 -44.3848 L 42.4805 -44.3848 L 42.4805 -26.0254 Z M 35.8398 -51.0254 L 35.8398 -70.8008 L 22.2168 -70.8008 C 13.916 -70.8008 9.76562 -66.6992 9.76562 -58.4961 L 9.76562 -51.0254 Z M 100.342 -44.3848 L 74.3164 -44.3848 L 74.3164 -26.0254 L 100.342 -26.0254 Z M 35.8398 -26.0254 L 35.8398 -44.3848 L 9.76562 -44.3848 L 9.76562 -26.0254 Z M 74.3164 0.390625 L 87.8906 0.390625 C 96.2402 0.390625 100.342 -3.71094 100.342 -11.9141 L 100.342 -19.3848 L 74.3164 -19.3848 Z M 67.6758 -19.3848 L 42.4805 -19.3848 L 42.4805 0.390625 L 67.6758 0.390625 Z M 22.2168 0.390625 L 35.8398 0.390625 L 35.8398 -19.3848 L 9.76562 -19.3848 L 9.76562 -11.9141 C 9.76562 -3.71094 13.916 0.390625 22.2168 0.390625 Z"/>
  </g>
  <g id="Light-S" transform="matrix(1 0 0 1 1098.42 696)">
   <path d="M 41.7969 -50.0977 L 67.627 -50.0977 L 67.627 -70.1172 L 41.7969 -70.1172 Z M 73.0957 -50.0977 L 99.6582 -50.0977 L 99.6582 -58.5938 C 99.6582 -66.2109 95.752 -70.1172 88.0371 -70.1172 L 73.0957 -70.1172 Z M 67.627 -25.7324 L 67.627 -44.6289 L 41.7969 -44.6289 L 41.7969 -25.7324 Z M 36.3281 -50.0977 L 36.3281 -70.1172 L 21.3867 -70.1172 C 13.6719 -70.1172 9.76562 -66.2598 9.76562 -58.5938 L 9.76562 -50.0977 Z M 99.6582 -44.6289 L 73.0957 -44.6289 L 73.0957 -25.7324 L 99.6582 -25.7324 Z M 36.3281 -25.7324 L 36.3281 -44.6289 L 9.76562 -44.6289 L 9.76562 -25.7324 Z M 73.0957 -0.292969 L 88.0371 -0.292969 C 95.752 -0.292969 99.6582 -4.15039 99.6582 -11.7676 L 99.6582 -20.2637 L 73.0957 -20.2637 Z M 67.627 -20.2637 L 41.7969 -20.2637 L 41.7969 -0.292969 L 67.627 -0.292969 Z M 21.3867 -0.292969 L 36.3281 -0.292969 L 36.3281 -20.2637 L 9.76562 -20.2637 L 9.76562 -11.7676 C 9.76562 -4.15039 13.6719 -0.292969 21.3867 -0.292969 Z"/>
  </g>
  <g id="Thin-S" transform="matrix(1 0 0 1 802.174 696)">
   <path d="M 40.918 -48.9258 L 67.627 -48.9258 L 67.627 -69.2383 L 40.918 -69.2383 Z M 71.5332 -48.9258 L 98.7305 -48.9258 L 98.7305 -58.6914 C 98.7305 -65.5762 95.1172 -69.2383 88.1836 -69.2383 L 71.5332 -69.2383 Z M 67.627 -25.3418 L 67.627 -44.9707 L 40.918 -44.9707 L 40.918 -25.3418 Z M 36.9629 -48.9258 L 36.9629 -69.2383 L 20.3125 -69.2383 C 13.3789 -69.2383 9.76562 -65.625 9.76562 -58.6914 L 9.76562 -48.9258 Z M 98.7305 -44.9707 L 71.5332 -44.9707 L 71.5332 -25.3418 L 98.7305 -25.3418 Z M 36.9629 -25.3418 L 36.9629 -44.9707 L 9.76562 -44.9707 L 9.76562 -25.3418 Z M 71.5332 -1.12305 L 88.1836 -1.12305 C 95.1172 -1.12305 98.7305 -4.78516 98.7305 -11.6211 L 98.7305 -21.4355 L 71.5332 -21.4355 Z M 67.627 -21.4355 L 40.918 -21.4355 L 40.918 -1.12305 L 67.627 -1.12305 Z M 20.3125 -1.12305 L 36.9629 -1.12305 L 36.9629 -21.4355 L 9.76562 -21.4355 L 9.76562 -11.6211 C 9.76562 -4.6875 13.3789 -1.12305 20.3125 -1.12305 Z"/>
  </g>
  <g id="Ultralight-S" transform="matrix(1 0 0 1 505.707 696)">
   <path d="M 40.4297 -48.291 L 67.5781 -48.291 L 67.5781 -68.75 L 40.4297 -68.75 Z M 70.7031 -48.291 L 98.2422 -48.291 L 98.2422 -58.7891 C 98.2422 -65.2344 94.8242 -68.75 88.2812 -68.75 L 70.7031 -68.75 Z M 67.5781 -25.1465 L 67.5781 -45.166 L 40.4297 -45.166 L 40.4297 -25.1465 Z M 37.3047 -48.291 L 37.3047 -68.75 L 19.7754 -68.75 C 13.2324 -68.75 9.76562 -65.2832 9.76562 -58.7891 L 9.76562 -48.291 Z M 98.2422 -45.166 L 70.7031 -45.166 L 70.7031 -25.1465 L 98.2422 -25.1465 Z M 37.3047 -25.1465 L 37.3047 -45.166 L 9.76562 -45.166 L 9.76562 -25.1465 Z M 70.7031 -1.5625 L 88.2812 -1.5625 C 94.8242 -1.5625 98.2422 -5.12695 98.2422 -11.5234 L 98.2422 -22.0215 L 70.7031 -22.0215 Z M 67.5781 -22.0215 L 40.4297 -22.0215 L 40.4297 -1.5625 L 67.5781 -1.5625 Z M 19.7754 -1.5625 L 37.3047 -1.5625 L 37.3047 -22.0215 L 9.76562 -22.0215 L 9.76562 -11.5234 C 9.76562 -5.0293 13.2324 -1.5625 19.7754 -1.5625 Z"/>
  </g>
 </g>
</svg>
