<?xml version="1.0" encoding="UTF-8"?>
<!--Generator: Apple Native CoreSVG 123-->
<!DOCTYPE svg
PUBLIC "-//W3C//DTD SVG 1.1//EN"
       "http://www.w3.org/Graphics/SVG/1.1/DTD/svg11.dtd">
<svg version="1.1" xmlns="http://www.w3.org/2000/svg" xmlns:xlink="http://www.w3.org/1999/xlink" width="3300" height="2200">
 <!--glyph: "uni100321.medium", point size: 100.000000, font version: "Version 15.0d7e11", template writer version: "5"-->
 <g id="Notes">
  <rect height="2200" id="artboard" style="fill:white;opacity:1" width="3300" x="0" y="0"/>
  <line id="" style="fill:none;stroke:black;opacity:1;stroke-width:0.5;" x1="263" x2="3036" y1="292" y2="292"/>
  <text style="stroke:none;fill:black;font-family:-apple-system,&quot;SF Pro Display&quot;,&quot;SF Pro Text&quot;,Helvetica,sans-serif;font-weight:bold;" transform="matrix(1 0 0 1 263 322)">Weight/Scale Variations</text>
  <text style="stroke:none;fill:black;font-family:-apple-system,&quot;SF Pro Display&quot;,&quot;SF Pro Text&quot;,Helvetica,sans-serif;text-anchor:middle;" transform="matrix(1 0 0 1 559.711 322)">Ultralight</text>
  <text style="stroke:none;fill:black;font-family:-apple-system,&quot;SF Pro Display&quot;,&quot;SF Pro Text&quot;,Helvetica,sans-serif;text-anchor:middle;" transform="matrix(1 0 0 1 856.422 322)">Thin</text>
  <text style="stroke:none;fill:black;font-family:-apple-system,&quot;SF Pro Display&quot;,&quot;SF Pro Text&quot;,Helvetica,sans-serif;text-anchor:middle;" transform="matrix(1 0 0 1 1153.13 322)">Light</text>
  <text style="stroke:none;fill:black;font-family:-apple-system,&quot;SF Pro Display&quot;,&quot;SF Pro Text&quot;,Helvetica,sans-serif;text-anchor:middle;" transform="matrix(1 0 0 1 1449.84 322)">Regular</text>
  <text style="stroke:none;fill:black;font-family:-apple-system,&quot;SF Pro Display&quot;,&quot;SF Pro Text&quot;,Helvetica,sans-serif;text-anchor:middle;" transform="matrix(1 0 0 1 1746.56 322)">Medium</text>
  <text style="stroke:none;fill:black;font-family:-apple-system,&quot;SF Pro Display&quot;,&quot;SF Pro Text&quot;,Helvetica,sans-serif;text-anchor:middle;" transform="matrix(1 0 0 1 2043.27 322)">Semibold</text>
  <text style="stroke:none;fill:black;font-family:-apple-system,&quot;SF Pro Display&quot;,&quot;SF Pro Text&quot;,Helvetica,sans-serif;text-anchor:middle;" transform="matrix(1 0 0 1 2339.98 322)">Bold</text>
  <text style="stroke:none;fill:black;font-family:-apple-system,&quot;SF Pro Display&quot;,&quot;SF Pro Text&quot;,Helvetica,sans-serif;text-anchor:middle;" transform="matrix(1 0 0 1 2636.69 322)">Heavy</text>
  <text style="stroke:none;fill:black;font-family:-apple-system,&quot;SF Pro Display&quot;,&quot;SF Pro Text&quot;,Helvetica,sans-serif;text-anchor:middle;" transform="matrix(1 0 0 1 2933.4 322)">Black</text>
  <line id="" style="fill:none;stroke:black;opacity:1;stroke-width:0.5;" x1="263" x2="3036" y1="1903" y2="1903"/>
  <g id="" transform="matrix(1 0 0 1 263 1933)">
   <path d="M 9.24805 0.830078 C 13.5547 0.830078 17.1387 -2.74414 17.1387 -7.05078 C 17.1387 -11.3574 13.5449 -14.9316 9.23828 -14.9316 C 4.94141 -14.9316 1.36719 -11.3574 1.36719 -7.05078 C 1.36719 -2.74414 4.95117 0.830078 9.24805 0.830078 Z M 9.24805 -0.654297 C 5.70312 -0.654297 2.87109 -3.49609 2.87109 -7.05078 C 2.87109 -10.6055 5.69336 -13.4473 9.23828 -13.4473 C 12.793 -13.4473 15.6348 -10.6055 15.6445 -7.05078 C 15.6543 -3.49609 12.8027 -0.654297 9.24805 -0.654297 Z M 9.22852 -3.42773 C 9.69727 -3.42773 9.9707 -3.74023 9.9707 -4.25781 L 9.9707 -6.31836 L 12.1973 -6.31836 C 12.6953 -6.31836 13.0371 -6.57227 13.0371 -7.04102 C 13.0371 -7.51953 12.7148 -7.7832 12.1973 -7.7832 L 9.9707 -7.7832 L 9.9707 -10.0098 C 9.9707 -10.5273 9.69727 -10.8496 9.22852 -10.8496 C 8.75977 -10.8496 8.50586 -10.5078 8.50586 -10.0098 L 8.50586 -7.7832 L 6.29883 -7.7832 C 5.78125 -7.7832 5.44922 -7.51953 5.44922 -7.04102 C 5.44922 -6.57227 5.80078 -6.31836 6.29883 -6.31836 L 8.50586 -6.31836 L 8.50586 -4.25781 C 8.50586 -3.75977 8.75977 -3.42773 9.22852 -3.42773 Z"/>
  </g>
  <g id="" transform="matrix(1 0 0 1 281.506 1933)">
   <path d="M 11.709 2.91016 C 17.1582 2.91016 21.6699 -1.60156 21.6699 -7.05078 C 21.6699 -12.4902 17.1484 -17.0117 11.6992 -17.0117 C 6.25977 -17.0117 1.74805 -12.4902 1.74805 -7.05078 C 1.74805 -1.60156 6.26953 2.91016 11.709 2.91016 Z M 11.709 1.25 C 7.09961 1.25 3.41797 -2.44141 3.41797 -7.05078 C 3.41797 -11.6504 7.08984 -15.3516 11.6992 -15.3516 C 16.3086 -15.3516 20 -11.6504 20.0098 -7.05078 C 20.0195 -2.44141 16.3184 1.25 11.709 1.25 Z M 11.6895 -2.41211 C 12.207 -2.41211 12.5195 -2.77344 12.5195 -3.33984 L 12.5195 -6.23047 L 15.5762 -6.23047 C 16.123 -6.23047 16.5039 -6.51367 16.5039 -7.03125 C 16.5039 -7.55859 16.1426 -7.86133 15.5762 -7.86133 L 12.5195 -7.86133 L 12.5195 -10.9277 C 12.5195 -11.5039 12.207 -11.8555 11.6895 -11.8555 C 11.1719 -11.8555 10.8789 -11.4844 10.8789 -10.9277 L 10.8789 -7.86133 L 7.83203 -7.86133 C 7.26562 -7.86133 6.89453 -7.55859 6.89453 -7.03125 C 6.89453 -6.51367 7.28516 -6.23047 7.83203 -6.23047 L 10.8789 -6.23047 L 10.8789 -3.33984 C 10.8789 -2.79297 11.1719 -2.41211 11.6895 -2.41211 Z"/>
  </g>
  <g id="" transform="matrix(1 0 0 1 304.924 1933)">
   <path d="M 14.9707 5.67383 C 21.9336 5.67383 27.6953 -0.078125 27.6953 -7.04102 C 27.6953 -14.0039 21.9238 -19.7559 14.9609 -19.7559 C 8.00781 -19.7559 2.25586 -14.0039 2.25586 -7.04102 C 2.25586 -0.078125 8.01758 5.67383 14.9707 5.67383 Z M 14.9707 3.85742 C 8.93555 3.85742 4.08203 -1.00586 4.08203 -7.04102 C 4.08203 -13.0762 8.92578 -17.9395 14.9609 -17.9395 C 21.0059 -17.9395 25.8594 -13.0762 25.8691 -7.04102 C 25.8789 -1.00586 21.0156 3.85742 14.9707 3.85742 Z M 14.9512 -1.06445 C 15.5176 -1.06445 15.8691 -1.45508 15.8691 -2.06055 L 15.8691 -6.13281 L 20.1074 -6.13281 C 20.6934 -6.13281 21.1133 -6.46484 21.1133 -7.02148 C 21.1133 -7.59766 20.7227 -7.93945 20.1074 -7.93945 L 15.8691 -7.93945 L 15.8691 -12.1875 C 15.8691 -12.8027 15.5176 -13.1934 14.9512 -13.1934 C 14.3848 -13.1934 14.0625 -12.7832 14.0625 -12.1875 L 14.0625 -7.93945 L 9.83398 -7.93945 C 9.21875 -7.93945 8.80859 -7.59766 8.80859 -7.02148 C 8.80859 -6.46484 9.23828 -6.13281 9.83398 -6.13281 L 14.0625 -6.13281 L 14.0625 -2.06055 C 14.0625 -1.47461 14.3848 -1.06445 14.9512 -1.06445 Z"/>
  </g>
  <text style="stroke:none;fill:black;font-family:-apple-system,&quot;SF Pro Display&quot;,&quot;SF Pro Text&quot;,Helvetica,sans-serif;font-weight:bold;" transform="matrix(1 0 0 1 263 1953)">Design Variations</text>
  <text style="stroke:none;fill:black;font-family:-apple-system,&quot;SF Pro Display&quot;,&quot;SF Pro Text&quot;,Helvetica,sans-serif;" transform="matrix(1 0 0 1 263 1971)">Symbols are supported in up to nine weights and three scales.</text>
  <text style="stroke:none;fill:black;font-family:-apple-system,&quot;SF Pro Display&quot;,&quot;SF Pro Text&quot;,Helvetica,sans-serif;" transform="matrix(1 0 0 1 263 1989)">For optimal layout with text and other symbols, vertically align</text>
  <text style="stroke:none;fill:black;font-family:-apple-system,&quot;SF Pro Display&quot;,&quot;SF Pro Text&quot;,Helvetica,sans-serif;" transform="matrix(1 0 0 1 263 2007)">symbols with the adjacent text.</text>
  <rect height="14" id="" style="fill:#00AEEF;stroke:none;opacity:0.4;" width="3" x="776" y="1919"/>
  <g id="" transform="matrix(1 0 0 1 779 1933)">
   <path d="M 10.5273 0 L 12.373 0 L 7.17773 -14.0918 L 5.43945 -14.0918 L 0.244141 0 L 2.08984 0 L 3.50586 -4.0332 L 9.11133 -4.0332 Z M 6.2793 -11.9531 L 6.33789 -11.9531 L 8.59375 -5.52734 L 4.02344 -5.52734 Z"/>
  </g>
  <rect height="14" id="" style="fill:#00AEEF;stroke:none;opacity:0.4;" width="3" x="791.617" y="1919"/>
  <text style="stroke:none;fill:black;font-family:-apple-system,&quot;SF Pro Display&quot;,&quot;SF Pro Text&quot;,Helvetica,sans-serif;font-weight:bold;" transform="matrix(1 0 0 1 776 1953)">Margins</text>
  <text style="stroke:none;fill:black;font-family:-apple-system,&quot;SF Pro Display&quot;,&quot;SF Pro Text&quot;,Helvetica,sans-serif;" transform="matrix(1 0 0 1 776 1971)">Leading and trailing margins on the left and right side of each symbol</text>
  <text style="stroke:none;fill:black;font-family:-apple-system,&quot;SF Pro Display&quot;,&quot;SF Pro Text&quot;,Helvetica,sans-serif;" transform="matrix(1 0 0 1 776 1989)">can be adjusted by modifying the width of the blue rectangles.</text>
  <text style="stroke:none;fill:black;font-family:-apple-system,&quot;SF Pro Display&quot;,&quot;SF Pro Text&quot;,Helvetica,sans-serif;" transform="matrix(1 0 0 1 776 2007)">Modifications are automatically applied proportionally to all</text>
  <text style="stroke:none;fill:black;font-family:-apple-system,&quot;SF Pro Display&quot;,&quot;SF Pro Text&quot;,Helvetica,sans-serif;" transform="matrix(1 0 0 1 776 2025)">scales and weights.</text>
  <g id="" transform="matrix(1 0 0 1 1289 1933)">
   <path d="M 2.83203 3.11523 L 4.375 4.6582 C 5.22461 5.48828 6.19141 5.41992 7.06055 4.46289 L 17.2754 -6.66016 C 17.7051 -6.36719 18.0957 -6.37695 18.5645 -6.47461 L 19.6094 -6.68945 L 20.3027 -5.99609 L 20.2539 -5.47852 C 20.1855 -4.95117 20.3516 -4.53125 20.8496 -4.0332 L 21.6602 -3.22266 C 22.168 -2.71484 22.8223 -2.68555 23.3008 -3.16406 L 26.5527 -6.41602 C 27.0312 -6.89453 27.0117 -7.54883 26.5039 -8.05664 L 25.6836 -8.87695 C 25.1855 -9.375 24.7754 -9.55078 24.2383 -9.47266 L 23.7109 -9.41406 L 23.0566 -10.0781 L 23.3398 -11.2207 C 23.4863 -11.7871 23.3398 -12.2559 22.7148 -12.8613 L 20.3027 -15.2539 C 16.7578 -18.7793 12.2266 -18.6719 9.11133 -15.5371 C 8.69141 -15.1074 8.64258 -14.5215 8.91602 -14.0918 C 9.15039 -13.7207 9.62891 -13.4961 10.2734 -13.6621 C 11.7871 -14.043 13.3008 -13.9258 14.7852 -12.9199 L 14.1602 -11.3379 C 13.9258 -10.752 13.9453 -10.2734 14.1797 -9.83398 L 3.01758 0.439453 C 2.08008 1.30859 1.97266 2.25586 2.83203 3.11523 Z M 10.6738 -15.1465 C 13.3398 -17.1387 16.6504 -16.8262 19.0527 -14.4141 L 21.6797 -11.8066 C 21.9141 -11.5723 21.9434 -11.3867 21.8848 -11.0938 L 21.5039 -9.53125 L 23.0762 -7.95898 L 24.043 -8.04688 C 24.3262 -8.07617 24.4141 -8.05664 24.6387 -7.83203 L 25.2637 -7.20703 L 22.5098 -4.46289 L 21.8848 -5.07812 C 21.6602 -5.30273 21.6406 -5.40039 21.6699 -5.68359 L 21.7578 -6.64062 L 20.1953 -8.20312 L 18.5742 -7.89062 C 18.291 -7.83203 18.1445 -7.83203 17.9102 -8.07617 L 15.7324 -10.2539 C 15.5078 -10.4883 15.4785 -10.625 15.6055 -10.9473 L 16.5527 -13.2227 C 14.9512 -14.7559 12.8418 -15.6055 10.8008 -14.9512 C 10.7129 -14.9219 10.6445 -14.9414 10.6152 -14.9805 C 10.5859 -15.0293 10.5859 -15.0781 10.6738 -15.1465 Z M 4.10156 2.41211 C 3.61328 1.91406 3.78906 1.61133 4.12109 1.30859 L 15.0781 -8.80859 L 16.3086 -7.57812 L 6.15234 3.34961 C 5.84961 3.68164 5.46875 3.7793 5.06836 3.37891 Z"/>
  </g>
  <text style="stroke:none;fill:black;font-family:-apple-system,&quot;SF Pro Display&quot;,&quot;SF Pro Text&quot;,Helvetica,sans-serif;font-weight:bold;" transform="matrix(1 0 0 1 1289 1953)">Exporting</text>
  <text style="stroke:none;fill:black;font-family:-apple-system,&quot;SF Pro Display&quot;,&quot;SF Pro Text&quot;,Helvetica,sans-serif;" transform="matrix(1 0 0 1 1289 1971)">Symbols should be outlined when exporting to ensure the</text>
  <text style="stroke:none;fill:black;font-family:-apple-system,&quot;SF Pro Display&quot;,&quot;SF Pro Text&quot;,Helvetica,sans-serif;" transform="matrix(1 0 0 1 1289 1989)">design is preserved when submitting to Xcode.</text>
  <text id="template-version" style="stroke:none;fill:black;font-family:-apple-system,&quot;SF Pro Display&quot;,&quot;SF Pro Text&quot;,Helvetica,sans-serif;text-anchor:end;" transform="matrix(1 0 0 1 3036 1933)">Template v.1.0</text>
  <text style="stroke:none;fill:black;font-family:-apple-system,&quot;SF Pro Display&quot;,&quot;SF Pro Text&quot;,Helvetica,sans-serif;text-anchor:end;" transform="matrix(1 0 0 1 3036 1951)">Generated from camera.circle.fill</text>
  <text style="stroke:none;fill:black;font-family:-apple-system,&quot;SF Pro Display&quot;,&quot;SF Pro Text&quot;,Helvetica,sans-serif;text-anchor:end;" transform="matrix(1 0 0 1 3036 1969)">Typeset at 100 points</text>
  <text style="stroke:none;fill:black;font-family:-apple-system,&quot;SF Pro Display&quot;,&quot;SF Pro Text&quot;,Helvetica,sans-serif;" transform="matrix(1 0 0 1 263 726)">Small</text>
  <text style="stroke:none;fill:black;font-family:-apple-system,&quot;SF Pro Display&quot;,&quot;SF Pro Text&quot;,Helvetica,sans-serif;" transform="matrix(1 0 0 1 263 1156)">Medium</text>
  <text style="stroke:none;fill:black;font-family:-apple-system,&quot;SF Pro Display&quot;,&quot;SF Pro Text&quot;,Helvetica,sans-serif;" transform="matrix(1 0 0 1 263 1586)">Large</text>
 </g>
 <g id="Guides">
  <g id="H-reference" style="fill:#27AAE1;stroke:none;" transform="matrix(1 0 0 1 339 696)">
   <path d="M 54.9316 0 L 57.666 0 L 30.5664 -70.459 L 28.0762 -70.459 L 0.976562 0 L 3.66211 0 L 12.9395 -24.4629 L 45.7031 -24.4629 Z M 29.1992 -67.0898 L 29.4434 -67.0898 L 44.8242 -26.709 L 13.8184 -26.709 Z"/>
  </g>
  <line id="Baseline-S" style="fill:none;stroke:#27AAE1;opacity:1;stroke-width:0.577;" x1="263" x2="3036" y1="696" y2="696"/>
  <line id="Capline-S" style="fill:none;stroke:#27AAE1;opacity:1;stroke-width:0.577;" x1="263" x2="3036" y1="625.541" y2="625.541"/>
  <g id="H-reference" style="fill:#27AAE1;stroke:none;" transform="matrix(1 0 0 1 339 1126)">
   <path d="M 54.9316 0 L 57.666 0 L 30.5664 -70.459 L 28.0762 -70.459 L 0.976562 0 L 3.66211 0 L 12.9395 -24.4629 L 45.7031 -24.4629 Z M 29.1992 -67.0898 L 29.4434 -67.0898 L 44.8242 -26.709 L 13.8184 -26.709 Z"/>
  </g>
  <line id="Baseline-M" style="fill:none;stroke:#27AAE1;opacity:1;stroke-width:0.577;" x1="263" x2="3036" y1="1126" y2="1126"/>
  <line id="Capline-M" style="fill:none;stroke:#27AAE1;opacity:1;stroke-width:0.577;" x1="263" x2="3036" y1="1055.54" y2="1055.54"/>
  <g id="H-reference" style="fill:#27AAE1;stroke:none;" transform="matrix(1 0 0 1 339 1556)">
   <path d="M 54.9316 0 L 57.666 0 L 30.5664 -70.459 L 28.0762 -70.459 L 0.976562 0 L 3.66211 0 L 12.9395 -24.4629 L 45.7031 -24.4629 Z M 29.1992 -67.0898 L 29.4434 -67.0898 L 44.8242 -26.709 L 13.8184 -26.709 Z"/>
  </g>
  <line id="Baseline-L" style="fill:none;stroke:#27AAE1;opacity:1;stroke-width:0.577;" x1="263" x2="3036" y1="1556" y2="1556"/>
  <line id="Capline-L" style="fill:none;stroke:#27AAE1;opacity:1;stroke-width:0.577;" x1="263" x2="3036" y1="1485.54" y2="1485.54"/>
  <rect height="119.336" id="left-margin" style="fill:#00AEEF;stroke:none;opacity:0.4;" width="8.74023" x="1391.3" y="1030.79"/>
  <rect height="119.336" id="right-margin" style="fill:#00AEEF;stroke:none;opacity:0.4;" width="8.74023" x="1499.65" y="1030.79"/>
 </g>
 <g id="Symbols">
  <g id="Black-L" transform="matrix(1 0 0 1 2854.05 1556)">
   <path d="M 79.3457 32.9102 C 116.748 32.9102 147.412 2.29492 147.412 -35.1074 C 147.412 -72.5586 116.748 -103.174 79.2969 -103.174 C 41.8945 -103.174 11.2793 -72.5586 11.2793 -35.1074 C 11.2793 2.29492 41.9434 32.9102 79.3457 32.9102 Z M 54.7852 -7.95898 C 47.8516 -7.95898 43.8477 -11.9141 43.8477 -18.7988 L 43.8477 -49.3164 C 43.8477 -56.25 47.8516 -60.2051 54.7852 -60.2051 L 59.7656 -60.2051 C 61.9629 -60.2051 62.793 -60.4492 64.4531 -61.9629 L 66.6504 -63.9648 C 68.3594 -65.5273 70.0195 -66.1133 72.8027 -66.1133 L 85.8887 -66.1133 C 88.7207 -66.1133 90.332 -65.4785 92.041 -63.9648 L 94.2383 -61.9629 C 95.8984 -60.4004 96.7773 -60.2051 98.9746 -60.2051 L 103.906 -60.2051 C 110.889 -60.2051 114.844 -56.25 114.844 -49.3164 L 114.844 -18.7988 C 114.844 -11.9141 110.889 -7.95898 103.906 -7.95898 Z M 79.1992 -18.457 C 88.4277 -18.457 95.7031 -25.7324 95.7031 -35.0586 C 95.7031 -44.2383 88.4277 -51.6113 79.1992 -51.6113 C 70.0195 -51.6113 62.6465 -44.2383 62.6465 -35.0586 C 62.6465 -25.8301 70.0195 -18.457 79.1992 -18.457 Z M 102.051 -40.8691 C 104.59 -40.8691 106.592 -42.8223 106.592 -45.3613 C 106.592 -47.9004 104.59 -49.9512 102.051 -49.9512 C 99.5117 -49.9512 97.5098 -47.9004 97.5098 -45.3613 C 97.5098 -42.8223 99.5117 -40.8691 102.051 -40.8691 Z M 79.1992 -27.0996 C 74.8047 -27.0996 71.2891 -30.6152 71.2891 -35.0586 C 71.2891 -39.502 74.8047 -43.0176 79.1992 -43.0176 C 83.5938 -43.0176 87.1582 -39.502 87.1582 -35.0586 C 87.1582 -30.6152 83.5938 -27.0996 79.1992 -27.0996 Z"/>
  </g>
  <g id="Heavy-L" transform="matrix(1 0 0 1 2558.39 1556)">
   <path d="M 78.2715 31.8848 C 115.088 31.8848 145.312 1.66016 145.312 -35.1074 C 145.312 -71.9238 115.039 -102.148 78.2715 -102.148 C 41.4551 -102.148 11.2793 -71.9238 11.2793 -35.1074 C 11.2793 1.66016 41.5039 31.8848 78.2715 31.8848 Z M 52.832 -7.66602 C 45.9961 -7.66602 42.1875 -11.4746 42.1875 -18.2129 L 42.1875 -49.6094 C 42.1875 -56.3965 45.9961 -60.2051 52.832 -60.2051 L 58.4473 -60.2051 C 60.6934 -60.2051 61.5234 -60.498 63.1348 -62.0117 L 65.4785 -64.3066 C 67.1875 -65.918 68.7988 -66.5527 71.7285 -66.5527 L 84.7168 -66.5527 C 87.6465 -66.5527 89.3066 -65.8691 90.9668 -64.3066 L 93.2617 -62.0117 C 94.9219 -60.4492 95.752 -60.2051 98.0469 -60.2051 L 103.711 -60.2051 C 110.547 -60.2051 114.355 -56.3965 114.355 -49.6094 L 114.355 -18.2129 C 114.355 -11.4746 110.547 -7.66602 103.711 -7.66602 Z M 78.0762 -17.8223 C 87.5977 -17.8223 95.166 -25.3418 95.166 -34.9609 C 95.166 -44.4824 87.5977 -52.0508 78.0762 -52.0508 C 68.6035 -52.0508 60.9863 -44.4824 60.9863 -34.9609 C 60.9863 -25.4395 68.6035 -17.8223 78.0762 -17.8223 Z M 101.367 -41.4551 C 103.857 -41.4551 105.811 -43.3594 105.762 -45.8008 C 105.762 -48.291 103.857 -50.2441 101.367 -50.2441 C 98.9258 -50.2441 96.9727 -48.291 96.9727 -45.8008 C 96.9727 -43.3594 98.9258 -41.4551 101.367 -41.4551 Z M 78.0762 -25.5371 C 72.9004 -25.5371 68.7012 -29.7363 68.7012 -34.9609 C 68.7012 -40.1855 72.9004 -44.3848 78.0762 -44.3848 C 83.3008 -44.3848 87.5 -40.1855 87.5 -34.9609 C 87.5 -29.7363 83.3008 -25.5371 78.0762 -25.5371 Z"/>
  </g>
  <g id="Bold-L" transform="matrix(1 0 0 1 2262.88 1556)">
   <path d="M 77.0996 30.7129 C 113.232 30.7129 142.92 0.976562 142.92 -35.1074 C 142.92 -71.2402 113.184 -100.977 77.0508 -100.977 C 40.9668 -100.977 11.2793 -71.2402 11.2793 -35.1074 C 11.2793 0.976562 41.0156 30.7129 77.0996 30.7129 Z M 50.6348 -7.32422 C 43.9453 -7.32422 40.2832 -10.9375 40.2832 -17.5781 L 40.2832 -49.9023 C 40.2832 -56.5918 43.9453 -60.2051 50.6348 -60.2051 L 56.9824 -60.2051 C 59.3262 -60.2051 60.1562 -60.5469 61.7188 -62.1582 L 64.1602 -64.6484 C 65.8691 -66.3574 67.4805 -67.041 70.5078 -67.041 L 83.4473 -67.041 C 86.4746 -67.041 88.0859 -66.3086 89.7949 -64.6484 L 92.1875 -62.1582 C 93.7988 -60.498 94.5801 -60.2051 97.0215 -60.2051 L 103.516 -60.2051 C 110.205 -60.2051 113.867 -56.5918 113.867 -49.9023 L 113.867 -17.5781 C 113.867 -10.9375 110.205 -7.32422 103.516 -7.32422 Z M 76.8555 -17.0898 C 86.7188 -17.0898 94.5312 -24.8535 94.5312 -34.8633 C 94.5312 -44.7266 86.7188 -52.5879 76.8555 -52.5879 C 67.041 -52.5879 59.082 -44.7266 59.082 -34.8633 C 59.082 -24.9512 67.041 -17.0898 76.8555 -17.0898 Z M 100.635 -42.041 C 103.027 -42.041 104.932 -43.8965 104.883 -46.2891 C 104.883 -48.7305 103.027 -50.6348 100.635 -50.6348 C 98.2422 -50.6348 96.3379 -48.7305 96.3379 -46.2891 C 96.3379 -43.8965 98.2422 -42.041 100.635 -42.041 Z M 76.8555 -23.8281 C 70.8008 -23.8281 65.8691 -28.7109 65.8691 -34.8633 C 65.8691 -40.9668 70.8008 -45.8496 76.8555 -45.8496 C 82.959 -45.8496 87.8418 -40.9668 87.8418 -34.8633 C 87.8418 -28.7109 82.959 -23.8281 76.8555 -23.8281 Z"/>
  </g>
  <g id="Semibold-L" transform="matrix(1 0 0 1 1966.97 1556)">
   <path d="M 76.2695 29.8828 C 111.914 29.8828 141.309 0.488281 141.309 -35.1074 C 141.309 -70.752 111.865 -100.146 76.2695 -100.146 C 40.625 -100.146 11.2793 -70.752 11.2793 -35.1074 C 11.2793 0.488281 40.6738 29.8828 76.2695 29.8828 Z M 49.1699 -7.08008 C 42.4805 -7.08008 38.9648 -10.5957 38.9648 -17.1387 L 38.9648 -50.1465 C 38.9648 -56.7383 42.4805 -60.2051 49.1699 -60.2051 L 55.957 -60.2051 C 58.3984 -60.2051 59.1797 -60.5957 60.7422 -62.207 L 63.2812 -64.8926 C 64.9414 -66.6504 66.5527 -67.3828 69.6777 -67.3828 L 82.5684 -67.3828 C 85.6934 -67.3828 87.2559 -66.6504 88.9648 -64.8926 L 91.4551 -62.207 C 93.0176 -60.5469 93.7988 -60.2051 96.2891 -60.2051 L 103.369 -60.2051 C 109.961 -60.2051 113.525 -56.7383 113.525 -50.1465 L 113.525 -17.1387 C 113.525 -10.5957 109.961 -7.08008 103.369 -7.08008 Z M 75.9766 -16.6016 C 86.084 -16.6016 94.1406 -24.5605 94.1406 -34.8145 C 94.1406 -44.873 86.084 -52.9297 75.9766 -52.9297 C 65.9668 -52.9297 57.8125 -44.873 57.8125 -34.8145 C 57.8125 -24.6582 65.9668 -16.6016 75.9766 -16.6016 Z M 100.098 -42.4805 C 102.441 -42.4805 104.297 -44.3359 104.297 -46.6797 C 104.248 -49.0234 102.441 -50.8789 100.098 -50.8789 C 97.8027 -50.8789 95.9473 -49.0234 95.9473 -46.6797 C 95.9473 -44.3359 97.8027 -42.4805 100.098 -42.4805 Z M 76.0254 -22.6562 C 69.3359 -22.6562 63.8672 -28.0273 63.8672 -34.8145 C 63.8672 -41.5039 69.3359 -46.9238 76.0254 -46.9238 C 82.7148 -46.9238 88.1348 -41.5039 88.1348 -34.8145 C 88.1348 -28.0273 82.7148 -22.6562 76.0254 -22.6562 Z"/>
  </g>
  <g id="Medium-L" transform="matrix(1 0 0 1 1670.87 1556)">
   <path d="M 75.6836 29.248 C 110.938 29.248 140.088 0.146484 140.088 -35.1074 C 140.088 -70.4102 110.889 -99.5117 75.6348 -99.5117 C 40.3809 -99.5117 11.2793 -70.4102 11.2793 -35.1074 C 11.2793 0.146484 40.3809 29.248 75.6836 29.248 Z M 47.998 -6.93359 C 41.4062 -6.93359 37.9883 -10.3516 37.9883 -16.7969 L 37.9883 -50.293 C 37.9883 -56.8359 41.4062 -60.2051 47.998 -60.2051 L 55.1758 -60.2051 C 57.666 -60.2051 58.4473 -60.6445 60.0098 -62.2559 L 62.5977 -65.0879 C 64.2578 -66.8457 65.8691 -67.627 69.043 -67.627 L 81.8848 -67.627 C 85.0586 -67.627 86.6211 -66.8457 88.3301 -65.0879 L 90.8691 -62.2559 C 92.4805 -60.5469 93.2129 -60.2051 95.752 -60.2051 L 103.223 -60.2051 C 109.814 -60.2051 113.232 -56.8359 113.232 -50.293 L 113.232 -16.7969 C 113.232 -10.3516 109.814 -6.93359 103.223 -6.93359 Z M 75.3418 -16.2109 C 85.5957 -16.2109 93.7988 -24.2676 93.7988 -34.7168 C 93.7988 -45.0195 85.5957 -53.2227 75.3418 -53.2227 C 65.1367 -53.2227 56.8359 -45.0195 56.8359 -34.7168 C 56.8359 -24.4141 65.1367 -16.2109 75.3418 -16.2109 Z M 99.707 -42.8223 C 102.002 -42.8223 103.857 -44.6289 103.809 -46.9238 C 103.809 -49.2188 102.002 -51.0742 99.707 -51.0742 C 97.4609 -51.0742 95.6055 -49.2188 95.6055 -46.9238 C 95.6055 -44.6289 97.4609 -42.8223 99.707 -42.8223 Z M 75.3418 -21.7285 C 68.2129 -21.7285 62.4023 -27.4902 62.4023 -34.7656 C 62.4023 -41.8945 68.2129 -47.7051 75.3418 -47.7051 C 82.5195 -47.7051 88.3301 -41.8945 88.3301 -34.7656 C 88.3301 -27.4902 82.5195 -21.7285 75.3418 -21.7285 Z"/>
  </g>
  <g id="Regular-L" transform="matrix(1 0 0 1 1374.97 1556)">
   <path d="M 74.8535 28.4668 C 109.668 28.4668 138.477 -0.341797 138.477 -35.1074 C 138.477 -69.9219 109.619 -98.7305 74.8047 -98.7305 C 40.0391 -98.7305 11.2793 -69.9219 11.2793 -35.1074 C 11.2793 -0.341797 40.0879 28.4668 74.8535 28.4668 Z M 46.5332 -6.68945 C 39.9902 -6.68945 36.7188 -9.96094 36.7188 -16.3574 L 36.7188 -50.4883 C 36.7188 -56.9336 39.9902 -60.2051 46.5332 -60.2051 L 54.1504 -60.2051 C 56.7383 -60.2051 57.4707 -60.6934 59.0332 -62.3535 L 61.7188 -65.332 C 63.3789 -67.1387 64.9414 -67.9688 68.2129 -67.9688 L 81.0059 -67.9688 C 84.2773 -67.9688 85.8398 -67.1387 87.5 -65.332 L 90.1367 -62.3535 C 91.6992 -60.5957 92.4316 -60.2051 95.0195 -60.2051 L 103.076 -60.2051 C 109.57 -60.2051 112.891 -56.9336 112.891 -50.4883 L 112.891 -16.3574 C 112.891 -9.96094 109.57 -6.68945 103.076 -6.68945 Z M 74.5117 -15.7227 C 84.9609 -15.7227 93.4082 -23.9746 93.4082 -34.668 C 93.4082 -45.166 84.9609 -53.5645 74.5117 -53.5645 C 64.0625 -53.5645 55.5664 -45.166 55.5664 -34.668 C 55.5664 -24.1211 64.0625 -15.7227 74.5117 -15.7227 Z M 99.2188 -43.2617 C 101.416 -43.2617 103.223 -45.0195 103.223 -47.2656 C 103.174 -49.5117 101.416 -51.3184 99.2188 -51.3184 C 97.0215 -51.3184 95.2148 -49.5117 95.2148 -47.2656 C 95.2148 -45.0195 97.0215 -43.2617 99.2188 -43.2617 Z M 74.5117 -20.5566 C 66.748 -20.5566 60.4492 -26.8066 60.4492 -34.668 C 60.4492 -42.4316 66.748 -48.7305 74.5117 -48.7305 C 82.2754 -48.7305 88.5742 -42.4316 88.5742 -34.668 C 88.5742 -26.8066 82.2754 -20.5566 74.5117 -20.5566 Z"/>
  </g>
  <g id="Light-L" transform="matrix(1 0 0 1 1079.18 1556)">
   <path d="M 73.9258 27.5879 C 108.301 27.5879 136.621 -0.732422 136.621 -35.1074 C 136.621 -69.4336 108.252 -97.7539 73.9258 -97.7539 C 39.5508 -97.7539 11.2793 -69.4336 11.2793 -35.1074 C 11.2793 -0.732422 39.5996 27.5879 73.9258 27.5879 Z M 44.7266 -6.68945 C 38.5254 -6.68945 35.3027 -9.91211 35.3027 -16.0156 L 35.3027 -50.8789 C 35.3027 -57.0312 38.5254 -60.2539 44.7266 -60.2539 L 52.8809 -60.2539 C 55.5664 -60.2539 56.2988 -60.5957 57.959 -62.3535 L 60.791 -65.5273 C 62.5 -67.4316 63.9648 -68.1152 67.1875 -68.1152 L 79.9316 -68.1152 C 83.1543 -68.1152 84.6191 -67.4316 86.377 -65.5273 L 89.1602 -62.3535 C 90.8691 -60.498 91.5527 -60.2539 94.2383 -60.2539 L 103.027 -60.2539 C 109.229 -60.2539 112.451 -57.0312 112.451 -50.8789 L 112.451 -16.0156 C 112.451 -9.91211 109.229 -6.68945 103.027 -6.68945 Z M 73.7305 -15.7715 C 84.1797 -15.7715 92.627 -24.0723 92.627 -34.7168 C 92.627 -45.2637 84.1797 -53.6621 73.7305 -53.6621 C 63.2324 -53.6621 54.7852 -45.2637 54.7852 -34.7168 C 54.7852 -24.1699 63.2324 -15.7715 73.7305 -15.7715 Z M 98.3398 -43.5547 C 100.391 -43.5547 102.002 -45.166 101.953 -47.2168 C 101.904 -49.2676 100.391 -50.9277 98.3398 -50.9277 C 96.3379 -50.9277 94.6289 -49.2676 94.6289 -47.2168 C 94.6289 -45.166 96.3379 -43.5547 98.3398 -43.5547 Z M 73.7305 -19.8242 C 65.4785 -19.8242 58.8379 -26.416 58.8379 -34.7656 C 58.8379 -42.9688 65.4785 -49.6582 73.7305 -49.6582 C 81.9336 -49.6582 88.5742 -42.9688 88.5742 -34.7656 C 88.5742 -26.416 81.9336 -19.8242 73.7305 -19.8242 Z"/>
  </g>
  <g id="Thin-L" transform="matrix(1 0 0 1 783.693 1556)">
   <path d="M 72.7051 26.416 C 106.494 26.416 134.18 -1.26953 134.18 -35.0586 C 134.18 -68.7988 106.494 -96.4844 72.7051 -96.4844 C 38.9648 -96.4844 11.2793 -68.7988 11.2793 -35.0586 C 11.2793 -1.26953 38.9648 26.416 72.7051 26.416 Z M 42.4316 -6.68945 C 36.5723 -6.68945 33.4961 -9.81445 33.4961 -15.5762 L 33.4961 -51.3672 C 33.4961 -57.0801 36.5723 -60.2539 42.4316 -60.2539 L 51.2207 -60.2539 C 54.0039 -60.2539 54.7852 -60.4492 56.543 -62.4023 L 59.5215 -65.7715 C 61.377 -67.7734 62.6465 -68.3105 65.8691 -68.3105 L 78.5645 -68.3105 C 81.7383 -68.3105 83.0566 -67.7734 84.9121 -65.7715 L 87.8906 -62.4023 C 89.6973 -60.3516 90.3809 -60.2539 93.2129 -60.2539 L 102.979 -60.2539 C 108.789 -60.2539 111.865 -57.0801 111.865 -51.3672 L 111.865 -15.5762 C 111.865 -9.81445 108.789 -6.68945 102.979 -6.68945 Z M 72.6562 -15.8203 C 83.1055 -15.8203 91.6016 -24.2676 91.6016 -34.8145 C 91.6016 -45.4102 83.1055 -53.8086 72.6562 -53.8086 C 62.1582 -53.8086 53.7109 -45.4102 53.7109 -34.8145 C 53.7109 -24.2676 62.1582 -15.8203 72.6562 -15.8203 Z M 72.6562 -18.7988 C 63.8184 -18.7988 56.7383 -25.9277 56.7383 -34.8633 C 56.7383 -43.7012 63.8184 -50.8789 72.6562 -50.8789 C 81.4453 -50.8789 88.5742 -43.7012 88.5742 -34.8633 C 88.5742 -25.9277 81.4453 -18.7988 72.6562 -18.7988 Z M 97.168 -43.9453 C 98.9746 -43.9453 100.391 -45.3613 100.342 -47.168 C 100.244 -48.9258 98.9746 -50.4395 97.168 -50.4395 C 95.4102 -50.4395 93.8965 -48.9258 93.8965 -47.168 C 93.8965 -45.3613 95.4102 -43.9453 97.168 -43.9453 Z"/>
  </g>
  <g id="Ultralight-L" transform="matrix(1 0 0 1 487.616 1556)">
   <path d="M 72.1191 25.7812 C 105.566 25.7812 132.91 -1.5625 132.91 -35.0098 C 132.91 -68.5059 105.566 -95.8496 72.1191 -95.8496 C 38.623 -95.8496 11.2793 -68.5059 11.2793 -35.0098 C 11.2793 -1.5625 38.623 25.7812 72.1191 25.7812 Z M 41.2109 -6.68945 C 35.5469 -6.68945 32.5684 -9.76562 32.5684 -15.332 L 32.5684 -51.5625 C 32.5684 -57.1289 35.5469 -60.2539 41.2109 -60.2539 L 50.3418 -60.2539 C 53.1738 -60.2539 53.9551 -60.4004 55.8105 -62.4512 L 58.8867 -65.8691 C 60.791 -67.9688 62.0117 -68.4082 65.1855 -68.4082 L 77.832 -68.4082 C 81.0059 -68.4082 82.2266 -67.9688 84.1309 -65.8691 L 87.207 -62.4512 C 89.1113 -60.3027 89.7949 -60.2539 92.6758 -60.2539 L 102.93 -60.2539 C 108.594 -60.2539 111.572 -57.1289 111.572 -51.5625 L 111.572 -15.332 C 111.572 -9.76562 108.594 -6.68945 102.93 -6.68945 Z M 72.1191 -15.8691 C 82.5684 -15.8691 91.0645 -24.3164 91.0645 -34.8633 C 91.0645 -45.459 82.5684 -53.9062 72.1191 -53.9062 C 61.6211 -53.9062 53.125 -45.459 53.125 -34.8633 C 53.125 -24.3164 61.6211 -15.8691 72.1191 -15.8691 Z M 72.1191 -18.3105 C 62.9883 -18.3105 55.6152 -25.6348 55.6152 -34.9121 C 55.6152 -44.043 62.9883 -51.5137 72.1191 -51.5137 C 81.2012 -51.5137 88.5742 -44.043 88.5742 -34.9121 C 88.5742 -25.6348 81.2012 -18.3105 72.1191 -18.3105 Z M 96.5332 -44.1406 C 98.291 -44.1406 99.5605 -45.459 99.5117 -47.168 C 99.4141 -48.7793 98.291 -50.1953 96.5332 -50.1953 C 94.9219 -50.1953 93.5059 -48.7793 93.5059 -47.168 C 93.5059 -45.459 94.9219 -44.1406 96.5332 -44.1406 Z"/>
  </g>
  <g id="Black-M" transform="matrix(1 0 0 1 2870.97 1126)">
   <path d="M 62.4023 18.5547 C 91.9922 18.5547 116.113 -5.56641 116.113 -35.1562 C 116.113 -64.7461 91.9922 -88.8184 62.4023 -88.8184 C 32.8125 -88.8184 8.74023 -64.7461 8.74023 -35.1562 C 8.74023 -5.56641 32.8125 18.5547 62.4023 18.5547 Z M 44.1406 -14.4531 C 38.8184 -14.4531 35.5469 -17.7246 35.5469 -23.0957 L 35.5469 -45.9473 C 35.5469 -51.3184 38.8184 -54.5898 44.1406 -54.5898 L 47.4121 -54.5898 C 49.0234 -54.5898 49.707 -54.6387 51.0742 -55.8105 L 52.6855 -57.1777 C 54.1016 -58.3496 55.3223 -58.6426 57.373 -58.6426 L 67.5293 -58.6426 C 69.5801 -58.6426 70.8008 -58.3008 72.2168 -57.1777 L 73.8281 -55.8105 C 75.1953 -54.6387 75.8789 -54.5898 77.5391 -54.5898 L 80.7617 -54.5898 C 86.1816 -54.5898 89.3555 -51.3184 89.3555 -45.9473 L 89.3555 -23.0957 C 89.3555 -17.7246 86.1816 -14.4531 80.7617 -14.4531 Z M 62.4023 -23.0957 C 69.1895 -23.0957 74.5117 -28.5156 74.5117 -35.2539 C 74.5117 -41.9922 69.1895 -47.3633 62.4023 -47.3633 C 55.7129 -47.3633 50.3418 -41.9922 50.3418 -35.2539 C 50.3418 -28.5156 55.7129 -23.0957 62.4023 -23.0957 Z M 79.4922 -39.0137 C 81.4941 -39.0137 83.0078 -40.5273 83.0078 -42.4316 C 83.0078 -44.4336 81.4941 -45.9961 79.4922 -45.9961 C 77.5391 -45.9961 76.0254 -44.4336 76.0254 -42.4316 C 76.0254 -40.5273 77.5391 -39.0137 79.4922 -39.0137 Z M 62.4023 -30.6152 C 59.8633 -30.6152 57.8125 -32.666 57.8125 -35.2539 C 57.8125 -37.8906 59.8633 -39.9414 62.4023 -39.9414 C 65.0391 -39.9414 67.0898 -37.8906 67.0898 -35.2539 C 67.0898 -32.666 65.0391 -30.6152 62.4023 -30.6152 Z"/>
  </g>
  <g id="Heavy-M" transform="matrix(1 0 0 1 2575.19 1126)">
   <path d="M 61.5234 17.627 C 90.5273 17.627 114.258 -6.10352 114.258 -35.1562 C 114.258 -64.1602 90.5273 -87.8906 61.4746 -87.8906 C 32.4707 -87.8906 8.74023 -64.1602 8.74023 -35.1562 C 8.74023 -6.10352 32.4707 17.627 61.5234 17.627 Z M 42.4805 -14.1602 C 37.1582 -14.1602 34.0332 -17.2363 34.0332 -22.5586 L 34.0332 -46.1914 C 34.0332 -51.4648 37.1582 -54.5898 42.4805 -54.5898 L 46.2891 -54.5898 C 47.998 -54.5898 48.6328 -54.7363 49.9512 -55.9082 L 51.6602 -57.4707 C 53.0273 -58.6914 54.2969 -59.082 56.4453 -59.082 L 66.5527 -59.082 C 68.7012 -59.082 69.9707 -58.6426 71.2891 -57.4707 L 72.998 -55.9082 C 74.3164 -54.6875 75 -54.5898 76.7578 -54.5898 L 80.5664 -54.5898 C 85.9375 -54.5898 88.9648 -51.4648 88.9648 -46.1914 L 88.9648 -22.5586 C 88.9648 -17.2363 85.9375 -14.1602 80.5664 -14.1602 Z M 61.4258 -22.4121 C 68.5059 -22.4121 74.1211 -28.0273 74.1211 -35.1562 C 74.1211 -42.1875 68.5059 -47.8516 61.4258 -47.8516 C 54.3945 -47.8516 48.7305 -42.1875 48.7305 -35.1562 C 48.7305 -28.0762 54.3945 -22.4121 61.4258 -22.4121 Z M 79.0039 -39.5508 C 80.957 -39.5508 82.4707 -41.0156 82.4707 -42.9688 C 82.4707 -44.9219 80.957 -46.4355 79.0039 -46.4355 C 77.0508 -46.4355 75.5859 -44.9219 75.5859 -42.9688 C 75.5859 -41.0156 77.0508 -39.5508 79.0039 -39.5508 Z M 61.4258 -29.1016 C 58.1055 -29.1016 55.4199 -31.7871 55.4199 -35.1562 C 55.4199 -38.5254 58.1055 -41.1621 61.4258 -41.1621 C 64.7949 -41.1621 67.4805 -38.5254 67.4805 -35.1562 C 67.4805 -31.7871 64.7949 -29.1016 61.4258 -29.1016 Z"/>
  </g>
  <g id="Bold-M" transform="matrix(1 0 0 1 2279.5 1126)">
   <path d="M 60.498 16.6016 C 88.8672 16.6016 112.207 -6.73828 112.207 -35.1562 C 112.207 -63.5742 88.8672 -86.9141 60.4492 -86.9141 C 32.0312 -86.9141 8.74023 -63.5742 8.74023 -35.1562 C 8.74023 -6.73828 32.0801 16.6016 60.498 16.6016 Z M 40.625 -13.8184 C 35.3027 -13.8184 32.373 -16.6992 32.373 -21.9238 L 32.373 -46.4355 C 32.373 -51.6602 35.3027 -54.5898 40.625 -54.5898 L 45.0684 -54.5898 C 46.8262 -54.5898 47.4609 -54.834 48.7305 -56.0059 L 50.5371 -57.8125 C 51.8555 -59.082 53.125 -59.6191 55.4199 -59.6191 L 65.4297 -59.6191 C 67.7246 -59.6191 68.9941 -59.0332 70.3125 -57.8125 L 72.1191 -56.0059 C 73.3887 -54.7852 74.0234 -54.5898 75.8301 -54.5898 L 80.3223 -54.5898 C 85.6445 -54.5898 88.5742 -51.6602 88.5742 -46.4355 L 88.5742 -21.9238 C 88.5742 -16.6992 85.6445 -13.8184 80.3223 -13.8184 Z M 60.3027 -21.582 C 67.7246 -21.582 73.6816 -27.4902 73.6816 -35.0098 C 73.6816 -42.4316 67.7246 -48.3887 60.3027 -48.3887 C 52.9297 -48.3887 46.9238 -42.4316 46.9238 -35.0098 C 46.9238 -27.5391 52.9297 -21.582 60.3027 -21.582 Z M 78.4668 -40.1367 C 80.3711 -40.1367 81.8359 -41.6016 81.8359 -43.5059 C 81.8359 -45.4102 80.3711 -46.9238 78.4668 -46.9238 C 76.5625 -46.9238 75.0488 -45.4102 75.0488 -43.5059 C 75.0488 -41.6016 76.5625 -40.1367 78.4668 -40.1367 Z M 60.3027 -27.4414 C 56.1523 -27.4414 52.7832 -30.8105 52.7832 -35.0098 C 52.7832 -39.209 56.1523 -42.5781 60.3027 -42.5781 C 64.502 -42.5781 67.8711 -39.209 67.8711 -35.0098 C 67.8711 -30.8105 64.502 -27.4414 60.3027 -27.4414 Z"/>
  </g>
  <g id="Semibold-M" transform="matrix(1 0 0 1 1983.5 1126)">
   <path d="M 59.7656 15.8691 C 87.7441 15.8691 110.791 -7.17773 110.791 -35.1562 C 110.791 -63.1348 87.6953 -86.1816 59.7656 -86.1816 C 31.7871 -86.1816 8.74023 -63.1348 8.74023 -35.1562 C 8.74023 -7.17773 31.7871 15.8691 59.7656 15.8691 Z M 39.3066 -13.5742 C 34.0332 -13.5742 31.25 -16.3574 31.25 -21.5332 L 31.25 -46.582 C 31.25 -51.8066 34.0332 -54.5898 39.3066 -54.5898 L 44.1895 -54.5898 C 46.0449 -54.5898 46.6309 -54.8828 47.8516 -56.1035 L 49.7559 -58.0566 C 51.0254 -59.375 52.2949 -59.9609 54.6875 -59.9609 L 64.6973 -59.9609 C 67.0898 -59.9609 68.3594 -59.3262 69.6289 -58.0566 L 71.4844 -56.1035 C 72.7051 -54.834 73.3398 -54.5898 75.1953 -54.5898 L 80.1758 -54.5898 C 85.4492 -54.5898 88.2812 -51.8066 88.2812 -46.582 L 88.2812 -21.5332 C 88.2812 -16.3574 85.4492 -13.5742 80.1758 -13.5742 Z M 59.5215 -21.0449 C 67.2363 -21.0449 73.3398 -27.0996 73.3398 -34.9121 C 73.3398 -42.5781 67.2363 -48.7305 59.5215 -48.7305 C 51.9043 -48.7305 45.7031 -42.5781 45.7031 -34.9121 C 45.7031 -27.1973 51.9043 -21.0449 59.5215 -21.0449 Z M 78.0762 -40.5762 C 79.9316 -40.5762 81.4453 -42.041 81.4453 -43.8965 C 81.3965 -45.8008 79.9316 -47.2656 78.0762 -47.2656 C 76.2207 -47.2656 74.707 -45.8008 74.707 -43.8965 C 74.707 -42.041 76.2207 -40.5762 78.0762 -40.5762 Z M 59.5703 -26.3184 C 54.7852 -26.3184 50.9766 -30.127 50.9766 -34.9121 C 50.9766 -39.6973 54.7852 -43.5059 59.5703 -43.5059 C 64.3066 -43.5059 68.1641 -39.6973 68.1641 -34.9121 C 68.1641 -30.127 64.3066 -26.3184 59.5703 -26.3184 Z"/>
  </g>
  <g id="Medium-M" transform="matrix(1 0 0 1 1687.3 1126)">
   <path d="M 59.2285 15.332 C 86.9141 15.332 109.766 -7.51953 109.766 -35.1562 C 109.766 -62.793 86.8652 -85.6445 59.1797 -85.6445 C 31.543 -85.6445 8.74023 -62.793 8.74023 -35.1562 C 8.74023 -7.51953 31.5918 15.332 59.2285 15.332 Z M 38.3301 -13.3789 C 33.1055 -13.3789 30.3711 -16.0645 30.3711 -21.1914 L 30.3711 -46.7285 C 30.3711 -51.9043 33.1055 -54.5898 38.3301 -54.5898 L 43.5547 -54.5898 C 45.4102 -54.5898 46.0449 -54.9316 47.2168 -56.1523 L 49.1699 -58.2031 C 50.4395 -59.5703 51.709 -60.2051 54.1504 -60.2051 L 64.1113 -60.2051 C 66.5527 -60.2051 67.8711 -59.5703 69.0918 -58.2031 L 71.0449 -56.1523 C 72.2168 -54.8828 72.8027 -54.5898 74.707 -54.5898 L 80.0781 -54.5898 C 85.3027 -54.5898 88.0371 -51.9043 88.0371 -46.7285 L 88.0371 -21.1914 C 88.0371 -16.0645 85.3027 -13.3789 80.0781 -13.3789 Z M 58.9844 -20.6543 C 66.8457 -20.6543 73.0957 -26.8066 73.0957 -34.8633 C 73.0957 -42.7246 66.8457 -49.0234 58.9844 -49.0234 C 51.123 -49.0234 44.7754 -42.7246 44.7754 -34.8633 C 44.7754 -26.9531 51.123 -20.6543 58.9844 -20.6543 Z M 77.7832 -40.8691 C 79.6387 -40.8691 81.1035 -42.334 81.1035 -44.1895 C 81.1035 -46.0449 79.6387 -47.5586 77.7832 -47.5586 C 75.9277 -47.5586 74.4141 -46.0449 74.4141 -44.1895 C 74.4141 -42.334 75.9277 -40.8691 77.7832 -40.8691 Z M 58.9844 -25.4395 C 53.7598 -25.4395 49.5605 -29.5898 49.5605 -34.8633 C 49.5605 -40.0391 53.7598 -44.2383 58.9844 -44.2383 C 64.1602 -44.2383 68.3594 -40.0391 68.3594 -34.8633 C 68.3594 -29.5898 64.1602 -25.4395 58.9844 -25.4395 Z"/>
  </g>
  <g id="Regular-M" transform="matrix(1 0 0 1 1391.3 1126)">
   <path d="M 58.5449 14.6484 C 85.791 14.6484 108.35 -7.95898 108.35 -35.1562 C 108.35 -62.4023 85.7422 -84.9609 58.4961 -84.9609 C 31.2988 -84.9609 8.74023 -62.4023 8.74023 -35.1562 C 8.74023 -7.95898 31.3477 14.6484 58.5449 14.6484 Z M 37.0605 -13.1348 C 31.8359 -13.1348 29.248 -15.7227 29.248 -20.8008 L 29.248 -46.875 C 29.248 -52.002 31.8359 -54.5898 37.0605 -54.5898 L 42.7246 -54.5898 C 44.6289 -54.5898 45.2148 -55.0293 46.3379 -56.2012 L 48.3887 -58.4473 C 49.6094 -59.8145 50.8789 -60.5469 53.418 -60.5469 L 63.3789 -60.5469 C 65.918 -60.5469 67.1875 -59.8145 68.457 -58.4473 L 70.4102 -56.2012 C 71.582 -54.9316 72.168 -54.5898 74.1211 -54.5898 L 79.9316 -54.5898 C 85.1074 -54.5898 87.7441 -52.002 87.7441 -46.875 L 87.7441 -20.8008 C 87.7441 -15.7227 85.1074 -13.1348 79.9316 -13.1348 Z M 58.2031 -20.0684 C 66.3086 -20.0684 72.8027 -26.416 72.8027 -34.7656 C 72.8027 -42.8711 66.3086 -49.3652 58.2031 -49.3652 C 50.0977 -49.3652 43.5547 -42.8711 43.5547 -34.7656 C 43.5547 -26.5625 50.0977 -20.0684 58.2031 -20.0684 Z M 77.3926 -41.2598 C 79.1992 -41.2598 80.7129 -42.7246 80.7129 -44.5801 C 80.6641 -46.4355 79.1992 -47.9004 77.3926 -47.9004 C 75.5859 -47.9004 74.0723 -46.4355 74.0723 -44.5801 C 74.0723 -42.7246 75.5859 -41.2598 77.3926 -41.2598 Z M 58.2031 -24.3164 C 52.4414 -24.3164 47.7539 -28.9551 47.7539 -34.7656 C 47.7539 -40.5273 52.4414 -45.166 58.2031 -45.166 C 63.9648 -45.166 68.6523 -40.5273 68.6523 -34.7656 C 68.6523 -28.9551 63.9648 -24.3164 58.2031 -24.3164 Z"/>
  </g>
  <g id="Light-M" transform="matrix(1 0 0 1 1095.42 1126)">
   <path d="M 57.7148 13.8184 C 84.5215 13.8184 106.689 -8.30078 106.689 -35.1562 C 106.689 -61.9629 84.5215 -84.1309 57.666 -84.1309 C 30.8594 -84.1309 8.74023 -61.9629 8.74023 -35.1562 C 8.74023 -8.30078 30.9082 13.8184 57.7148 13.8184 Z M 35.4492 -13.1348 C 30.5176 -13.1348 27.9785 -15.625 27.9785 -20.5078 L 27.9785 -47.168 C 27.9785 -52.0996 30.5176 -54.5898 35.4492 -54.5898 L 41.5527 -54.5898 C 43.6035 -54.5898 44.1895 -54.9316 45.3613 -56.25 L 47.5098 -58.6426 C 48.8281 -60.0586 50 -60.6445 52.5391 -60.6445 L 62.4512 -60.6445 C 64.9414 -60.6445 66.1133 -60.0586 67.4316 -58.6426 L 69.5312 -56.25 C 70.8008 -54.8828 71.3379 -54.5898 73.3887 -54.5898 L 79.8828 -54.5898 C 84.8145 -54.5898 87.3535 -52.0996 87.3535 -47.168 L 87.3535 -20.5078 C 87.3535 -15.625 84.8145 -13.1348 79.8828 -13.1348 Z M 57.4707 -20.1172 C 65.5762 -20.1172 72.1191 -26.5625 72.1191 -34.8145 C 72.1191 -42.9688 65.5762 -49.4629 57.4707 -49.4629 C 49.3652 -49.4629 42.8223 -42.9688 42.8223 -34.8145 C 42.8223 -26.6602 49.3652 -20.1172 57.4707 -20.1172 Z M 76.6113 -41.5527 C 78.2715 -41.5527 79.5898 -42.8711 79.5898 -44.5312 C 79.541 -46.1914 78.2715 -47.5586 76.6113 -47.5586 C 74.9512 -47.5586 73.584 -46.1914 73.584 -44.5312 C 73.584 -42.8711 74.9512 -41.5527 76.6113 -41.5527 Z M 57.4707 -23.6328 C 51.3184 -23.6328 46.3379 -28.5645 46.3379 -34.8145 C 46.3379 -41.0156 51.3184 -45.9961 57.4707 -45.9961 C 63.623 -45.9961 68.6523 -41.0156 68.6523 -34.8145 C 68.6523 -28.5645 63.623 -23.6328 57.4707 -23.6328 Z"/>
  </g>
  <g id="Thin-M" transform="matrix(1 0 0 1 799.806 1126)">
   <path d="M 56.6406 12.793 C 82.9102 12.793 104.492 -8.78906 104.492 -35.1074 C 104.492 -61.377 82.9102 -82.959 56.5918 -82.959 C 30.3223 -82.959 8.74023 -61.377 8.74023 -35.1074 C 8.74023 -8.78906 30.3223 12.793 56.6406 12.793 Z M 33.3496 -13.0859 C 28.7598 -13.0859 26.3672 -15.5762 26.3672 -20.1172 L 26.3672 -47.6074 C 26.3672 -52.1484 28.7598 -54.6387 33.3496 -54.6387 L 40.0391 -54.6387 C 42.1875 -54.6387 42.7734 -54.834 44.0918 -56.2988 L 46.3867 -58.8379 C 47.8027 -60.3516 48.8281 -60.8398 51.3184 -60.8398 L 61.1816 -60.8398 C 63.6719 -60.8398 64.6973 -60.3516 66.1133 -58.8379 L 68.4082 -56.2988 C 69.7754 -54.7363 70.3125 -54.6387 72.4609 -54.6387 L 79.834 -54.6387 C 84.4238 -54.6387 86.8164 -52.1484 86.8164 -47.6074 L 86.8164 -20.1172 C 86.8164 -15.5762 84.4238 -13.0859 79.834 -13.0859 Z M 56.543 -20.166 C 64.6484 -20.166 71.1914 -26.6602 71.1914 -34.9121 C 71.1914 -43.0664 64.6484 -49.6094 56.543 -49.6094 C 48.3887 -49.6094 41.8457 -43.0664 41.8457 -34.9121 C 41.8457 -26.709 48.3887 -20.166 56.543 -20.166 Z M 75.5371 -41.8945 C 77.002 -41.8945 78.1738 -43.0176 78.125 -44.4824 C 78.0762 -45.9473 77.002 -47.1191 75.5371 -47.1191 C 74.1211 -47.1191 72.9492 -45.9473 72.9492 -44.4824 C 72.9492 -43.0176 74.1211 -41.8945 75.5371 -41.8945 Z M 56.543 -22.7051 C 49.8047 -22.7051 44.4336 -28.125 44.4336 -34.9121 C 44.4336 -41.6504 49.8047 -47.0703 56.543 -47.0703 C 63.2324 -47.0703 68.6523 -41.6504 68.6523 -34.9121 C 68.6523 -28.125 63.2324 -22.7051 56.543 -22.7051 Z"/>
  </g>
  <g id="Ultralight-M" transform="matrix(1 0 0 1 503.656 1126)">
   <path d="M 56.0547 12.2559 C 82.0801 12.2559 103.369 -9.0332 103.369 -35.0586 C 103.369 -61.084 82.0801 -82.373 56.0547 -82.373 C 30.0293 -82.373 8.74023 -61.084 8.74023 -35.0586 C 8.74023 -9.0332 30.0293 12.2559 56.0547 12.2559 Z M 32.2754 -13.0859 C 27.8809 -13.0859 25.4883 -15.5273 25.4883 -19.873 L 25.4883 -47.8516 C 25.4883 -52.1973 27.8809 -54.6387 32.2754 -54.6387 L 39.2578 -54.6387 C 41.4551 -54.6387 42.0898 -54.7363 43.457 -56.2988 L 45.8008 -58.9355 C 47.2656 -60.5469 48.2422 -60.8887 50.6836 -60.8887 L 60.5469 -60.8887 C 62.9883 -60.8887 63.9648 -60.5469 65.4297 -58.9355 L 67.7734 -56.2988 C 69.2383 -54.6875 69.7754 -54.6387 71.9727 -54.6387 L 79.7852 -54.6387 C 84.2285 -54.6387 86.5723 -52.1973 86.5723 -47.8516 L 86.5723 -19.873 C 86.5723 -15.5273 84.2285 -13.0859 79.7852 -13.0859 Z M 56.0547 -20.2148 C 64.1602 -20.2148 70.752 -26.7578 70.752 -34.9609 C 70.752 -43.1152 64.1602 -49.6582 56.0547 -49.6582 C 47.9004 -49.6582 41.3574 -43.1152 41.3574 -34.9609 C 41.3574 -26.7578 47.9004 -20.2148 56.0547 -20.2148 Z M 56.0547 -22.2656 C 49.0723 -22.2656 43.457 -27.8809 43.457 -34.9609 C 43.457 -41.9434 49.0723 -47.6562 56.0547 -47.6562 C 62.9883 -47.6562 68.6523 -41.9434 68.6523 -34.9609 C 68.6523 -27.8809 62.9883 -22.2656 56.0547 -22.2656 Z M 75 -42.0898 C 76.3672 -42.0898 77.4414 -43.1152 77.3438 -44.4824 C 77.2949 -45.8008 76.3672 -46.875 75 -46.875 C 73.7305 -46.875 72.6074 -45.8008 72.6074 -44.4824 C 72.6074 -43.1152 73.7305 -42.0898 75 -42.0898 Z"/>
  </g>
  <g id="Black-S" transform="matrix(1 0 0 1 2884.57 696)">
   <path d="M 48.8281 6.83594 C 71.9727 6.83594 90.8203 -12.0117 90.8203 -35.1562 C 90.8203 -58.3008 71.9727 -77.1484 48.8281 -77.1484 C 25.6836 -77.1484 6.83594 -58.3008 6.83594 -35.1562 C 6.83594 -12.0117 25.6836 6.83594 48.8281 6.83594 Z M 34.4727 -18.9453 C 30.2734 -18.9453 27.7344 -21.4844 27.7344 -25.6836 L 27.7344 -43.6523 C 27.7344 -47.8516 30.2734 -50.3906 34.4727 -50.3906 L 37.0605 -50.3906 C 38.3301 -50.3906 38.8672 -50.4395 39.9414 -51.3672 L 41.2109 -52.4414 C 42.2852 -53.3691 43.2617 -53.6133 44.873 -53.6133 L 52.832 -53.6133 C 54.4434 -53.6133 55.4199 -53.3203 56.4941 -52.4414 L 57.7637 -51.3672 C 58.8379 -50.4395 59.375 -50.3906 60.6934 -50.3906 L 63.2324 -50.3906 C 67.4805 -50.3906 69.9707 -47.8516 69.9707 -43.6523 L 69.9707 -25.6836 C 69.9707 -21.4844 67.4805 -18.9453 63.2324 -18.9453 Z M 48.8281 -25.6836 C 54.1504 -25.6836 58.3496 -29.9316 58.3496 -35.2539 C 58.3496 -40.5273 54.1504 -44.7754 48.8281 -44.7754 C 43.5547 -44.7754 39.3066 -40.5273 39.3066 -35.2539 C 39.3066 -29.9316 43.5547 -25.6836 48.8281 -25.6836 Z M 62.2559 -38.2324 C 63.8184 -38.2324 64.9902 -39.4043 64.9902 -40.918 C 64.9902 -42.4805 63.8184 -43.7012 62.2559 -43.7012 C 60.6934 -43.7012 59.5215 -42.4805 59.5215 -40.918 C 59.5215 -39.4043 60.6934 -38.2324 62.2559 -38.2324 Z M 48.8281 -31.4941 C 46.7773 -31.4941 45.1172 -33.1543 45.1172 -35.2539 C 45.1172 -37.3535 46.7773 -39.0137 48.8281 -39.0137 C 50.9277 -39.0137 52.5879 -37.3535 52.5879 -35.2539 C 52.5879 -33.1543 50.9277 -31.4941 48.8281 -31.4941 Z"/>
  </g>
  <g id="Heavy-S" transform="matrix(1 0 0 1 2588.47 696)">
   <path d="M 48.2422 6.20117 C 70.9961 6.20117 89.5996 -12.4023 89.5996 -35.1562 C 89.5996 -57.9102 70.9961 -76.5625 48.1934 -76.5625 C 25.4395 -76.5625 6.83594 -57.9102 6.83594 -35.1562 C 6.83594 -12.4023 25.4395 6.20117 48.2422 6.20117 Z M 33.3496 -18.7012 C 29.1504 -18.7012 26.709 -21.1426 26.709 -25.293 L 26.709 -43.7988 C 26.709 -47.9492 29.1504 -50.3906 33.3496 -50.3906 L 36.3281 -50.3906 C 37.6465 -50.3906 38.1836 -50.5371 39.209 -51.416 L 40.5273 -52.6367 C 41.5527 -53.6133 42.5781 -53.9551 44.2871 -53.9551 L 52.1973 -53.9551 C 53.9062 -53.9551 54.8828 -53.5645 55.9082 -52.6367 L 57.2266 -51.416 C 58.252 -50.4883 58.7891 -50.3906 60.1562 -50.3906 L 63.0859 -50.3906 C 67.334 -50.3906 69.7266 -47.9492 69.7266 -43.7988 L 69.7266 -25.293 C 69.7266 -21.1426 67.334 -18.7012 63.0859 -18.7012 Z M 48.1445 -25.1465 C 53.7109 -25.1465 58.1055 -29.541 58.1055 -35.1562 C 58.1055 -40.6738 53.7109 -45.1172 48.1445 -45.1172 C 42.627 -45.1172 38.1836 -40.6738 38.1836 -35.1562 C 38.1836 -29.5898 42.627 -25.1465 48.1445 -25.1465 Z M 61.9629 -38.623 C 63.5254 -38.623 64.6973 -39.7949 64.6973 -41.3086 C 64.6973 -42.8711 63.5254 -44.0918 61.9629 -44.0918 C 60.4004 -44.0918 59.2285 -42.8711 59.2285 -41.3086 C 59.2285 -39.7949 60.4004 -38.623 61.9629 -38.623 Z M 48.1445 -30.4199 C 45.5566 -30.4199 43.457 -32.5195 43.457 -35.1562 C 43.457 -37.793 45.5566 -39.8438 48.1445 -39.8438 C 50.7812 -39.8438 52.8809 -37.793 52.8809 -35.1562 C 52.8809 -32.5195 50.7812 -30.4199 48.1445 -30.4199 Z"/>
  </g>
  <g id="Bold-S" transform="matrix(1 0 0 1 2292.44 696)">
   <path d="M 47.5586 5.51758 C 69.873 5.51758 88.2324 -12.8418 88.2324 -35.1562 C 88.2324 -57.5195 69.873 -75.8789 47.5098 -75.8789 C 25.1953 -75.8789 6.83594 -57.5195 6.83594 -35.1562 C 6.83594 -12.8418 25.1953 5.51758 47.5586 5.51758 Z M 32.1289 -18.4082 C 27.9297 -18.4082 25.6348 -20.7031 25.6348 -24.9023 L 25.6348 -43.9453 C 25.6348 -48.0957 27.9297 -50.3906 32.1289 -50.3906 L 35.5469 -50.3906 C 36.9141 -50.3906 37.4023 -50.5859 38.3301 -51.5137 L 39.7461 -52.8809 C 40.7715 -53.8574 41.7969 -54.2969 43.6035 -54.2969 L 51.4648 -54.2969 C 53.2715 -54.2969 54.2969 -53.8574 55.2734 -52.8809 L 56.6895 -51.5137 C 57.6172 -50.5859 58.1543 -50.3906 59.5215 -50.3906 L 62.9395 -50.3906 C 67.1387 -50.3906 69.4336 -48.0957 69.4336 -43.9453 L 69.4336 -24.9023 C 69.4336 -20.7031 67.1387 -18.4082 62.9395 -18.4082 Z M 47.3633 -24.5117 C 53.2227 -24.5117 57.8613 -29.1016 57.8613 -35.0586 C 57.8613 -40.8691 53.2227 -45.5078 47.3633 -45.5078 C 41.5527 -45.5078 36.8652 -40.8691 36.8652 -35.0586 C 36.8652 -29.1992 41.5527 -24.5117 47.3633 -24.5117 Z M 61.6211 -39.0137 C 63.1836 -39.0137 64.3555 -40.2344 64.3555 -41.748 C 64.3555 -43.3105 63.1836 -44.4824 61.6211 -44.4824 C 60.1074 -44.4824 58.8867 -43.3105 58.8867 -41.748 C 58.8867 -40.2344 60.1074 -39.0137 61.6211 -39.0137 Z M 47.3633 -29.248 C 44.1895 -29.248 41.6016 -31.7871 41.6016 -35.0586 C 41.6016 -38.2324 44.1895 -40.8203 47.3633 -40.8203 C 50.5859 -40.8203 53.1738 -38.2324 53.1738 -35.0586 C 53.1738 -31.7871 50.5859 -29.248 47.3633 -29.248 Z"/>
  </g>
  <g id="Semibold-S" transform="matrix(1 0 0 1 1996.2 696)">
   <path d="M 47.0703 5.0293 C 69.0918 5.0293 87.3047 -13.1348 87.3047 -35.2051 C 87.3047 -57.2266 69.0918 -75.4395 47.0215 -75.4395 C 25 -75.4395 6.83594 -57.2266 6.83594 -35.2051 C 6.83594 -13.1348 25.0488 5.0293 47.0703 5.0293 Z M 31.2988 -18.2617 C 27.0508 -18.2617 24.8535 -20.459 24.8535 -24.6094 L 24.8535 -44.043 C 24.8535 -48.1934 27.0508 -50.3906 31.2988 -50.3906 L 34.9609 -50.3906 C 36.377 -50.3906 36.8652 -50.6836 37.793 -51.5625 L 39.209 -53.0762 C 40.1855 -54.0527 41.2598 -54.541 43.1152 -54.541 L 50.9766 -54.541 C 52.832 -54.541 53.8574 -54.0527 54.834 -53.0762 L 56.25 -51.5625 C 57.1777 -50.6348 57.7148 -50.3906 59.1309 -50.3906 L 62.8418 -50.3906 C 66.9922 -50.3906 69.2871 -48.1934 69.2871 -44.043 L 69.2871 -24.6094 C 69.2871 -20.459 66.9922 -18.2617 62.8418 -18.2617 Z M 46.875 -24.0723 C 52.8809 -24.0723 57.666 -28.8086 57.666 -34.9609 C 57.666 -40.9668 52.8809 -45.8008 46.875 -45.8008 C 40.8691 -45.8008 35.9863 -40.9668 35.9863 -34.9609 C 35.9863 -28.9062 40.8691 -24.0723 46.875 -24.0723 Z M 61.4258 -39.3066 C 62.9395 -39.3066 64.1602 -40.5273 64.1602 -42.041 C 64.1602 -43.6035 62.9395 -44.7754 61.4258 -44.7754 C 59.9121 -44.7754 58.6914 -43.6035 58.6914 -42.041 C 58.6914 -40.5273 59.9121 -39.3066 61.4258 -39.3066 Z M 46.875 -28.418 C 43.2617 -28.418 40.332 -31.2988 40.332 -34.9609 C 40.332 -38.5742 43.2617 -41.4551 46.875 -41.4551 C 50.4395 -41.4551 53.3691 -38.5742 53.3691 -34.9609 C 53.3691 -31.2988 50.4395 -28.418 46.875 -28.418 Z"/>
  </g>
  <g id="Medium-S" transform="matrix(1 0 0 1 1699.83 696)">
   <path d="M 46.7285 4.6875 C 68.5547 4.6875 86.6211 -13.3789 86.6211 -35.2051 C 86.6211 -56.9824 68.5059 -75.0977 46.6797 -75.0977 C 24.8535 -75.0977 6.83594 -56.9824 6.83594 -35.2051 C 6.83594 -13.3789 24.9023 4.6875 46.7285 4.6875 Z M 30.6152 -18.1152 C 26.416 -18.1152 24.2676 -20.2148 24.2676 -24.3652 L 24.2676 -44.0918 C 24.2676 -48.2422 26.416 -50.3906 30.6152 -50.3906 L 34.5703 -50.3906 C 35.9863 -50.3906 36.4746 -50.7324 37.3535 -51.6113 L 38.8184 -53.1738 C 39.7949 -54.1992 40.8203 -54.7363 42.7734 -54.7363 L 50.5859 -54.7363 C 52.5391 -54.7363 53.5645 -54.1992 54.541 -53.1738 L 55.957 -51.6113 C 56.8359 -50.6836 57.373 -50.3906 58.7891 -50.3906 L 62.7441 -50.3906 C 66.9434 -50.3906 69.1406 -48.2422 69.1406 -44.0918 L 69.1406 -24.3652 C 69.1406 -20.2148 66.9434 -18.1152 62.7441 -18.1152 Z M 46.4355 -23.7793 C 52.6367 -23.7793 57.5195 -28.5645 57.5195 -34.9121 C 57.5195 -41.0645 52.6367 -45.9961 46.4355 -45.9961 C 40.2832 -45.9961 35.3516 -41.0645 35.3516 -34.9121 C 35.3516 -28.7109 40.2832 -23.7793 46.4355 -23.7793 Z M 61.2305 -39.5508 C 62.7441 -39.5508 63.9648 -40.7227 63.9648 -42.2852 C 63.9648 -43.7988 62.7441 -45.0195 61.2305 -45.0195 C 59.7168 -45.0195 58.4961 -43.7988 58.4961 -42.2852 C 58.4961 -40.7227 59.7168 -39.5508 61.2305 -39.5508 Z M 46.4355 -27.7832 C 42.5293 -27.7832 39.3555 -30.957 39.3555 -34.9121 C 39.3555 -38.8184 42.5293 -41.9434 46.4355 -41.9434 C 50.3906 -41.9434 53.5645 -38.8184 53.5645 -34.9121 C 53.5645 -30.957 50.3906 -27.7832 46.4355 -27.7832 Z"/>
  </g>
  <g id="Regular-S" transform="matrix(1 0 0 1 1403.58 696)">
   <path d="M 46.2402 4.19922 C 67.7734 4.19922 85.6934 -13.6719 85.6934 -35.2051 C 85.6934 -56.7383 67.7246 -74.6094 46.1914 -74.6094 C 24.707 -74.6094 6.83594 -56.7383 6.83594 -35.2051 C 6.83594 -13.6719 24.7559 4.19922 46.2402 4.19922 Z M 29.7852 -17.9199 C 25.5859 -17.9199 23.4863 -19.9707 23.4863 -24.0723 L 23.4863 -44.1895 C 23.4863 -48.3398 25.5859 -50.3906 29.7852 -50.3906 L 33.9844 -50.3906 C 35.498 -50.3906 35.9375 -50.7812 36.7676 -51.6602 L 38.2812 -53.3691 C 39.2578 -54.3945 40.2832 -54.9805 42.2852 -54.9805 L 50.0977 -54.9805 C 52.0996 -54.9805 53.1738 -54.3945 54.1016 -53.3691 L 55.5664 -51.6602 C 56.4453 -50.7324 56.8848 -50.3906 58.3984 -50.3906 L 62.6465 -50.3906 C 66.7969 -50.3906 68.9453 -48.3398 68.9453 -44.1895 L 68.9453 -24.0723 C 68.9453 -19.9707 66.7969 -17.9199 62.6465 -17.9199 Z M 45.9473 -23.3398 C 52.2949 -23.3398 57.373 -28.2715 57.373 -34.8145 C 57.373 -41.1621 52.2949 -46.2402 45.9473 -46.2402 C 39.5996 -46.2402 34.4727 -41.1621 34.4727 -34.8145 C 34.4727 -28.418 39.5996 -23.3398 45.9473 -23.3398 Z M 60.9863 -39.8438 C 62.5 -39.8438 63.7695 -41.0156 63.7207 -42.5781 C 63.7207 -44.0918 62.5 -45.3125 60.9863 -45.3125 C 59.5215 -45.3125 58.252 -44.0918 58.252 -42.5781 C 58.252 -41.0156 59.5215 -39.8438 60.9863 -39.8438 Z M 45.9473 -27.002 C 41.6016 -27.002 38.0859 -30.4688 38.0859 -34.8145 C 38.0859 -39.1602 41.6016 -42.627 45.9473 -42.627 C 50.2441 -42.627 53.7598 -39.1602 53.7598 -34.8145 C 53.7598 -30.4688 50.2441 -27.002 45.9473 -27.002 Z"/>
  </g>
  <g id="Light-S" transform="matrix(1 0 0 1 1107.6 696)">
   <path d="M 45.5078 3.51562 C 66.6992 3.51562 84.2285 -14.0137 84.2285 -35.1562 C 84.2285 -56.3477 66.6504 -73.877 45.5078 -73.877 C 24.3164 -73.877 6.83594 -56.3477 6.83594 -35.1562 C 6.83594 -14.0137 24.3652 3.51562 45.5078 3.51562 Z M 28.3691 -17.9199 C 24.4141 -17.9199 22.4121 -19.9219 22.4121 -23.8281 L 22.4121 -44.4824 C 22.4121 -48.3887 24.4141 -50.3906 28.3691 -50.3906 L 33.0078 -50.3906 C 34.5215 -50.3906 35.0098 -50.6836 35.8887 -51.709 L 37.5488 -53.4668 C 38.5254 -54.5898 39.502 -55.127 41.5039 -55.127 L 49.2676 -55.127 C 51.2207 -55.127 52.1973 -54.5898 53.2227 -53.4668 L 54.7852 -51.709 C 55.7617 -50.6348 56.2012 -50.3906 57.7637 -50.3906 L 62.5977 -50.3906 C 66.5527 -50.3906 68.6035 -48.3887 68.6035 -44.4824 L 68.6035 -23.8281 C 68.6035 -19.9219 66.5527 -17.9199 62.5977 -17.9199 Z M 45.3125 -23.3887 C 51.6602 -23.3887 56.7383 -28.3691 56.7383 -34.8633 C 56.7383 -41.2598 51.6602 -46.3379 45.3125 -46.3379 C 38.9648 -46.3379 33.7891 -41.2598 33.7891 -34.8633 C 33.7891 -28.4668 38.9648 -23.3887 45.3125 -23.3887 Z M 60.3027 -40.0879 C 61.6699 -40.0879 62.793 -41.1621 62.7441 -42.5293 C 62.7441 -43.8965 61.6699 -45.0195 60.3027 -45.0195 C 58.9844 -45.0195 57.8125 -43.8965 57.8125 -42.5293 C 57.8125 -41.1621 58.9844 -40.0879 60.3027 -40.0879 Z M 45.3125 -26.416 C 40.625 -26.416 36.8164 -30.1758 36.8164 -34.8633 C 36.8164 -39.5508 40.625 -43.3594 45.3125 -43.3594 C 49.9512 -43.3594 53.7598 -39.5508 53.7598 -34.8633 C 53.7598 -30.1758 49.9512 -26.416 45.3125 -26.416 Z"/>
  </g>
  <g id="Thin-S" transform="matrix(1 0 0 1 811.867 696)">
   <path d="M 44.5801 2.58789 C 65.2832 2.58789 82.2754 -14.4043 82.2754 -35.1562 C 82.2754 -55.8594 65.2344 -72.8516 44.5312 -72.8516 C 23.8281 -72.8516 6.83594 -55.8594 6.83594 -35.1562 C 6.83594 -14.4043 23.877 2.58789 44.5801 2.58789 Z M 26.5137 -17.9199 C 22.8516 -17.9199 20.9473 -19.8242 20.9473 -23.4375 L 20.9473 -44.873 C 20.9473 -48.4863 22.8516 -50.4395 26.5137 -50.4395 L 31.6406 -50.4395 C 33.3008 -50.4395 33.7891 -50.5859 34.7656 -51.709 L 36.5723 -53.6621 C 37.6465 -54.8828 38.4766 -55.2246 40.4297 -55.2246 L 48.1445 -55.2246 C 50.0977 -55.2246 50.9277 -54.8828 52.0508 -53.6621 L 53.8086 -51.709 C 54.834 -50.5371 55.2734 -50.4395 56.9336 -50.4395 L 62.5488 -50.4395 C 66.2109 -50.4395 68.1152 -48.4863 68.1152 -44.873 L 68.1152 -23.4375 C 68.1152 -19.8242 66.2109 -17.9199 62.5488 -17.9199 Z M 44.4336 -23.4375 C 50.8301 -23.4375 55.957 -28.5156 55.957 -34.9609 C 55.957 -41.3574 50.8301 -46.4844 44.4336 -46.4844 C 38.0859 -46.4844 32.959 -41.3574 32.959 -34.9609 C 32.959 -28.5645 38.0859 -23.4375 44.4336 -23.4375 Z M 59.375 -40.3809 C 60.5469 -40.3809 61.5234 -41.3086 61.4746 -42.5293 C 61.4258 -43.6523 60.5469 -44.6289 59.375 -44.6289 C 58.252 -44.6289 57.2754 -43.6523 57.2754 -42.5293 C 57.2754 -41.3086 58.252 -40.3809 59.375 -40.3809 Z M 44.4824 -25.5859 C 39.3066 -25.5859 35.1562 -29.7363 35.1562 -34.9609 C 35.1562 -40.1367 39.3066 -44.2871 44.4824 -44.2871 C 49.6094 -44.2871 53.7598 -40.1367 53.7598 -34.9609 C 53.7598 -29.7363 49.6094 -25.5859 44.4824 -25.5859 Z"/>
  </g>
  <g id="Ultralight-S" transform="matrix(1 0 0 1 515.644 696)">
   <path d="M 44.043 2.09961 C 64.502 2.09961 81.2988 -14.6484 81.2988 -35.1074 C 81.2988 -55.5664 64.502 -72.3145 44.043 -72.3145 C 23.584 -72.3145 6.83594 -55.5664 6.83594 -35.1074 C 6.83594 -14.6484 23.584 2.09961 44.043 2.09961 Z M 25.5859 -17.8711 C 22.0703 -17.8711 20.2148 -19.7754 20.2148 -23.2422 L 20.2148 -45.0684 C 20.2148 -48.5352 22.0703 -50.4395 25.5859 -50.4395 L 30.957 -50.4395 C 32.666 -50.4395 33.1543 -50.5371 34.2285 -51.7578 L 36.0352 -53.7598 C 37.1582 -55.0293 37.9395 -55.3223 39.8926 -55.3223 L 47.6074 -55.3223 C 49.5117 -55.3223 50.293 -55.0293 51.416 -53.7598 L 53.2715 -51.7578 C 54.3945 -50.4883 54.7852 -50.4395 56.4941 -50.4395 L 62.5 -50.4395 C 66.0156 -50.4395 67.8711 -48.5352 67.8711 -45.0684 L 67.8711 -23.2422 C 67.8711 -19.7754 66.0156 -17.8711 62.5 -17.8711 Z M 44.043 -23.4375 C 50.3906 -23.4375 55.5176 -28.5645 55.5176 -35.0098 C 55.5176 -41.4062 50.3906 -46.5332 44.043 -46.5332 C 37.6465 -46.5332 32.5195 -41.4062 32.5195 -35.0098 C 32.5195 -28.5645 37.6465 -23.4375 44.043 -23.4375 Z M 44.043 -25.1953 C 38.623 -25.1953 34.2773 -29.541 34.2773 -35.0098 C 34.2773 -40.4297 38.623 -44.8242 44.043 -44.8242 C 49.4141 -44.8242 53.7598 -40.4297 53.7598 -35.0098 C 53.7598 -29.541 49.4141 -25.1953 44.043 -25.1953 Z M 58.8867 -40.5273 C 60.0098 -40.5273 60.8398 -41.4062 60.791 -42.4805 C 60.7422 -43.5547 60.0098 -44.4336 58.8867 -44.4336 C 57.8613 -44.4336 56.9336 -43.5547 56.9336 -42.4805 C 56.9336 -41.4062 57.8613 -40.5273 58.8867 -40.5273 Z"/>
  </g>
 </g>
</svg>
